<svg width="665" height="1024" viewBox="0 0 665 1024" fill="none" xmlns="http://www.w3.org/2000/svg">
<g clip-path="url(#clip0_7873_105188)">
<rect width="665" height="1024" fill="#0E369C"/>
<g opacity="0.8">
<path d="M336.295 93.0873L336.295 45.1632C311.886 45.1632 292.001 25.2787 292.001 0.869829C292.001 -23.539 311.886 -43.4236 336.295 -43.4236L336.295 -91.3477C323.839 -91.3477 311.774 -88.89 300.38 -84.0864C289.376 -79.4504 279.546 -72.8037 271.056 -64.3136C262.565 -55.8794 255.975 -45.993 251.283 -34.9895C246.479 -23.5949 244.021 -11.5301 244.021 0.925674C244.021 13.3815 246.479 25.4463 251.283 36.8408C255.919 47.8444 262.565 57.6749 271.055 66.165C279.49 74.5992 289.376 81.2459 300.38 85.9378C311.774 90.6855 323.839 93.0873 336.295 93.0873Z" fill="#3E65CB"/>
<path d="M59.6067 -108.355H151.824V83.0056H59.6067V-108.355Z" fill="#1641AC"/>
<path d="M151.825 -108.355H244.043V83.0056H151.825V-108.355Z" fill="#2652C0"/>
<path d="M59.6631 175H-126.001L59.6631 -48.3105V175Z" fill="#3E65CB"/>
<path d="M59.6631 -48.3105L-126.001 175V-48.3105H59.6631Z" fill="#1641AC"/>
<path d="M59.6637 83.704H107.588C107.588 59.2951 127.472 39.4105 151.881 39.4105C176.29 39.4105 196.175 59.2951 196.175 83.704H244.099C244.099 71.2482 241.641 59.1834 236.837 47.7888C232.201 36.7853 225.555 26.9547 217.065 18.4647C208.63 9.97465 198.744 3.38375 187.74 -1.30812C176.346 -6.11169 164.281 -8.56934 151.825 -8.56934C139.37 -8.56934 127.305 -6.11169 115.91 -1.30812C104.907 3.32789 95.076 9.97465 86.586 18.4647C78.1518 26.8989 71.5051 36.7853 66.8132 47.7888C62.0655 59.1834 59.6637 71.2482 59.6637 83.704Z" fill="#0E369C"/>
</g>
<g opacity="0.8">
<path d="M334 1093.33L334 1054.76C353.642 1054.76 369.643 1038.76 369.643 1019.12C369.643 999.478 353.642 983.478 334 983.478L334 944.914C344.023 944.914 353.732 946.892 362.901 950.757C371.755 954.488 379.665 959.836 386.497 966.668C393.329 973.455 398.633 981.41 402.408 990.264C406.273 999.433 408.251 1009.14 408.251 1019.16C408.251 1029.19 406.273 1038.9 402.408 1048.06C398.678 1056.92 393.329 1064.83 386.497 1071.66C379.71 1078.45 371.755 1083.8 362.901 1087.57C353.732 1091.39 344.023 1093.33 334 1093.33Z" fill="#3E65CB"/>
<path d="M556.645 931.229H482.439V1085.21H556.645V931.229Z" fill="#1641AC"/>
<path d="M482.439 931.229H408.233V1085.21H482.439V931.229Z" fill="#2652C0"/>
<path d="M706 917.7C706 876.62 672.38 843 631.3 843C590.219 843 556.6 876.62 556.6 917.7V979.546H706V917.7Z" fill="#3E65CB"/>
<path d="M556.6 1159.24H706L556.6 979.546V1159.24Z" fill="#3E65CB"/>
<path d="M556.6 979.546L706 1159.24V979.546H556.6Z" fill="#1641AC"/>
<path d="M556.6 1085.77H518.036C518.036 1066.13 502.035 1050.13 482.394 1050.13C462.753 1050.13 446.752 1066.13 446.752 1085.77H408.188C408.188 1075.75 410.166 1066.04 414.031 1056.87C417.762 1048.02 423.11 1040.11 429.942 1033.28C436.729 1026.45 444.684 1021.14 453.539 1017.37C462.708 1013.5 472.416 1011.52 482.439 1011.52C492.462 1011.52 502.17 1013.5 511.339 1017.37C520.194 1021.1 528.104 1026.45 534.936 1033.28C541.723 1040.06 547.071 1048.02 550.847 1056.87C554.667 1066.04 556.6 1075.75 556.6 1085.77Z" fill="#0E369C"/>
</g>
<path d="M352.105 419.683C352.105 419.683 415.726 448.768 407.492 462.379C399.258 475.946 388.163 485.396 374.858 480.671C361.553 475.946 348.724 465.543 344.737 451.672C340.75 437.801 352.105 419.683 352.105 419.683Z" fill="#001A5B"/>
<path d="M482.284 487.869H494.459V763.205H482.284V487.869Z" fill="#648FFB"/>
<path d="M473.79 757.44L482.284 763.205V487.869H473.79V757.44Z" fill="#00154A"/>
<path d="M407.404 769.226C407.404 769.226 432.974 782.533 433.061 784.874C433.321 790.552 424.176 792.503 411.045 791.983C397.913 791.462 387.512 787.388 387.512 787.388L384.435 783.487L384.565 786.824L373.99 784.18C373.99 784.18 371.303 776.334 372.256 769.356C372.473 767.795 374.727 764.154 377.414 763.2C381.358 761.857 387.165 760.123 393.969 762.03C394.663 762.247 395.703 764.631 395.703 764.631C395.703 764.631 403.504 767.405 407.404 769.226Z" fill="#001A5B"/>
<path d="M395.746 764.676C395.746 764.676 392.842 762.422 389.852 764.806C387.902 766.323 381.531 772.131 380.447 770.397C377.067 764.806 374.856 765.369 374.856 765.022C374.856 764.719 370.869 749.938 375.377 748.854C379.884 747.771 392.062 742.786 393.059 744.563C394.099 746.297 395.096 761.555 395.746 764.676Z" fill="#FFA982"/>
<path d="M466.087 762.163C466.087 762.163 492.134 774.56 492.307 776.901C492.741 782.579 483.683 784.833 470.551 784.79C457.419 784.746 446.888 781.019 446.888 781.019L443.681 777.204L443.941 780.542L433.28 778.245C433.28 778.245 430.289 770.529 431.026 763.507C431.199 761.946 433.279 758.219 435.967 757.178C439.867 755.661 445.588 753.754 452.435 755.401C453.129 755.575 454.256 757.959 454.256 757.959C454.256 757.959 462.143 760.473 466.087 762.163Z" fill="#001A5B"/>
<path d="M454.299 758.002C454.299 758.002 451.352 755.835 448.405 758.305C446.541 759.909 440.344 765.934 439.217 764.244C435.62 758.739 433.453 759.389 433.453 759.085C433.41 758.782 428.946 744.131 433.409 742.874C437.873 741.66 449.878 736.242 450.962 737.976C452.002 739.71 453.519 754.924 454.299 758.002Z" fill="#FFA982"/>
<path d="M274.92 595.276C274.92 595.276 291.605 764.89 296.633 763.416C298.193 762.983 301.313 763.113 302.05 759.255C308.204 727.396 287.445 591.635 287.445 591.635L274.92 595.276Z" fill="#031F63"/>
<path d="M245.146 594.148C245.146 594.148 204.884 758.474 210.041 759.298C211.645 759.558 214.462 761.032 216.412 757.781C232.577 730.949 257.931 596.229 257.931 596.229L245.146 594.148Z" fill="#031F63"/>
<path d="M375.639 595.276C375.639 595.276 392.325 764.89 397.352 763.416C398.913 762.983 402.033 763.113 402.77 759.255C408.924 727.396 388.165 591.635 388.165 591.635L375.639 595.276Z" fill="#CC8B70"/>
<path d="M345.866 594.148C345.866 594.148 305.604 758.474 310.762 759.298C312.365 759.558 315.182 761.032 317.132 757.781C333.298 730.949 358.651 596.229 358.651 596.229L345.866 594.148Z" fill="#031F63"/>
<path d="M211.513 483.877C211.513 483.877 210.256 400.565 257.062 388.038C303.868 375.511 339.06 476.291 350.154 484.571C361.293 492.85 415.683 492.72 423.484 517.254C431.242 541.788 432.889 584.614 392.54 596.534C352.191 608.454 251.471 614.306 226.551 590.596C201.631 566.885 211.513 483.877 211.513 483.877Z" fill="#032783"/>
<path d="M262.22 518.729C262.22 518.729 262.09 523.627 262.913 529.349C264.083 537.281 269.197 544.13 276.522 547.468C281.896 549.895 402.335 571.828 402.335 571.828C402.335 571.828 416.074 745.56 420.754 752.409C425.392 759.258 458.763 755.357 463.617 745.82C468.471 736.284 463.877 604.165 463.617 594.152C462.75 561.772 469.814 541.226 443.031 530.129C431.156 525.231 390.287 515.001 349.201 493.198C331.259 483.705 262.22 518.729 262.22 518.729Z" fill="white"/>
<path d="M236.953 512.402C236.953 512.402 238.296 525.276 238.123 531.041C237.906 539.06 242.154 550.85 248.871 555.271C297.238 587.348 344.26 575.471 353.318 583.447C357.132 586.784 365.106 749.81 368.53 757.352C371.911 764.938 403.505 765.891 409.962 757.352C416.42 748.813 428.381 564.721 403.895 549.203C393.06 542.311 360.209 527.27 338.54 513.312C330.782 508.327 323.848 495.41 307.726 492.896C287.703 489.775 236.953 512.402 236.953 512.402Z" fill="white"/>
<path d="M353.189 361.382C350.545 350.892 339.364 333.423 328.746 329.739C309.157 322.89 303.913 322.544 282.503 336.414C256.24 353.406 237.43 411.36 232.923 454.273C228.416 497.186 240.637 550.112 240.637 550.112C240.637 550.112 304.216 555.053 346.645 532.73C348.552 531.733 336.114 516.172 338.107 515.738C340.057 515.305 355.919 525.794 357.696 525.361C371.522 522.283 384.09 507.892 384.09 507.892C384.09 507.892 365.887 456.744 361.727 436.934C357.306 416.042 361.077 392.851 353.189 361.382Z" fill="#001A5B"/>
<path d="M372.604 467.714C372.647 467.714 372.734 467.714 372.777 467.67C372.994 467.583 373.124 467.323 372.994 467.107C372.907 466.89 363.676 444.61 362.159 435.334C360.642 426.014 359.732 415.785 359.732 415.655C359.732 415.394 359.515 415.221 359.255 415.264C358.995 415.264 358.822 415.481 358.865 415.741C358.865 415.828 359.776 426.101 361.292 435.464C362.809 444.87 372.084 467.237 372.171 467.453C372.257 467.627 372.431 467.714 372.604 467.714Z" fill="white"/>
<path d="M328.268 501.522C328.355 501.522 328.441 501.479 328.528 501.435C328.702 501.305 328.745 501.002 328.615 500.828C311.019 477.595 314.226 428.657 314.27 428.18C314.27 427.92 314.096 427.746 313.88 427.703C313.62 427.703 313.446 427.876 313.403 428.093C313.403 428.223 312.536 440.62 313.923 455.792C315.18 469.792 318.647 489.082 327.921 501.349C328.008 501.479 328.138 501.522 328.268 501.522Z" fill="white"/>
<path d="M565.064 514.87H577.238V799.395H565.064V514.87Z" fill="#648FFB"/>
<path d="M556.604 793.327L565.064 799.395V514.87H556.604V793.327Z" fill="#00154A"/>
<path d="M99.0899 487.869H111.265V763.205H99.0899V487.869Z" fill="#648FFB"/>
<path d="M90.596 757.44L99.0908 763.205V487.869H90.596V757.44Z" fill="#00154A"/>
<path d="M181.872 514.87H194.047V799.395H181.872V514.87Z" fill="#648FFB"/>
<path d="M173.379 793.327L181.873 799.395V514.87H173.379V793.327Z" fill="#00154A"/>
<path d="M182.361 518.502H597.084C599.043 518.502 599.731 515.224 598.046 514L486.409 481.484C485.652 480.916 484.793 480.61 483.899 480.61H69.176C67.2168 480.61 66.5294 483.888 68.2136 485.112L179.851 517.627C180.608 518.196 181.467 518.502 182.361 518.502Z" fill="#648FFB"/>
<path d="M358.347 508.847L293.251 481.322L398.435 478.114L470.595 502.085L358.347 508.847Z" fill="white"/>
<path d="M362.507 502.085L311.28 483.446L389.161 480.065L417.765 496.667L362.507 502.085Z" fill="#001A5B"/>
<path d="M329.615 487.78L320.47 484.876L335.856 484.226L344.87 486.826L329.615 487.78Z" fill="#454560"/>
<path d="M347.295 486.524L338.107 483.62L352.019 483.1L361.077 485.744L347.295 486.524Z" fill="#454560"/>
<path d="M363.46 485.569L354.316 482.622L368.878 481.972L378.152 484.702L363.46 485.569Z" fill="#454560"/>
<path d="M380.882 484.701L371.738 481.797L387.123 481.146L396.138 483.747L380.882 484.701Z" fill="#454560"/>
<path d="M346.473 491.076L337.329 488.129L352.714 487.479L361.729 490.123L346.473 491.076Z" fill="#454560"/>
<path d="M364.154 489.777L355.009 486.872L368.921 486.396L377.936 489.04L364.154 489.777Z" fill="#454560"/>
<path d="M380.319 488.822L371.174 485.918L385.736 485.268L395.011 487.955L380.319 488.822Z" fill="#454560"/>
<path d="M397.741 487.998L388.597 485.051L403.982 484.4L413.04 487.045L397.741 487.998Z" fill="#454560"/>
<path d="M350.114 495.629L340.97 492.724L356.398 492.074L365.413 494.718L350.114 495.629Z" fill="#454560"/>
<path d="M367.795 494.372L358.65 491.467L372.562 490.947L381.576 493.591L367.795 494.372Z" fill="#454560"/>
<path d="M384.003 493.418L374.859 490.47L389.421 489.863L398.695 492.551L384.003 493.418Z" fill="#454560"/>
<path d="M401.38 492.551L392.235 489.646L407.664 488.996L416.679 491.64L401.38 492.551Z" fill="#454560"/>
<path d="M358.131 508.847L487.368 501.175L511.031 407.59L375.987 415.349L358.131 508.847Z" fill="#FFB300"/>
<path d="M442.642 451.976C442.642 451.976 436.791 447.425 432.631 451.673C428.47 455.964 432.674 462.033 438.308 462.336C443.942 462.639 443.509 457.871 443.509 457.871C443.509 457.871 438.525 458.348 439.522 456.181C440.432 453.97 442.642 451.976 442.642 451.976Z" fill="#0E369C"/>
<path d="M283.586 335.677C274.051 332.686 200.938 393.371 203.105 444.216C204.925 486.739 310.932 496.578 315.613 490.77C320.424 484.875 328.355 471.827 318.69 464.675C298.624 449.851 246.661 429.998 246.661 429.998C246.661 429.998 298.321 340.315 283.586 335.677Z" fill="#001A5B"/>
<path d="M348.466 478.287C347.166 477.333 346.689 476.726 347.729 476.683C348.77 476.64 360.081 481.971 361.295 480.671C362.508 479.37 353.58 473.432 351.76 472.045C349.94 470.658 341.965 470.441 338.282 471.958C336.071 472.868 329.874 473.519 328.27 473.345C322.766 472.738 322.289 471.091 320.209 470.484C307.467 466.757 310.935 484.962 315.095 486.523C317.349 487.389 319.862 491.074 328.14 491.551C331.781 491.767 336.028 490.77 339.408 490.901C342.832 490.987 351.76 494.845 353.277 493.675C354.794 492.504 348.423 487.78 348.423 487.78C348.423 487.78 356.484 491.117 358.608 490.337C360.731 489.557 358.304 486.739 358.304 486.739C358.304 486.739 362.855 489.557 362.941 486.869C362.941 484.182 349.81 479.24 348.466 478.287Z" fill="#FFA982"/>
<path d="M349.766 275.079C349.766 275.079 348.769 281.494 347.165 285.222C345.562 288.95 345.172 290.077 343.611 288.646C342.051 287.216 342.831 277.203 344.738 275.122C346.645 273.085 349.289 273.041 349.766 275.079Z" fill="#171718"/>
<path d="M314.183 261.427C314.183 261.427 308.073 263.117 305.039 269.533C302.005 275.948 306.989 300.395 311.41 301.869C315.83 303.343 327.445 262.814 314.183 261.427Z" fill="#171718"/>
<path d="M328.79 329.045C328.79 329.045 327.923 322.587 320.035 321.416C312.147 320.246 307.033 320.983 304.086 326.835C301.096 332.686 301.096 335.287 301.096 335.287L328.833 337.541C328.833 337.585 331.173 332.773 328.79 329.045Z" fill="#001A5B"/>
<path d="M323.935 326.836C323.935 326.836 319.557 323.542 313.316 324.842C307.076 326.099 305.905 330.564 306.556 339.016C307.206 347.512 310.283 418.903 313.273 422.891C315.44 425.796 324.845 378.245 325.972 348.639C326.362 337.326 327.922 329.523 323.935 326.836Z" fill="white"/>
<path d="M317.435 334.595C317.435 334.595 316.655 332.254 317.088 331.431C317.521 330.607 321.292 329.697 322.332 331.734C322.332 331.734 322.159 333.772 321.552 334.595C321.552 334.595 322.245 367.278 322.159 385.05C318.908 406.333 314.661 424.712 313.274 422.892C311.801 420.898 310.284 402.042 309.027 382.666L317.435 334.595Z" fill="#FFB300"/>
<path d="M311.497 298.919C311.497 298.919 310.76 306.764 309.807 315.26C309.417 318.728 309.243 322.932 308.203 325.36C306.86 328.481 310.5 331.992 314.877 333.466C316.221 333.899 317.088 330.908 318.691 330.952C320.771 330.995 322.852 333.856 323.848 333.162C326.145 331.558 325.972 328.481 325.409 326.27C324.629 323.062 324.152 307.891 323.675 306.504C323.155 305.16 313.447 297.011 311.497 298.919Z" fill="#FFA982"/>
<path d="M325.97 325.881L320.77 330.216C320.77 330.216 308.114 322.76 307.681 323.541C307.248 324.321 306.424 328.612 305.991 329.826C305.557 330.996 315.179 335.634 315.655 335.374C316.132 335.157 319.079 331.56 319.903 331.95C320.726 332.297 325.233 335.808 325.667 335.678C326.1 335.548 326.837 332.08 327.01 330.086C327.184 328.135 325.97 325.881 325.97 325.881Z" fill="white"/>
<path d="M324.976 323.194C324.802 321.287 324.629 318.859 324.456 316.475C319.992 315.262 313.837 313.484 313.837 313.484C313.837 313.484 314.184 319.64 319.168 321.85C321.162 322.717 323.199 323.064 324.976 323.194Z" fill="#001A5B"/>
<path d="M309.199 420.81C309.242 420.81 309.329 420.81 309.372 420.766C309.589 420.68 309.676 420.42 309.589 420.203C305.342 411.23 286.489 363.289 287.963 360.385C288.136 360.038 288.309 359.995 288.396 359.995C289.393 359.908 291.473 362.552 293.12 364.633C294.81 366.757 296.24 368.621 297.367 369.054C297.801 369.228 298.061 369.054 298.147 368.924C298.667 368.361 298.191 367.147 296.067 362.466C293.9 357.654 290.606 350.329 291.69 347.511C293.597 342.483 302.048 328.916 302.135 328.785C302.265 328.569 302.221 328.309 302.005 328.179C301.788 328.049 301.528 328.092 301.398 328.309C301.051 328.872 292.817 342.093 290.866 347.208C289.653 350.372 292.773 357.264 295.287 362.812C296.24 364.893 297.281 367.277 297.454 368.144C296.5 367.58 295.114 365.803 293.77 364.113C291.69 361.469 289.74 358.998 288.266 359.128C287.919 359.171 287.486 359.345 287.139 359.995C285.276 363.593 305.342 413.441 308.722 420.593C308.852 420.723 309.025 420.81 309.199 420.81Z" fill="white"/>
<path d="M317.261 422.325C317.434 422.325 317.564 422.239 317.651 422.108C317.694 422.022 322.808 411.965 326.319 403.123C329.612 394.887 341.227 363.418 341.011 361.597C340.967 361.207 340.707 361.12 340.621 361.12C340.1 360.99 339.667 361.467 336.85 365.585C335.117 368.099 331.909 372.694 330.999 372.91C330.999 372.91 330.999 372.867 330.956 372.824C330.523 370.656 333.6 365.758 336.07 361.814C337.197 359.993 338.28 358.303 338.974 356.959C339.104 356.742 339.364 356.179 331.823 331.645C331.736 331.428 331.519 331.298 331.259 331.341C331.043 331.428 330.913 331.645 330.956 331.905C333.816 341.181 338.02 355.268 338.15 356.656C337.457 357.956 336.417 359.646 335.333 361.38C332.516 365.888 329.569 370.526 330.089 373.04C330.219 373.647 330.566 373.777 330.739 373.821C331.866 374.037 333.643 371.74 337.5 366.148C338.367 364.935 339.277 363.591 339.884 362.767C338.41 368.272 329.092 393.803 325.452 402.906C321.941 411.662 316.871 421.718 316.827 421.805C316.741 422.022 316.784 422.282 317.001 422.369C317.131 422.325 317.174 422.325 317.261 422.325Z" fill="white"/>
<path d="M346.905 278.85C346.905 278.85 345.778 285.265 345.432 289.99C345.302 291.637 345.302 293.934 345.215 294.844C344.955 298.355 345.908 301 344.868 306.158C343.828 311.316 340.404 321.112 330.74 320.245C321.032 319.378 312.624 313.006 311.541 307.371C310.457 301.736 310.327 295.841 310.327 295.841C310.327 295.841 307.293 295.625 306.427 291.507C305.56 287.389 304.78 282.014 308.29 282.144C311.801 282.274 312.191 284.225 313.014 284.094C313.881 284.008 316.351 273.821 320.902 273.301C325.539 272.781 345.128 273.475 346.905 278.85Z" fill="#FFA982"/>
<path d="M341.486 302.43C343.87 302.82 343.826 296.318 344.52 294.627C345.213 292.893 345.95 302.039 345.473 303.557C344.996 305.117 344.346 315.39 340.749 318.424C337.152 321.459 330.088 322.846 322.417 320.895C314.746 318.944 312.795 315.347 312.405 314.35C312.015 313.353 311.495 307.501 311.495 302.776C311.495 297.228 311.322 291.159 312.145 290.639C312.969 290.119 313.662 297.835 315.829 300.609C317.996 303.383 328.181 296.838 337.412 300.176C340.662 301.303 340.489 302.256 341.486 302.43Z" fill="#171718"/>
<path d="M340.879 306.16C340.879 306.16 341.139 304.903 337.716 304.513C334.292 304.123 333.555 304.817 330.738 304.166C327.921 303.516 326.621 302.433 325.451 303.473C324.237 304.513 325.711 306.074 325.754 307.157C325.841 308.284 327.141 311.362 328.918 311.189C330.651 311.015 329.568 309.541 330.911 309.325C332.255 309.108 335.028 308.674 336.069 309.585C337.109 310.495 335.765 310.885 337.369 311.535C338.929 312.272 340.273 309.108 340.879 306.16Z" fill="#FFA982"/>
<path d="M336.85 297.707C336.85 297.707 337.63 301.478 336.33 301.998C334.986 302.475 332.993 302.475 332.213 301.565C331.432 300.655 331.822 297.49 333.469 296.537C335.16 295.54 336.677 296.32 336.85 297.707Z" fill="#FFA982"/>
<path d="M334.769 302.952C335.722 302.952 336.416 302.562 336.762 302.346C337.543 301.782 337.976 300.958 337.846 300.265C337.803 299.961 337.716 299.615 337.629 299.181C337.196 297.231 336.546 294.24 337.023 291.336V291.249C337.369 288.995 337.803 286.437 338.843 285.614C339.536 285.05 342.657 285.571 344.65 286.091C344.867 286.134 345.127 286.004 345.17 285.787C345.214 285.571 345.084 285.31 344.867 285.267C344 285.05 339.623 283.923 338.323 284.964C336.979 286.004 336.589 288.605 336.199 291.162V291.249C335.722 294.326 336.416 297.491 336.806 299.398C336.893 299.788 336.979 300.135 337.023 300.438C337.066 300.742 336.849 301.262 336.286 301.652C335.852 301.955 334.639 302.562 332.862 301.522C332.645 301.392 332.385 301.479 332.255 301.695C332.125 301.912 332.212 302.172 332.428 302.302C333.295 302.779 334.075 302.952 334.769 302.952Z" fill="#001A5B"/>
<path d="M330.869 284.874C330.999 284.874 331.129 284.831 331.215 284.701C331.345 284.484 331.302 284.224 331.129 284.094C330.999 284.008 327.878 281.84 322.201 283.097C321.984 283.141 321.811 283.357 321.854 283.617C321.897 283.834 322.114 284.007 322.374 283.964C327.662 282.837 330.565 284.831 330.609 284.831C330.695 284.874 330.782 284.874 330.869 284.874Z" fill="#001A5B"/>
<path d="M330.004 289.856C330.221 289.856 330.438 289.683 330.438 289.466C330.438 289.206 330.264 289.032 330.047 288.989C327.36 288.816 323.98 288.426 323.937 288.426C323.677 288.382 323.503 288.556 323.46 288.816C323.417 289.032 323.59 289.249 323.85 289.293C323.85 289.293 327.23 289.683 330.004 289.856C329.961 289.856 329.961 289.856 330.004 289.856Z" fill="#001A5B"/>
<path d="M325.625 289.901C325.625 289.901 324.845 291.808 325.929 292.631C327.012 293.455 327.749 292.848 328.139 292.285C328.529 291.721 328.746 290.161 328.009 289.857C327.315 289.597 325.885 289.554 325.625 289.901Z" fill="#001A5B"/>
<path d="M343.651 291.593C343.825 291.593 343.998 291.463 344.085 291.289C344.171 291.073 343.998 290.813 343.781 290.769C341.268 290.032 338.841 289.902 338.711 289.902C338.494 289.902 338.277 290.076 338.234 290.292C338.234 290.553 338.407 290.726 338.624 290.769C338.667 290.769 341.094 290.899 343.478 291.593C343.565 291.593 343.608 291.593 343.651 291.593Z" fill="#001A5B"/>
<path d="M339.84 291.291C339.84 291.291 339.233 293.068 340.143 293.805C341.053 294.542 341.66 293.978 342.007 293.458C342.31 292.938 342.483 291.551 341.92 291.334C341.27 291.118 340.056 290.988 339.84 291.291Z" fill="#001A5B"/>
<path d="M340.099 295.756C339.839 296.796 341.226 298.097 343.219 298.617C345.213 299.137 347.033 298.704 347.336 297.663C347.64 296.623 346.21 295.323 344.216 294.802C342.222 294.282 340.402 294.716 340.099 295.756Z" fill="#F2836D"/>
<path d="M340.36 275.599C340.36 275.599 345.517 277.029 346.688 280.28C347.424 282.404 352.105 273.215 348.768 268.924C345.431 264.632 343.177 264.979 341.53 266.756C339.537 268.924 339.45 274.645 340.36 275.599Z" fill="#171718"/>
<path d="M321.247 294.974C321.161 296.058 322.764 297.055 324.845 297.185C326.882 297.315 328.615 296.578 328.702 295.494C328.788 294.41 327.185 293.413 325.105 293.283C323.068 293.153 321.334 293.89 321.247 294.974Z" fill="#F2836D"/>
<path d="M344.218 274.299C344.218 274.299 342.615 276.076 338.931 276.856C335.204 277.593 330.74 276.51 327.446 275.296C324.152 274.039 321.119 272.609 319.125 274.472C317.131 276.336 314.141 282.578 313.621 285.309C313.144 288.04 313.101 296.146 312.147 295.235C311.237 294.325 311.324 283.575 311.021 282.448C310.717 281.321 307.337 269.444 307.467 265.543C307.64 261.642 313.491 258.998 316.828 260.385C316.828 260.385 316.221 253.883 325.236 252.279C336.851 250.112 349.245 260.862 344.218 274.299Z" fill="#171718"/>
<path d="M327.489 304.208C327.489 304.208 331.13 305.422 334.77 305.595C338.454 305.768 339.971 305.508 339.971 305.508C339.971 305.508 339.581 308.283 336.634 308.716C333.687 309.149 327.879 307.719 327.489 304.208Z" fill="white"/>
<path d="M320.467 466.627C320.554 466.627 320.684 466.583 320.727 466.54C320.9 466.367 320.944 466.106 320.771 465.933C320.294 465.37 318.17 463.896 314.443 461.295C311.756 459.431 308.679 457.307 306.339 455.53C301.268 451.715 253.768 432.34 249.521 430.649C247.788 429.956 243.367 433.38 237.343 438.321C235.176 440.099 232.749 442.049 231.752 442.613C232.489 440.662 236.389 437.411 239.553 434.767C240.507 433.943 241.416 433.207 242.197 432.513C242.37 432.383 242.804 431.95 242.587 431.516C242.197 430.779 240.636 431.083 231.362 433.683C225.988 435.201 217.017 437.671 215.933 437.021C216.497 435.374 228.588 432.686 235.869 431.083C242.847 429.522 247.224 428.525 248.264 427.788C251.124 425.708 258.796 410.493 265.036 396.969C271.884 382.145 284.929 350.719 285.059 350.415C285.146 350.198 285.059 349.938 284.842 349.852C284.626 349.765 284.366 349.852 284.279 350.068C284.149 350.372 271.104 381.798 264.256 396.579C256.455 413.484 249.998 425.448 247.744 427.095C246.791 427.788 241.373 429.002 235.696 430.259C223.561 432.946 215.543 434.854 215.11 436.891C215.023 437.194 215.11 437.455 215.326 437.671C216.41 438.712 222.217 437.194 231.665 434.594C235.566 433.51 239.9 432.296 241.46 432.123C240.723 432.73 239.9 433.423 239.033 434.16C235.349 437.194 231.232 440.662 230.842 442.873C230.755 443.35 231.015 443.523 231.102 443.61C231.752 444 233.052 443.046 237.906 439.102C241.633 436.067 247.831 431.039 249.218 431.559C253.465 433.25 300.791 452.539 305.819 456.31C308.202 458.087 311.279 460.255 313.966 462.119C316.913 464.156 319.73 466.106 320.12 466.583C320.207 466.583 320.337 466.627 320.467 466.627Z" fill="white"/>
<path d="M415.598 718.728C415.815 718.728 415.988 718.554 416.031 718.338C417.158 705.941 418.935 630.908 418.979 630.171C418.979 629.911 418.892 605.897 418.198 594.107C418.068 592.2 418.025 589.946 417.982 587.562C417.635 574.645 417.115 556.959 408.621 550.067C398.739 542.092 361.641 526.14 361.251 525.967C361.034 525.88 360.774 525.967 360.687 526.184C360.601 526.4 360.687 526.66 360.904 526.747C361.294 526.92 398.306 542.829 408.057 550.718C416.248 557.306 416.725 574.775 417.072 587.562C417.158 589.946 417.202 592.2 417.332 594.107C418.025 605.897 418.112 629.868 418.112 630.128C418.112 630.865 416.291 705.897 415.165 718.251C415.121 718.511 415.338 718.728 415.598 718.728C415.555 718.728 415.598 718.728 415.598 718.728Z" fill="#001A5B"/>
<path d="M388.987 610.146C389.16 610.146 389.334 610.103 389.42 609.929C389.81 609.323 389.377 608.629 376.722 597.532C372.518 593.848 367.448 589.427 365.584 587.476C366.581 587.953 368.098 588.82 369.484 589.6C376.115 593.284 380.883 595.799 382.27 594.455C383.006 593.718 382.443 592.374 381.923 591.421C380.059 587.823 373.992 584.962 363.937 583.011C356.526 581.581 349.549 581.147 349.505 581.147C349.245 581.147 349.072 581.321 349.029 581.538C349.029 581.798 349.202 581.971 349.419 582.014C349.679 582.014 376.895 583.705 381.143 591.811C381.966 593.371 381.706 593.761 381.619 593.805C380.579 594.802 373.602 590.9 369.875 588.776C366.364 586.826 364.977 586.089 364.414 586.132C364.197 586.132 364.024 586.262 363.98 586.479C363.764 587.129 364.847 588.256 376.072 598.139C380.493 602.04 385.823 606.722 387.774 608.759C382.096 605.898 365.714 595.365 365.541 595.278C365.324 595.148 365.064 595.192 364.934 595.408C364.804 595.625 364.847 595.885 365.064 596.015C365.801 596.492 383.7 607.979 388.294 609.973C388.554 610.059 388.77 610.146 388.987 610.146Z" fill="#001A5B"/>
<path d="M422.142 589.166C422.185 589.166 422.185 589.166 422.229 589.166C422.879 589.036 438.438 585.611 442.208 581.927C442.858 581.32 442.815 580.843 442.641 580.54C442.425 580.063 441.861 578.979 431.763 579.976C429.553 580.193 427.386 580.453 425.653 580.713C429.596 578.936 436.227 575.425 441.125 570.007C441.905 569.14 442.728 568.013 442.165 567.276C441.775 566.756 440.908 565.585 428.643 570.657C422.705 573.084 416.898 575.858 416.855 575.858C416.638 575.945 416.551 576.205 416.638 576.422C416.725 576.639 416.985 576.725 417.201 576.639C431.287 569.963 440.778 566.842 441.471 567.796C441.471 567.796 441.645 568.143 440.475 569.443C433.28 577.506 422.142 581.233 422.012 581.277L422.229 582.1C432.63 580.497 441.428 579.976 441.905 580.973C441.905 580.973 441.905 581.103 441.645 581.363C438.047 584.874 422.272 588.342 422.099 588.386C421.882 588.429 421.709 588.646 421.752 588.906C421.752 589.036 421.969 589.166 422.142 589.166Z" fill="#001A5B"/>
</g>
<defs>
<clipPath id="clip0_7873_105188">
<rect width="665" height="1024" fill="white"/>
</clipPath>
</defs>
</svg>
