<svg width="50" height="50" viewBox="0 0 50 50" fill="none" xmlns="http://www.w3.org/2000/svg">
<rect width="50" height="50" rx="25" fill="#000E66"/>
<path d="M32.0833 16.4998V13.6665H16.5V16.4998H21.4583C23.3028 16.4998 24.8597 17.687 25.4462 19.3332H16.5V22.1665H25.4462C25.1554 22.9927 24.616 23.7087 23.9019 24.216C23.1879 24.7233 22.3343 24.9971 21.4583 24.9998H16.5V28.4197L24.4135 36.3332H28.4198L19.9198 27.8332H21.4583C23.0903 27.831 24.6716 27.2662 25.9356 26.2339C27.1996 25.2016 28.069 23.7651 28.3972 22.1665H32.0833V19.3332H28.3972C28.18 18.3021 27.7325 17.3335 27.0882 16.4998H32.0833Z" fill="#E3F2FD"/>
</svg>
