<svg width="665" height="1024" viewBox="0 0 665 1024" fill="none" xmlns="http://www.w3.org/2000/svg">
<g clip-path="url(#clip0_7448_71353)">
<rect width="665" height="1024" fill="#0E369C"/>
<path d="M103.949 164.78L188.168 164.78L188.168 -9.9839L103.949 -9.98389L103.949 164.78Z" fill="#1641AC"/>
<path d="M188.168 164.78L272.388 164.78L272.388 -9.9839L188.168 -9.98389L188.168 164.78Z" fill="#2652C0"/>
<path d="M188.168 33.2742C163.799 33.2742 144.044 53.0294 144.044 77.3988C144.044 101.768 163.799 121.523 188.168 121.523C212.538 121.523 232.293 101.768 232.293 77.3988C232.293 53.0294 212.538 33.2742 188.168 33.2742Z" fill="#3E65CB"/>
<path d="M-65.562 180.135C-65.562 226.759 -27.4057 264.915 19.2185 264.915C65.8427 264.915 103.999 226.759 103.999 180.134L103.999 109.943L-65.562 109.943L-65.562 180.135Z" fill="#3E65CB"/>
<path d="M104.438 109.915L-48.5615 -50.0849L-48.5615 109.915L104.438 109.915Z" fill="#1641AC"/>
<path d="M495.49 901.135H411.271V1075.9H495.49V901.135Z" fill="#1641AC"/>
<path d="M411.27 901.135H327.051V1075.9H411.27V901.135Z" fill="#2652C0"/>
<path d="M411.27 1032.64C435.64 1032.64 455.395 1012.89 455.395 988.516C455.395 964.147 435.64 944.392 411.27 944.392C386.901 944.392 367.146 964.147 367.146 988.516C367.146 1012.89 386.901 1032.64 411.27 1032.64Z" fill="#3E65CB"/>
<path d="M665 885.781C665 839.156 626.844 801 580.22 801C533.596 801 495.439 839.156 495.439 885.781V955.972H665V885.781Z" fill="#3E65CB"/>
<path d="M495 956L648 1116V956H495Z" fill="#1641AC"/>
<path d="M557.08 618.997H399.117C397.033 618.997 395.342 617.305 395.342 615.221C395.342 613.136 397.033 611.445 399.117 611.445H557.08C559.164 611.445 560.855 613.136 560.855 615.221C560.855 617.305 559.164 618.997 557.08 618.997Z" fill="#2E2E47"/>
<path d="M568.049 759.995C566.083 759.995 564.431 758.501 564.274 756.495L526.524 272.97C526.366 270.886 527.939 269.037 530.023 268.88C532.107 268.723 533.956 270.296 534.113 272.38L571.864 755.905C572.021 757.989 570.448 759.838 568.364 759.995C568.246 759.995 568.167 759.995 568.049 759.995Z" fill="#2E2E47"/>
<path d="M410.126 759.995C408.16 759.995 406.509 758.501 406.351 756.495L368.601 272.97C368.443 270.886 370.016 269.037 372.1 268.88C374.185 268.723 376.033 270.296 376.19 272.38L413.941 755.905C414.098 757.989 412.525 759.838 410.441 759.995C410.323 759.995 410.205 759.995 410.126 759.995Z" fill="#2E2E47"/>
<path d="M302.734 759.995C302.616 759.995 302.538 759.995 302.42 759.995C300.336 759.838 298.763 757.989 298.92 755.905L336.671 272.38C336.828 270.296 338.637 268.723 340.76 268.88C342.844 269.037 344.417 270.886 344.26 272.97L306.509 756.495C306.352 758.501 304.701 759.995 302.734 759.995Z" fill="#2E2E47"/>
<path d="M484.29 759.995C484.172 759.995 484.093 759.995 483.975 759.995C481.891 759.838 480.318 757.989 480.476 755.905L518.226 272.38C518.384 270.296 520.192 268.723 522.316 268.88C524.4 269.037 525.973 270.886 525.816 272.97L488.065 756.495C487.908 758.501 486.256 759.995 484.29 759.995Z" fill="#2E2E47"/>
<path d="M515.826 515.99H311.107L330.887 262.939H535.566L515.826 515.99Z" fill="white"/>
<path d="M346.342 414.717C346.303 414.717 346.263 414.717 346.185 414.677C345.909 414.599 345.752 414.323 345.831 414.048L351.887 393.793H403.597C403.872 393.793 404.108 394.029 404.108 394.304C404.108 394.58 403.872 394.816 403.597 394.816H352.673L346.853 414.363C346.775 414.559 346.539 414.717 346.342 414.717Z" fill="#2E2E47"/>
<path d="M379.688 390.685C379.61 390.685 379.57 390.685 379.492 390.685C378.823 390.607 378.037 390.292 377.014 389.859C376.267 389.545 375.402 389.191 374.38 388.837C373.121 388.443 371.037 389.23 369.346 389.859C368.049 390.371 366.987 390.764 366.318 390.646C365.217 390.449 364.549 390.017 364.274 389.741H363.291C362.701 389.977 361.167 390.528 360.499 390.41C360.42 390.41 360.145 390.449 359.948 390.489C359.044 390.646 357.156 391.039 356.724 389.112C356.684 388.915 356.605 388.876 356.566 388.876C355.976 388.679 354.403 389.623 353.538 390.292C353.302 390.449 352.988 390.41 352.83 390.213C352.673 389.977 352.713 389.663 352.909 389.505C353.342 389.151 355.622 387.46 356.92 387.932C357.195 388.05 357.589 388.286 357.746 388.915C357.942 389.741 358.532 389.741 359.83 389.505C360.223 389.427 360.499 389.387 360.774 389.427C361.049 389.466 362.229 389.151 363.133 388.797L363.212 388.758H364.824L364.981 388.955C364.981 388.955 365.453 389.505 366.594 389.663C366.987 389.741 368.127 389.309 369.11 388.955C371.037 388.207 373.239 387.382 374.812 387.932C375.874 388.286 376.739 388.64 377.526 388.955C378.469 389.348 379.217 389.663 379.728 389.702C380.16 389.741 381.065 389.505 381.891 389.269C382.874 388.994 383.896 388.758 384.722 388.719C384.997 388.719 385.233 388.915 385.233 389.191C385.233 389.466 385.036 389.702 384.761 389.702C384.014 389.741 383.07 389.977 382.126 390.213C381.104 390.489 380.278 390.685 379.688 390.685Z" fill="#2E2E47"/>
<path d="M399.743 390.961C398.563 390.961 397.58 390.843 397.226 390.568C396.951 390.332 396.283 390.411 395.496 390.529C394.828 390.607 394.041 390.725 393.176 390.686C391.21 390.607 389.834 390.686 389.834 390.686C389.558 390.686 389.323 390.489 389.283 390.214C389.283 389.939 389.48 389.703 389.755 389.664C389.794 389.664 391.21 389.585 393.216 389.664C394.002 389.703 394.71 389.585 395.339 389.506C396.361 389.349 397.226 389.231 397.856 389.782C398.288 390.057 401.355 389.978 403.951 389.664C404.226 389.624 404.462 389.821 404.501 390.096C404.541 390.371 404.344 390.607 404.069 390.647C403.086 390.804 401.277 390.961 399.743 390.961Z" fill="#2E2E47"/>
<path d="M423.338 376.172C423.298 376.172 423.259 376.172 423.22 376.172C422.945 376.094 422.787 375.818 422.866 375.543L425.501 365.199H439.579C439.854 365.199 440.09 365.435 440.09 365.711C440.09 365.986 439.854 366.222 439.579 366.222H426.287L423.849 375.779C423.77 376.015 423.574 376.172 423.338 376.172Z" fill="#2E2E47"/>
<path d="M435.528 363.233C435.489 363.233 435.41 363.233 435.371 363.233C434.978 363.154 434.466 362.84 433.798 362.368C433.326 362.053 432.815 361.699 432.225 361.384C431.832 361.148 431.399 361.502 430.652 362.328C430.141 362.879 429.669 363.39 429.079 363.233C428.489 363.036 428.017 362.604 427.781 362.368H427.624C427.27 362.761 426.798 363.115 426.366 363.036C426.326 363.036 426.326 363.076 426.287 363.076C426.051 363.194 425.658 363.351 425.186 363.194C424.753 363.036 424.36 362.604 424.046 361.856C423.967 361.699 423.928 361.62 423.888 361.542C423.731 361.738 423.534 362.21 423.416 362.643C423.338 362.918 423.063 363.076 422.787 362.997C422.512 362.918 422.355 362.643 422.433 362.368C422.63 361.66 423.063 360.519 423.849 360.44C424.282 360.401 424.675 360.716 424.989 361.384C425.265 362.053 425.501 362.171 425.579 362.21C425.658 362.25 425.737 362.21 425.894 362.132C426.051 362.053 426.248 361.974 426.484 362.014C426.602 361.935 426.877 361.738 427.034 361.502L427.191 361.345H428.293L428.45 361.542C428.45 361.542 428.843 362.053 429.315 362.21C429.472 362.132 429.708 361.817 429.905 361.62C430.573 360.912 431.556 359.811 432.697 360.48C433.326 360.834 433.837 361.188 434.348 361.502C434.82 361.817 435.331 362.171 435.528 362.21C435.607 362.21 435.921 361.974 436.118 361.856C436.511 361.581 436.983 361.266 437.455 361.227C437.73 361.227 437.966 361.424 438.005 361.699C438.045 361.974 437.809 362.21 437.534 362.25C437.298 362.25 436.983 362.486 436.668 362.682C436.315 362.997 435.921 363.233 435.528 363.233Z" fill="#2E2E47"/>
<path d="M460.774 352.967C460.735 352.967 460.656 352.967 460.617 352.928C460.342 352.849 460.224 352.535 460.302 352.299L468.757 329.055H500.57C500.845 329.055 501.081 329.291 501.081 329.566C501.081 329.841 500.845 330.077 500.57 330.077H469.465L461.246 352.653C461.167 352.849 460.971 352.967 460.774 352.967Z" fill="#2E2E47"/>
<path d="M493.963 323.274C493.884 323.274 493.806 323.274 493.688 323.234C492.901 323.077 492.115 322.33 491.014 321.307C490.227 320.599 489.362 319.773 488.3 318.987C487.121 318.121 484.722 320.009 482.952 321.347C481.379 322.566 480.239 323.431 479.374 323.156C478.155 322.723 477.486 321.661 477.251 321.15H476.385C475.284 322.015 473.908 322.88 473.161 322.644C473.043 322.644 472.846 322.762 472.65 322.802C471.981 323.077 471.077 323.431 470.29 322.92C469.622 322.487 469.268 321.583 469.189 320.127C469.15 319.341 468.953 319.105 468.914 319.105C468.442 318.987 466.908 320.56 465.65 322.448C465.493 322.684 465.178 322.762 464.942 322.605C464.706 322.448 464.628 322.133 464.785 321.897C465.611 320.639 467.695 317.728 469.15 318.121C470.094 318.357 470.172 319.655 470.172 320.088C470.212 321.15 470.447 321.858 470.801 322.094C471.155 322.33 471.745 322.094 472.256 321.897C472.689 321.74 473.082 321.583 473.436 321.701C473.711 321.701 474.852 321.032 475.874 320.245L476.031 320.127H477.958L478.076 320.481C478.076 320.481 478.548 321.819 479.728 322.212C480.082 322.29 481.458 321.268 482.323 320.56C484.447 318.908 487.121 316.902 488.89 318.161C489.991 318.947 490.896 319.813 491.682 320.56C492.587 321.386 493.373 322.133 493.884 322.212C494.278 322.29 495.3 321.74 496.165 321.268C497.266 320.678 498.407 320.049 499.39 319.97C499.665 319.97 499.901 320.167 499.94 320.442C499.979 320.717 499.744 320.953 499.468 320.993C498.721 321.032 497.62 321.622 496.637 322.173C495.615 322.802 494.671 323.274 493.963 323.274Z" fill="#2E2E47"/>
<path d="M361.955 463.249H338.558L340.484 433.909H363.882L361.955 463.249Z" fill="#3E65CB"/>
<path d="M396.914 463.248H373.478L376.663 414.558H400.06L396.914 463.248Z" fill="#3E65CB"/>
<path d="M431.833 463.25H408.436L413.469 385.219H436.906L431.833 463.25Z" fill="#1641AC"/>
<path d="M466.753 463.25H443.355L449.726 365.161H473.123L466.753 463.25Z" fill="#3E65CB"/>
<path d="M501.672 463.25H478.274L485.746 348.406H509.143L501.672 463.25Z" fill="#0E369C"/>
<path d="M404.031 323.825C404.031 313.285 397.74 304.2 388.734 300.109L385.628 306.913C392.038 309.824 396.521 316.313 396.521 323.825C396.521 328.073 395.105 331.967 392.706 335.074L398.644 339.597C402.026 335.231 404.031 329.764 404.031 323.825Z" fill="#7C5700"/>
<path d="M374.106 341.995C365.69 340.225 359.399 332.753 359.399 323.825C359.399 313.599 367.735 305.261 377.959 305.261V297.788C363.606 297.788 351.888 309.469 351.888 323.864C351.888 336.332 360.696 346.793 372.454 349.35L374.106 341.995Z" fill="#FFB300"/>
<path d="M389.56 338.298C386.375 340.854 382.325 342.388 377.96 342.388C377.881 342.388 377.803 342.388 377.724 342.388L377.527 349.861C377.685 349.861 377.842 349.861 377.999 349.861C384.173 349.861 389.836 347.698 394.279 344.119L389.56 338.298Z" fill="#DA9C0A"/>
<path d="M522.748 289.254H410.519L411.069 280.483H523.298L522.748 289.254Z" fill="#CECAC8"/>
<path d="M466.633 302.705H410.519L411.069 293.935H467.184L466.633 302.705Z" fill="#CECAC8"/>
<path d="M386.963 305.654C386.963 304.238 374.458 303.648 374.458 302.586C374.458 301.524 384.958 302.507 385.39 301.642C385.823 300.777 365.335 297.906 365.414 296.49C365.493 295.074 372.846 292.557 372.492 290.236C372.178 287.916 362.622 293.304 359.515 293.343C356.37 293.422 350.746 294.641 350.746 294.641C350.589 294.641 350.392 294.72 350.235 294.799C350.235 294.799 333.011 303.451 332.972 305.418C332.933 307.384 336.039 315.329 338.635 315.84C340.404 316.194 345.713 309.508 349.055 308.918C352.988 311.239 361.324 312.261 363.015 312.812C366.161 313.795 377.211 315.604 378.155 314.267C379.099 312.93 370.605 310.688 370.959 310.019C371.313 309.351 384.604 311.593 384.801 310.609C385.037 309.626 374.065 307.03 374.144 306.676C374.223 306.283 386.924 307.07 386.963 305.654Z" fill="#FFA982"/>
<path d="M188.34 284.062L263.252 327.128C263.252 327.128 330.18 289.764 342.843 297.788C346.028 299.794 350.668 310.177 347.994 317.178C339.933 338.18 293.806 363.469 263.33 364.295C238.124 365.003 203.952 337.472 189.599 313.913C180.869 299.518 188.34 284.062 188.34 284.062Z" fill="#171718"/>
<path d="M260.066 353.716C260.027 353.716 259.948 353.716 259.909 353.677C259.515 353.519 259.319 353.441 261.128 341.288C261.993 335.428 262.937 329.528 262.976 329.489C263.015 329.292 263.212 329.135 263.408 329.174C263.605 329.213 263.762 329.41 263.723 329.607C262.701 336.057 261.324 344.906 260.695 349.744C261.639 345.811 263.055 339.203 263.998 334.602C264.038 334.405 264.195 334.287 264.392 334.287C264.588 334.287 264.745 334.444 264.785 334.641C265.689 342.31 266.948 350.766 267.498 351.986C267.577 351.986 267.616 352.025 267.695 352.104C267.852 352.261 267.852 352.497 267.655 352.654C267.537 352.772 267.341 352.811 267.184 352.772C266.83 352.654 266.397 352.497 265.139 343.49C264.824 341.17 264.51 338.81 264.313 337.158C260.97 353.323 260.459 353.598 260.263 353.716C260.223 353.677 260.145 353.716 260.066 353.716Z" fill="white"/>
<path d="M254.364 351.357C254.128 351.357 253.971 351.16 253.971 350.964C254.757 330.04 262.425 326.894 262.779 326.776C262.976 326.697 263.212 326.815 263.29 327.012C263.369 327.208 263.251 327.444 263.054 327.523C262.976 327.562 255.504 330.709 254.757 351.003C254.757 351.2 254.561 351.357 254.364 351.357Z" fill="white"/>
<path d="M184.132 223.139C184.132 223.139 185.234 228.921 184.998 232.618C184.762 236.275 184.762 237.376 183.031 236.629C181.262 235.882 178.863 227.072 179.885 224.752C180.869 222.352 183.11 221.566 184.132 223.139Z" fill="#171718"/>
<path d="M149.567 222.273C149.567 222.273 144.848 225.577 144.258 231.988C143.629 238.399 155.347 257.789 159.555 257.671C163.762 257.553 161.324 219.442 149.567 222.273Z" fill="#171718"/>
<path d="M235.804 746.425C235.804 746.425 259.004 758.499 259.083 760.623C259.319 765.775 251.022 767.545 239.107 767.073C227.192 766.601 217.754 762.904 217.754 762.904L214.962 759.365L215.08 762.393L205.485 759.994C205.485 759.994 203.047 752.875 203.912 746.543C204.109 745.127 206.154 741.823 208.592 740.958C212.17 739.739 217.44 738.166 223.613 739.896C224.243 740.093 225.186 742.256 225.186 742.256C225.186 742.256 232.265 744.773 235.804 746.425Z" fill="#2E2E47"/>
<path d="M225.266 742.256C225.266 742.256 222.631 740.211 219.918 742.374C218.148 743.751 212.367 749.021 211.384 747.448C208.317 742.374 206.312 742.886 206.312 742.571C206.312 742.296 202.694 728.884 206.784 727.901C210.873 726.918 221.923 722.395 222.827 724.007C223.732 725.62 224.636 739.464 225.266 742.256Z" fill="#FFA982"/>
<path d="M79.6507 746.425C79.6507 746.425 56.4498 758.499 56.3711 760.623C56.1352 765.775 64.4325 767.545 76.3475 767.073C88.2626 766.601 97.7002 762.904 97.7002 762.904L100.492 759.365L100.374 762.393L109.969 759.994C109.969 759.994 112.407 752.875 111.542 746.543C111.346 745.127 109.301 741.823 106.863 740.958C103.284 739.739 98.0148 738.166 91.841 739.896C91.2118 740.093 90.268 742.256 90.268 742.256C90.268 742.256 83.1898 744.773 79.6507 746.425Z" fill="#2E2E47"/>
<path d="M90.1895 742.256C90.1895 742.256 92.8241 740.211 95.5374 742.374C97.307 743.751 103.088 749.021 104.071 747.448C107.138 742.374 109.143 742.886 109.143 742.571C109.143 742.296 112.761 728.884 108.671 727.901C104.582 726.918 93.5319 722.395 92.6275 724.007C91.723 725.62 90.8186 739.464 90.1895 742.256Z" fill="#FFA982"/>
<path d="M124.95 462.188L175.874 441.894L231.557 462.188L231.085 734.549C231.085 734.549 225.462 737.145 214.372 737.184C204.148 737.184 197.188 734.549 197.188 734.549L180.161 493.141L115.238 734.549C115.238 734.549 109.103 737.184 98.525 737.184C88.1829 737.184 84.0146 734.549 84.0146 734.549C84.0146 734.549 119.996 495.658 124.95 462.188Z" fill="white"/>
<path d="M126.799 379.948C127.428 343.528 127.546 277.768 171.313 275.998C215.08 274.228 228.765 393.32 228.765 393.32L236.079 468.676L192.155 467.654C189.323 467.615 186.925 465.609 186.295 462.856L184.487 454.596L181.577 462.777C180.672 465.294 178.273 466.946 175.599 466.828L119.878 465.097C122.513 423.958 126.642 390.527 126.799 379.948Z" fill="#171718"/>
<path d="M179.532 278.201C179.532 278.201 177.644 272.616 170.409 272.931C163.173 273.245 158.769 274.819 157.117 280.521C155.505 286.264 155.938 288.584 155.938 288.584L181.026 285.792C181.065 285.792 182.324 281.111 179.532 278.201Z" fill="#404043"/>
<path d="M174.813 277.06C174.813 277.06 170.33 274.897 164.982 277.1C159.634 279.302 159.398 283.471 161.443 290.904C163.488 298.338 178.667 361.384 182.009 364.452C184.447 366.654 184.565 322.683 180.397 296.096C178.785 286.027 178.824 278.751 174.813 277.06Z" fill="white"/>
<path d="M170.408 285.122C170.408 285.122 169.307 283.195 169.543 282.369C169.779 281.543 172.964 280.088 174.262 281.74C174.262 281.74 174.458 283.588 174.065 284.454C174.065 284.454 180.357 313.44 183.345 329.251C184.171 348.758 183.542 365.867 182.008 364.491C180.357 362.957 175.717 346.477 171.234 329.408L170.408 285.122Z" fill="#FFB300"/>
<path d="M157.472 253.737C157.472 253.737 159.634 261.446 160.264 269.194C160.539 272.34 161.129 276.116 160.578 278.475C159.91 281.504 163.763 283.982 167.932 284.532C169.19 284.69 169.426 281.858 170.881 281.622C172.729 281.307 175.089 283.47 175.875 282.684C177.645 280.875 176.937 278.161 176.072 276.273C174.813 273.559 171.746 260.108 171.078 258.968C170.37 257.906 158.848 251.731 157.472 253.737Z" fill="#FFA982"/>
<path d="M176.504 275.842L172.65 280.601C172.65 280.601 160.106 276.156 159.831 276.943C159.555 277.73 159.595 281.702 159.438 282.803C159.28 283.944 168.639 286.382 169.032 286.068C169.426 285.753 171.392 282.095 172.218 282.253C173.004 282.449 177.644 284.77 177.998 284.573C178.352 284.376 178.391 281.151 178.195 279.382C177.959 277.651 176.504 275.842 176.504 275.842Z" fill="white"/>
<path d="M184.054 453.732C183.857 453.732 183.661 453.574 183.661 453.339L182.127 366.104C182.127 365.868 182.284 365.711 182.52 365.711C182.756 365.711 182.913 365.868 182.913 366.104L184.447 453.339C184.447 453.574 184.25 453.732 184.054 453.732Z" fill="white"/>
<path d="M188.261 436.033C188.717 436.033 189.087 435.047 189.087 433.83C189.087 432.614 188.717 431.628 188.261 431.628C187.805 431.628 187.436 432.614 187.436 433.83C187.436 435.047 187.805 436.033 188.261 436.033Z" fill="white"/>
<path d="M189.087 402.288C189.087 403.508 189.441 404.491 189.913 404.491C190.385 404.491 190.738 403.508 190.738 402.288C190.738 401.069 190.385 400.086 189.913 400.086C189.441 400.086 189.087 401.109 189.087 402.288Z" fill="white"/>
<path d="M175.128 273.639C174.617 271.987 174.066 269.863 173.515 267.739C169.347 267.424 163.527 266.913 163.527 266.913C163.527 266.913 164.904 272.341 169.74 273.442C171.628 273.874 173.516 273.835 175.128 273.639Z" fill="#2E2E47"/>
<path d="M187.79 370.902C187.908 372.121 188.34 373.065 188.812 373.026C189.284 372.987 189.559 371.964 189.441 370.784C189.323 369.565 188.891 368.621 188.419 368.66C187.947 368.66 187.672 369.683 187.79 370.902Z" fill="white"/>
<path d="M177.958 363.352C177.84 363.352 177.722 363.313 177.643 363.195C173.357 357.413 146.853 316.51 147.875 312.97C148.072 312.341 148.426 312.105 148.741 312.026C150.038 311.633 152.201 313.521 154.482 315.527C156.016 316.824 157.549 318.201 158.454 318.476C158.178 317.729 156.802 315.802 155.583 314.111C152.398 309.588 148.426 304.003 148.937 300.974C149.763 296.097 154.796 282.883 155.032 282.332C155.111 282.135 155.347 282.017 155.544 282.096C155.74 282.175 155.858 282.411 155.78 282.607C155.74 282.725 150.55 296.294 149.724 301.092C149.252 303.806 153.459 309.706 156.212 313.639C158.886 317.454 159.555 318.476 159.161 319.027C159.083 319.145 158.886 319.342 158.454 319.263C157.353 319.066 155.74 317.69 153.892 316.077C152.044 314.465 149.763 312.498 148.898 312.734C148.859 312.734 148.701 312.813 148.583 313.167C147.758 316.038 172.885 355.447 178.233 362.683C178.351 362.841 178.312 363.116 178.155 363.234C178.115 363.313 178.037 363.352 177.958 363.352Z" fill="white"/>
<path d="M88.2995 728.609C88.1816 728.609 88.0636 728.57 87.985 728.452C87.867 728.334 87.867 728.137 87.985 728.019C88.9681 725.423 103.793 636.183 112.68 582.812C116.809 557.877 120.112 538.212 120.702 534.987C122.59 524.682 129.471 467.929 129.55 467.378C129.589 467.182 129.786 467.024 129.982 467.024C130.179 467.064 130.336 467.26 130.336 467.457C130.258 468.047 123.376 524.8 121.489 535.144C120.899 538.33 117.635 558.034 113.506 582.93C108.708 611.799 102.731 647.746 97.8159 676.89C89.1647 728.137 88.8501 728.373 88.6141 728.57C88.4568 728.57 88.3782 728.609 88.2995 728.609Z" fill="#2E2E47"/>
<path d="M185.39 363.273C185.35 363.273 185.311 363.273 185.272 363.273C185.075 363.195 184.957 362.998 184.996 362.801C185.036 362.723 187.828 352.89 189.401 344.473C191.052 335.703 194.906 311.397 195.299 306.205C194.867 307.031 194.277 308.408 193.766 309.627C191.288 315.291 190.108 317.65 189.086 317.65C188.889 317.65 188.575 317.572 188.339 317.06C187.435 314.937 189.243 310.256 190.974 305.773C191.642 304.003 192.311 302.351 192.665 301.092C192.311 299.873 186.097 288.074 181.968 280.287C181.851 280.09 181.929 279.854 182.126 279.736C182.322 279.618 182.558 279.697 182.676 279.893C193.687 300.463 193.53 301.014 193.451 301.21C193.058 302.548 192.389 304.239 191.721 306.048C190.187 309.981 188.3 314.897 189.047 316.746C189.047 316.785 189.086 316.824 189.086 316.824C189.873 316.51 191.917 311.829 193.018 309.312C194.827 305.183 195.142 304.671 195.614 304.671C195.692 304.671 195.928 304.711 196.046 305.025C196.518 306.599 191.681 336.647 190.187 344.552C188.614 353.008 185.783 362.841 185.783 362.959C185.744 363.155 185.586 363.273 185.39 363.273Z" fill="white"/>
<path d="M182.874 227.19C182.874 227.19 183.858 233.011 184.998 237.141C185.391 238.557 186.06 240.563 186.296 241.349C187.161 244.417 188.773 246.423 189.441 251.143C190.11 255.862 190.189 265.301 181.655 267.504C173.122 269.706 163.96 266.835 161.325 262.352C158.651 257.868 156.764 252.873 156.764 252.873C156.764 252.873 154.129 253.62 152.123 250.356C150.118 247.092 147.798 242.765 150.865 241.782C153.932 240.799 154.837 242.372 155.505 242.018C156.174 241.664 155.23 232.225 158.966 230.416C162.741 228.567 179.689 223.179 182.874 227.19Z" fill="#FFA982"/>
<path d="M185.431 249.019C187.593 248.625 185.549 243.08 185.627 241.428C185.706 239.737 189.088 247.327 189.166 248.783C189.245 250.238 191.801 259.244 189.638 262.941C187.475 266.639 181.852 269.982 174.735 270.611C167.617 271.24 164.825 268.802 164.196 268.054C163.567 267.307 161.325 262.47 159.91 258.458C158.219 253.699 156.213 248.586 156.764 247.917C157.314 247.209 160.264 253.581 162.938 255.311C165.612 257.003 172.375 248.35 181.262 248.35C184.369 248.311 184.487 249.176 185.431 249.019Z" fill="#171718"/>
<path d="M185.745 250.474C185.745 250.474 185.587 249.333 182.559 250.041C179.531 250.749 179.099 251.575 176.504 251.89C173.908 252.204 172.453 251.654 171.745 252.912C171.038 254.171 172.728 255.036 173.122 255.98C173.515 256.924 175.599 259.127 177.054 258.458C178.509 257.789 177.093 256.845 178.195 256.255C179.256 255.665 181.498 254.446 182.677 254.918C183.818 255.39 182.795 256.137 184.368 256.216C185.941 256.295 186.138 253.148 185.745 250.474Z" fill="#FFA982"/>
<path d="M180.081 245.125C180.081 245.125 181.929 248.114 180.907 248.94C179.924 249.766 178.233 250.356 177.25 249.806C176.306 249.255 175.677 246.463 176.778 245.125C177.957 243.827 179.491 243.985 180.081 245.125Z" fill="#FFA982"/>
<path d="M178.824 250.435C178.352 250.435 177.84 250.396 177.211 250.278C177.015 250.238 176.857 250.042 176.897 249.806C176.936 249.609 177.133 249.452 177.369 249.491C180.2 250.002 180.593 249.137 180.947 248.311C181.104 247.957 180.397 246.895 179.767 245.912C178.863 244.536 177.762 242.805 177.447 241.035V240.956C177.015 238.675 176.582 236.316 177.408 235.018C178.234 233.759 182.323 233.366 183.11 233.287C183.346 233.287 183.503 233.444 183.542 233.641C183.542 233.877 183.385 234.034 183.188 234.074C181.34 234.231 178.509 234.742 178.076 235.45C177.408 236.473 177.88 238.793 178.234 240.799V240.878C178.548 242.53 179.61 244.142 180.436 245.479C181.34 246.856 181.969 247.879 181.655 248.587C181.222 249.57 180.711 250.435 178.824 250.435Z" fill="#2E2E47"/>
<path d="M163.251 239.106C163.133 239.106 162.976 239.028 162.937 238.91C162.819 238.713 162.897 238.477 163.055 238.359C167.538 235.566 170.841 236.471 170.998 236.51C171.195 236.589 171.313 236.786 171.273 236.982C171.195 237.179 170.998 237.297 170.801 237.258C170.762 237.258 167.655 236.432 163.487 239.028C163.409 239.106 163.33 239.106 163.251 239.106Z" fill="#2E2E47"/>
<path d="M166.204 243.196C166.126 243.196 166.047 243.157 165.969 243.117C165.811 242.999 165.772 242.724 165.929 242.567C165.969 242.527 168.643 239.302 171.828 241.072C172.024 241.19 172.103 241.426 171.985 241.623C171.867 241.819 171.631 241.898 171.434 241.78C168.8 240.325 166.598 242.96 166.519 243.078C166.44 243.157 166.322 243.196 166.204 243.196Z" fill="#2E2E47"/>
<path d="M167.421 241.742C167.421 241.742 167.343 243.63 168.365 243.983C169.388 244.377 169.781 243.63 169.899 243C170.017 242.371 169.781 240.994 169.191 240.955C168.601 240.955 167.539 241.348 167.421 241.742Z" fill="#2E2E47"/>
<path d="M179.335 239.896C179.256 239.896 179.138 239.856 179.059 239.778C178.902 239.621 178.863 239.385 179.02 239.227C179.846 238.283 181.969 236.907 184.053 238.401C184.211 238.519 184.25 238.755 184.132 238.952C184.014 239.109 183.778 239.149 183.582 239.031C181.576 237.575 179.689 239.66 179.61 239.739C179.531 239.856 179.413 239.896 179.335 239.896Z" fill="#2E2E47"/>
<path d="M180.673 238.833C180.673 238.833 180.673 240.563 181.499 240.878C182.285 241.232 182.6 240.563 182.678 240.052C182.757 239.501 182.56 238.282 182.088 238.243C181.617 238.203 180.751 238.518 180.673 238.833Z" fill="#2E2E47"/>
<path d="M182.009 243.198C182.088 244.182 183.661 244.85 185.548 244.693C187.396 244.535 188.851 243.592 188.772 242.608C188.694 241.625 187.121 240.956 185.233 241.114C183.346 241.271 181.93 242.215 182.009 243.198Z" fill="#F2836D"/>
<path d="M176.267 226.443C176.267 226.443 181.104 226.128 183.07 228.527C184.368 230.101 185.547 220.858 181.379 218.184C177.211 215.548 175.402 216.532 174.537 218.538C173.553 220.976 175.166 225.892 176.267 226.443Z" fill="#171718"/>
<path d="M165.807 247.721C166.083 248.665 167.734 249.019 169.543 248.547C171.352 248.036 172.61 246.856 172.335 245.912C172.06 244.968 170.408 244.614 168.599 245.086C166.79 245.597 165.532 246.777 165.807 247.721Z" fill="#F2836D"/>
<path d="M179.138 224.162C179.138 224.162 178.312 226.167 175.363 227.937C172.414 229.707 168.245 230.179 165.06 230.1C161.875 230.022 158.808 229.707 157.667 231.91C156.527 234.112 155.858 240.366 156.291 242.843C156.723 245.321 159.122 252.243 158.06 251.771C156.999 251.299 153.814 242.057 153.224 241.192C152.634 240.326 146.106 231.202 145.044 227.819C143.983 224.437 148.19 220.425 151.454 220.543C151.454 220.543 148.937 215.194 156.173 211.025C165.493 205.716 179.374 211.104 179.138 224.162Z" fill="#171718"/>
<path d="M158.965 497.782C158.808 497.782 158.651 497.664 158.612 497.507C158.533 497.31 158.651 497.074 158.847 496.996C173.24 492.119 205.092 490.742 205.407 490.742C205.643 490.742 205.8 490.9 205.8 491.135C205.8 491.371 205.643 491.529 205.407 491.529C205.092 491.529 173.358 492.905 159.044 497.743C159.083 497.782 159.005 497.782 158.965 497.782Z" fill="#2E2E47"/>
<path d="M159.084 500.456C159.044 500.456 159.005 500.456 158.966 500.456C158.101 500.416 156.921 500.338 156.724 499.59C156.488 498.843 157.432 498.135 157.589 497.978C157.747 497.86 158.022 497.899 158.14 498.057C158.258 498.214 158.218 498.489 158.061 498.607C157.707 498.883 157.432 499.237 157.471 499.355C157.471 499.355 157.629 499.669 159.005 499.669C161.522 499.748 168.325 497.624 172.375 496.366C173.869 495.894 175.049 495.54 175.56 495.422C175.757 495.382 175.993 495.5 176.032 495.697C176.071 495.894 175.953 496.13 175.757 496.169C175.245 496.287 174.105 496.641 172.611 497.113C168.285 498.45 161.797 500.456 159.084 500.456Z" fill="#2E2E47"/>
<path d="M207.412 496.168H207.372C200.609 495.303 184.211 495.106 184.053 495.106C183.817 495.106 183.66 494.909 183.66 494.713C183.66 494.477 183.817 494.319 184.053 494.319C184.211 494.319 200.648 494.516 207.451 495.381C207.648 495.421 207.805 495.617 207.805 495.814C207.766 496.01 207.608 496.168 207.412 496.168Z" fill="#2E2E47"/>
<path d="M201.317 726.289C201.081 726.289 200.923 726.132 200.923 725.896C200.923 725.738 200.884 724.637 200.805 722.946C200.53 716.81 199.94 702.376 199.744 691.482C199.547 679.643 195.182 641.297 193.295 624.896C192.98 622.025 192.744 619.901 192.626 618.878C191.918 612.35 189.52 549.421 189.795 535.026C190.031 521.222 186.728 498.213 186.728 498.017C186.688 497.82 186.846 497.584 187.042 497.584C187.278 497.545 187.475 497.702 187.475 497.899C187.514 498.135 190.817 521.182 190.581 535.066C190.345 549.461 192.744 612.31 193.413 618.8C193.531 619.822 193.767 621.946 194.081 624.817C195.969 641.218 200.334 679.604 200.53 691.482C200.727 702.376 201.317 716.771 201.592 722.946C201.671 724.912 201.71 725.778 201.71 725.935C201.71 726.092 201.553 726.289 201.317 726.289Z" fill="#2E2E47"/>
<path d="M173.712 252.911C173.712 252.911 177.172 252.832 180.358 251.849C183.543 250.905 184.762 250.197 184.762 250.197C184.762 250.197 185.273 252.675 182.914 253.973C180.554 255.271 175.128 255.743 173.712 252.911Z" fill="white"/>
<path d="M219.877 346.715C219.68 346.715 219.523 346.597 219.483 346.4C219.405 346.086 212.09 316.116 208.709 311.003C205.248 305.694 205.405 299.165 205.405 298.889C205.405 298.653 205.602 298.496 205.799 298.496C206.035 298.496 206.192 298.693 206.192 298.889C206.192 298.968 206.035 305.458 209.377 310.57C212.798 315.841 219.955 344.984 220.23 346.243C220.27 346.44 220.152 346.675 219.955 346.715C219.916 346.715 219.877 346.715 219.877 346.715Z" fill="white"/>
<path d="M149.371 284.574C149.371 284.574 64.1171 327.169 53.2245 366.106C44.1801 398.435 86.4529 444.451 99.0364 456.565C101.592 459.043 110.322 456.919 113.193 454.795C118.03 451.177 125.619 447.322 123.299 438.591L94.3176 372.044C94.3176 372.044 121.608 342.507 129.905 331.102C144.888 310.493 149.371 284.574 149.371 284.574Z" fill="#171718"/>
<path d="M122.16 437.922C120.429 436.939 118.542 436.231 116.576 435.877C114.531 435.523 112.171 435.523 111.07 436.939C108.868 439.81 111.542 442.485 111.542 442.485C111.542 442.485 108.947 443.979 108.396 445.867C107.846 447.755 110.756 449.092 110.756 449.092C110.756 449.092 108.593 450.311 108.514 451.531C108.436 452.75 110.874 454.756 110.874 454.756C110.874 454.756 109.733 455.503 110.323 456.919C110.913 458.335 120.547 462.268 123.536 460.734C126.525 459.2 121.727 456.211 121.727 456.211C121.727 456.211 124.401 456.801 125.659 455.07C126.918 453.34 123.851 451.413 123.851 451.413C123.851 451.413 127.508 452.081 127.665 450.272C127.822 448.463 118.031 442.721 118.031 442.721C118.031 442.721 126.367 445.474 128.609 443.94C130.182 442.799 124.991 439.535 122.16 437.922Z" fill="#FFA982"/>
<path d="M67.8528 385.26C67.3022 385.26 66.8697 385.181 66.5158 384.984C66.0439 384.748 65.7687 384.316 65.7293 383.804C65.4147 380.776 71.7065 378.495 76.7793 376.686C78.5488 376.056 80.7509 375.27 81.2622 374.837C80.633 374.64 78.4308 374.798 76.6219 374.955C72.5323 375.27 67.4595 375.663 65.69 373.972C65.2181 373.539 65.0215 372.989 65.0215 372.359C65.0215 371.887 65.2574 371.494 65.6507 371.14C67.3022 369.764 72.6896 369.41 81.5767 370.157C88.1438 370.707 94.3176 371.651 94.3569 371.651C94.5535 371.691 94.7108 371.887 94.6715 372.084C94.6322 372.281 94.4356 372.438 94.2389 372.399C87.436 371.337 69.1898 369.174 66.1619 371.691C65.9259 371.887 65.808 372.084 65.808 372.32C65.808 372.713 65.9259 373.067 66.2012 373.343C67.6955 374.758 72.8075 374.365 76.504 374.09C80.0431 373.815 81.6554 373.736 82.0093 374.444C82.0879 374.601 82.0879 374.758 82.0093 374.955C81.734 375.624 80.1611 376.214 76.9366 377.394C72.6503 378.927 66.1619 381.287 66.3978 383.686C66.4371 383.962 66.5551 384.119 66.791 384.276C69.2684 385.574 80.4756 380.029 84.5653 377.787C84.7619 377.669 84.9979 377.748 85.1158 377.944C85.2338 378.141 85.1552 378.377 84.9585 378.495C83.6215 379.242 72.493 385.26 67.8528 385.26Z" fill="white"/>
<path d="M129.905 331.532C129.826 331.532 129.747 331.493 129.669 331.454C129.511 331.336 129.472 331.06 129.59 330.903C129.708 330.785 140.089 317.413 143.865 309.429C143.943 309.232 144.179 309.154 144.376 309.232C144.572 309.311 144.651 309.547 144.572 309.744C140.758 317.806 130.337 331.257 130.219 331.375C130.141 331.493 130.023 331.532 129.905 331.532Z" fill="white"/>
</g>
<defs>
<clipPath id="clip0_7448_71353">
<rect width="665" height="1024" fill="white"/>
</clipPath>
</defs>
</svg>
