<svg width="665" height="1024" viewBox="0 0 665 1024" fill="none" xmlns="http://www.w3.org/2000/svg">
<rect width="665" height="1024" fill="#0E369C"/>
<path d="M464.855 248.381H425.783V391.311H464.855V248.381Z" fill="#86A5F9"/>
<path d="M331.297 818.87H272.413C272.413 788.89 248.023 764.5 218.043 764.5C188.064 764.5 163.674 788.89 163.674 818.87H104.79C104.79 803.603 107.8 788.767 113.698 774.759C119.411 761.274 127.582 749.141 137.964 738.758C148.346 728.376 160.48 720.205 173.964 714.491C187.941 708.563 202.777 705.583 218.074 705.583C233.34 705.583 248.177 708.593 262.184 714.491C275.669 720.205 287.802 728.376 298.184 738.758C308.567 749.141 316.737 761.274 322.451 774.759C328.287 788.736 331.297 803.573 331.297 818.87Z" fill="#2652C0"/>
<path d="M331.297 470.87H218.043V705.923H331.297V470.87Z" fill="#052881"/>
<path d="M218.074 470.87H104.82V705.923H218.074V470.87Z" fill="#3E65CB"/>
<path d="M218.044 647.774C250.836 647.774 277.42 621.189 277.42 588.396C277.42 555.603 250.836 529.019 218.044 529.019C185.251 529.019 158.667 555.603 158.667 588.396C158.667 621.189 185.251 647.774 218.044 647.774Z" fill="#86A5F9"/>
<path d="M445.318 309.755C478.111 309.755 504.695 283.171 504.695 250.377C504.695 217.584 478.111 191 445.318 191C412.526 191 385.942 217.584 385.942 250.377C385.942 283.171 412.526 309.755 445.318 309.755Z" fill="#5C81E2"/>
<path d="M463.39 257.833C467.519 247.865 462.785 236.436 452.817 232.307C442.848 228.178 431.42 232.911 427.291 242.88C423.162 252.849 427.895 264.277 437.864 268.406C447.832 272.536 459.26 267.802 463.39 257.833Z" fill="#86A5F9"/>
<path d="M559.341 450.166C559.341 387.44 508.043 336.142 445.319 336.142C382.595 336.142 331.297 387.44 331.297 450.166V544.562H559.341V450.166Z" fill="#3E65CB"/>
<path d="M331.297 818.871H559.341L331.297 544.562V818.871Z" fill="#3E65CB"/>
<path d="M331.297 544.562L559.341 818.871V544.562H331.297Z" fill="#052881"/>
<path d="M435.336 524.564L390.12 501.986C390.12 501.986 366.13 468.412 362.106 468.965C358.113 469.518 352.86 467.736 350.403 471.299C347.946 474.863 344.935 481.958 346.502 485.429C348.068 488.901 361.369 512.093 376.297 523.581C385.881 530.953 419.24 538.049 429.008 535.837C438.776 533.564 441.233 529.909 435.336 524.564Z" fill="white"/>
<path d="M444.983 427.587H273.014V599.556L444.983 427.587Z" fill="#FFB300"/>
<path d="M355.686 469.794C355.686 469.794 352.952 465.616 351.724 462.606C350.464 459.596 350.649 457.445 348.222 456.647C345.795 455.817 339.867 452.377 339.99 453.759C340.113 455.142 345.611 458.367 345.611 458.367C345.611 458.367 337.44 455.418 337.01 456.954C336.549 458.521 337.409 458.889 337.409 458.889C337.409 458.889 335.566 459.411 335.72 460.179C335.874 460.917 341.956 464.326 341.956 464.326C341.956 464.326 336.027 463.528 335.935 464.879C335.812 466.231 341.771 467.951 341.771 467.951C341.771 467.951 344.782 473.265 347.7 474.801C350.618 476.337 353.597 475.354 354.888 474.309C356.116 473.265 356.669 470.439 355.686 469.794Z" fill="#FFD3B5"/>
<path d="M354.304 467.582C354.304 467.582 354.335 462.022 354.918 460.179C355.502 458.336 357.191 456.431 356.147 455.817C355.102 455.202 352.584 458.151 352.184 459.226C351.785 460.302 350.464 461.5 350.618 463.435C350.771 465.401 353.628 468.165 354.304 467.582Z" fill="#FFD3B5"/>
<path d="M493.913 727.699L499.504 730.74C499.504 730.74 503.251 737.252 497.599 739.188C491.947 741.123 473.978 736.853 452.967 738.727C431.957 740.601 425.568 748.249 411.008 749.57C396.417 750.891 387.509 743.181 390.028 738.911C392.516 734.672 468.756 720.173 493.913 727.699Z" fill="#2E2E47"/>
<path d="M454.933 537.741C451.247 527.88 435.367 518.327 419.056 526.498C402.776 534.669 400.718 572.206 399.888 587.872C399.336 598.501 396.571 609.283 397.738 654.745C398.813 696.89 410.732 818.87 410.732 818.87L422.65 819.146L430.298 659.506L501.593 803.91L513.971 801.177C513.971 801.177 476.558 702.235 464.609 642.611C461.568 627.467 447.653 589.992 447.285 587.319C445.534 574.234 459.971 551.226 454.933 537.741Z" fill="#FFD3B5"/>
<path d="M395.495 655.36C394.328 609.929 399.335 598.532 399.919 587.873C400.748 572.207 402.775 534.67 419.086 526.499C435.366 518.328 451.277 527.881 454.964 537.742C460.001 551.227 451.37 573.774 453.151 586.89C453.52 589.563 462.028 596.382 469.431 624.089C481.81 670.473 479.445 692.037 499.565 730.742C498.95 730.803 479.66 726.748 469.278 733.475C455.424 742.414 452.629 751.63 421.39 741.155C412.113 738.052 398.106 744.196 388.185 740.756C395.741 701.59 396.232 683.928 395.495 655.36Z" fill="white"/>
<path d="M480.458 671.18C480.458 671.18 476.373 669.767 475.328 673.208C474.284 676.648 477.049 683.345 483.868 679.444C490.687 675.542 486.264 668.6 483.284 668.907C481.595 669.092 480.458 671.18 480.458 671.18Z" fill="#FFB300"/>
<path d="M480.459 671.18C480.459 671.18 480.366 667.863 482.025 666.173C483.684 664.484 485.005 663.716 485.005 663.716C485.005 663.716 485.773 666.818 484.237 669.399C483.315 670.965 480.243 672.286 480.459 671.18Z" fill="#515032"/>
<path d="M436.225 668.54C436.225 668.54 432.14 667.127 431.095 670.567C430.051 674.008 432.816 680.704 439.635 676.803C446.454 672.902 442.031 665.96 439.051 666.267C437.362 666.451 436.225 668.54 436.225 668.54Z" fill="#FFB300"/>
<path d="M436.226 668.54C436.226 668.54 436.133 665.222 437.792 663.533C439.451 661.843 440.772 661.075 440.772 661.075C440.772 661.075 441.54 664.178 440.004 666.758C439.082 668.325 436.011 669.645 436.226 668.54Z" fill="#515032"/>
<path d="M440.28 574.696C440.28 574.696 436.195 573.283 435.15 576.723C434.106 580.164 436.87 586.86 443.69 582.959C450.509 579.058 446.085 572.116 443.106 572.423C441.386 572.607 440.28 574.696 440.28 574.696Z" fill="#FFB300"/>
<path d="M440.28 574.696C440.28 574.696 440.187 571.378 441.846 569.689C443.505 567.999 444.826 567.231 444.826 567.231C444.826 567.231 445.594 570.334 444.058 572.914C443.106 574.481 440.034 575.832 440.28 574.696Z" fill="#515032"/>
<path d="M393.989 658.924C393.989 658.924 390.211 657.603 389.228 660.828C388.276 664.023 390.825 670.258 397.153 666.634C403.481 663.009 399.365 656.558 396.631 656.835C395.034 656.988 393.989 658.924 393.989 658.924Z" fill="#FFB300"/>
<path d="M393.652 658.985C393.652 658.985 391.809 656.497 392.177 654.347C392.546 652.196 393.16 650.906 393.16 650.906C393.16 650.906 395.402 652.841 395.587 655.637C395.71 657.296 394.082 659.937 393.652 658.985Z" fill="#515032"/>
<path d="M450.509 618.622C450.509 618.622 449.127 614.844 446.025 616.134C442.922 617.424 439.758 623.352 446.547 625.963C453.366 628.574 455.731 621.325 453.796 619.359C452.659 618.223 450.509 618.622 450.509 618.622Z" fill="#FFB300"/>
<path d="M450.264 618.407C450.264 618.407 451.032 615.427 452.936 614.321C454.841 613.246 456.223 612.908 456.223 612.908C456.223 612.908 456.131 615.857 454.073 617.792C452.844 618.929 449.772 619.328 450.264 618.407Z" fill="#515032"/>
<path d="M447.437 723.061C447.437 723.061 446.055 719.283 442.952 720.573C439.85 721.863 436.686 727.792 443.475 730.403C450.294 733.014 452.659 725.765 450.724 723.799C449.587 722.662 447.437 723.061 447.437 723.061Z" fill="#FFB300"/>
<path d="M447.191 722.816C447.191 722.816 447.959 719.836 449.864 718.73C451.768 717.655 453.15 717.317 453.15 717.317C453.15 717.317 453.058 720.266 451 722.201C449.772 723.369 446.7 723.768 447.191 722.816Z" fill="#515032"/>
<path d="M408.98 548.37C408.98 548.37 404.956 548.401 405.14 551.749C405.324 555.097 409.778 560.104 414.539 554.575C419.3 549.046 413.28 544.346 410.792 545.513C409.317 546.189 408.98 548.37 408.98 548.37Z" fill="#FFB300"/>
<path d="M408.672 548.524C408.672 548.524 406.123 546.773 405.754 544.623C405.386 542.473 405.539 541.06 405.539 541.06C405.539 541.06 408.304 542.165 409.379 544.715C410.054 546.251 409.409 549.292 408.672 548.524Z" fill="#515032"/>
<path d="M402.16 617.823C402.16 617.823 398.689 619.85 400.501 622.646C402.314 625.441 408.672 627.591 410.085 620.434C411.468 613.277 403.911 612.171 402.314 614.444C401.362 615.765 402.16 617.823 402.16 617.823Z" fill="#FFB300"/>
<path d="M401.976 618.099C401.976 618.099 398.905 617.853 397.492 616.164C396.109 614.474 395.526 613.153 395.526 613.153C395.526 613.153 398.444 612.723 400.686 614.413C402.038 615.457 402.959 618.406 401.976 618.099Z" fill="#515032"/>
<path d="M408.887 704.631C408.887 704.631 404.894 704.816 405.17 708.133C405.447 711.451 410.147 716.304 414.693 710.59C419.239 704.877 413.034 700.423 410.577 701.682C409.133 702.45 408.887 704.631 408.887 704.631Z" fill="#FFB300"/>
<path d="M408.58 704.815C408.58 704.815 405.969 703.187 405.508 701.037C405.048 698.887 405.14 697.474 405.14 697.474C405.14 697.474 407.935 698.457 409.133 700.975C409.87 702.481 409.348 705.552 408.58 704.815Z" fill="#515032"/>
<path d="M426.305 499.528C426.305 499.528 418.442 499.866 416.967 505.549C415.831 509.88 416.599 512.43 418.687 513.935C420.776 515.44 424.739 515.901 424.739 515.901C424.739 515.901 425.046 518.665 430.698 521.215C434.415 522.905 443.66 522.812 445.811 521.676C447.93 520.539 443.384 499.897 426.305 499.528Z" fill="#2E2E47"/>
<path d="M426.704 524.102C428.025 522.904 430.913 521.122 431.097 516.638C431.404 509.265 440.404 508.682 440.404 508.682C440.404 508.682 437.978 517.16 439.022 520.877C439.298 521.86 442.124 526.129 442.124 526.129L428.302 534.055C428.332 534.085 426.489 525.392 426.704 524.102Z" fill="#FFD3B5"/>
<path d="M430.943 518.021C431.036 517.56 431.066 517.099 431.097 516.638C431.128 515.686 431.343 514.826 431.619 514.089L437.333 514.611C437.363 514.611 433.892 516.7 430.943 518.021Z" fill="#2E2E47"/>
<path d="M445.503 509.726C445.503 509.726 445.995 510.617 447.561 510.002C448.821 509.511 450.909 505.579 450.356 504.381C449.803 503.183 448.39 503.767 448.175 503.582C447.96 503.429 450.602 498.944 450.203 495.504C449.803 492.063 447.991 488.254 443.23 486.749C438.469 485.244 435.121 486.903 432.848 488.285C430.544 489.667 428.854 493.691 427.933 495.534C427.011 497.408 426.336 497.807 425.568 498.698C423.817 500.787 422.834 502.354 422.496 505.364C422.158 508.374 423.97 512.183 428.517 513.873C433.063 515.562 441.141 516.238 445.503 509.726Z" fill="#FFD3B5"/>
<path d="M431.772 503.705C431.741 503.705 431.71 503.705 431.68 503.705C430.85 503.675 429.806 503.398 429.407 502.784C428.639 501.586 429.345 501.125 430.267 500.541C430.574 500.357 430.912 500.142 431.28 499.835C432.417 498.975 433.984 496.456 433.768 495.012C433.707 494.551 433.461 494.275 433.062 494.121C431.803 493.538 430.267 492.985 429.929 493.108C429.745 493.169 429.56 493.046 429.529 492.893C429.468 492.708 429.591 492.524 429.745 492.493C430.482 492.278 432.693 493.23 433.338 493.538C433.953 493.783 434.352 494.275 434.444 494.951C434.69 496.702 432.97 499.405 431.68 500.388C431.28 500.695 430.943 500.91 430.635 501.125C429.683 501.739 429.591 501.831 429.99 502.446C430.205 502.753 430.973 503.029 431.71 503.06C432.233 503.06 432.632 502.968 432.786 502.753C432.878 502.599 433.093 502.569 433.246 502.661C433.4 502.753 433.431 502.968 433.338 503.122C432.97 503.644 432.233 503.705 431.772 503.705Z" fill="#2E2E47"/>
<path d="M441.295 498.974C441.203 498.974 441.111 498.944 441.049 498.852C441.049 498.852 439.759 497.408 437.763 496.671C437.578 496.609 437.517 496.425 437.578 496.241C437.64 496.056 437.824 495.995 438.008 496.056C440.158 496.886 441.479 498.36 441.541 498.421C441.664 498.544 441.664 498.759 441.51 498.882C441.449 498.974 441.387 498.974 441.295 498.974Z" fill="#2E2E47"/>
<path d="M427.749 504.044C427.749 504.044 427.38 505.703 429.254 506.87C431.158 508.037 433.339 506.686 433.339 506.686L427.749 504.044Z" fill="white"/>
<path d="M437.916 499.866C437.394 499.651 436.81 499.836 436.534 500.266C436.288 500.665 436.042 501.218 436.165 501.679C436.441 502.539 437.578 502.477 437.977 502.293C438.377 502.109 438.53 500.727 438.499 500.481C438.469 500.235 438.315 500.02 437.916 499.866Z" fill="#2E2E47"/>
<path d="M439.728 501.893C439.605 501.893 439.482 501.832 439.421 501.709C439.421 501.678 439.083 501.002 438.284 500.603L438.192 500.572C437.824 500.388 437.271 500.111 436.902 500.234C436.718 500.296 436.534 500.204 436.472 500.019C436.411 499.835 436.503 499.651 436.687 499.589C437.301 499.405 438.008 499.743 438.469 499.958L438.561 499.989C439.574 500.48 440.005 501.371 440.005 501.402C440.097 501.555 440.005 501.77 439.851 501.832C439.82 501.893 439.759 501.893 439.728 501.893Z" fill="#2E2E47"/>
<path d="M430.021 496.179C429.499 495.964 428.916 496.118 428.639 496.517C428.393 496.886 428.178 497.408 428.332 497.838C428.639 498.668 429.745 498.637 430.144 498.483C430.544 498.33 430.636 497.009 430.605 496.794C430.544 496.517 430.39 496.333 430.021 496.179Z" fill="#2E2E47"/>
<path d="M431.772 498.145C431.65 498.145 431.527 498.084 431.465 497.93C431.465 497.9 431.097 497.101 430.298 496.825C429.469 496.517 429.131 496.579 428.854 496.64C428.67 496.671 428.516 496.548 428.486 496.364C428.455 496.179 428.578 496.026 428.762 495.995C429.161 495.934 429.591 495.903 430.513 496.21C431.588 496.579 432.049 497.654 432.08 497.685C432.141 497.869 432.08 498.053 431.895 498.115C431.865 498.145 431.834 498.145 431.772 498.145Z" fill="#2E2E47"/>
<path d="M436.442 502.845C436.442 502.845 439.852 503.336 440.282 504.688C440.712 506.039 436.933 505.486 435.336 504.534C433.769 503.582 435.582 502.691 436.442 502.845Z" fill="#FFA982"/>
<path d="M426.428 498.453C426.428 498.453 428.854 499.037 428.885 500.266C428.885 501.494 426.182 500.818 425.23 499.897C424.247 498.945 425.813 498.269 426.428 498.453Z" fill="#FFA982"/>
<path d="M445.872 508.865C445.718 509.203 445.872 509.633 446.21 509.787C446.548 509.941 446.978 509.787 447.131 509.449C447.285 509.111 447.131 508.681 446.793 508.527C446.425 508.374 446.025 508.527 445.872 508.865Z" fill="#2E2E47"/>
<path d="M431.435 486.165C431.435 486.165 429.315 490.158 431.066 491.909C432.786 493.66 435.213 494.766 435.397 494.336C435.581 493.906 434.783 492.493 435.274 492.524C435.735 492.554 437.209 494.613 438.131 495.35C439.052 496.087 442.769 497.992 443.445 498.544C444.121 499.097 439.452 510.832 438.469 516.729C437.486 522.597 447.407 526.467 450.08 525.208C452.752 523.917 451.861 521.951 451.861 521.951C451.861 521.951 456.039 522.934 458.466 521.982C460.892 521.03 461.66 518.695 461.414 516.668C461.169 514.61 460.278 513.565 458.496 513.289C456.715 512.982 454.442 510.924 454.872 509.05C455.302 507.176 455.609 503.398 453.827 499.405C452.046 495.411 440.558 487.332 436.749 486.503C432.94 485.551 432.387 484.814 431.435 486.165Z" fill="#2E2E47"/>
<path d="M410.854 534.607C409.318 537.096 407.997 539.922 406.892 542.993C408.95 543.362 411.745 543.823 415.431 544.437C424.953 546.034 437.516 541.918 437.516 541.918L410.854 534.607Z" fill="#2E2E47"/>
<path d="M455.086 507.913C455.086 507.913 457.39 496.24 457.544 493.199C457.82 488.253 456.592 487.455 454.871 485.642C453.151 483.83 449.834 483.83 449.834 483.83C449.834 483.83 447.469 480.543 443.168 481.372C438.868 482.202 432.724 483.277 431.649 485.857C430.574 488.407 442.922 493.291 444.827 494.55C446.731 495.81 455.086 507.913 455.086 507.913Z" fill="#2E2E47"/>
<path d="M444.582 530.522L399.366 507.944C399.366 507.944 366.13 467.12 362.106 467.673C358.113 468.226 356.485 465.953 350.403 470.008C346.809 472.404 344.936 480.667 346.502 484.138C348.069 487.609 370.615 518.051 385.544 529.508C395.127 536.881 428.486 543.976 438.254 541.765C448.022 539.522 450.479 535.867 444.582 530.522Z" fill="white"/>
<path d="M408.244 825.136C407.936 823.754 406.523 822.064 405.878 821.358C407.506 820.62 408.827 819.883 409.534 819.207C412.513 816.351 413.281 813.125 413.281 813.125C415.677 808.518 422.711 811.989 422.373 814.631C422.189 816.136 423.049 820.989 423.264 825.167L408.612 826.948C408.643 826.948 408.643 826.948 408.244 825.136Z" fill="#FFD3B5"/>
<path d="M390.367 826.088C391.78 825.812 400.534 823.815 405.879 821.389C406.524 822.095 407.968 823.754 408.244 825.167C408.644 826.979 408.644 826.979 408.644 826.979L423.296 825.198C423.449 828.362 423.234 831.126 421.913 831.648C418.811 832.908 394.821 832.601 391.258 832.416C387.664 832.232 385.852 826.949 390.367 826.088Z" fill="#2E2E47"/>
<path d="M505.248 808.579C506.477 809.9 510.316 814.047 511.699 815.152C513.081 816.258 515.139 817.548 517.658 817.21C520.176 816.873 520.115 815.429 520.33 815.152C520.484 814.968 519.132 810.514 518.334 807.903C515.692 803.633 513.757 800.592 511.883 795.585C509.917 790.271 500.671 791.684 500.088 796.046C499.75 798.534 501.101 803.449 502.576 807.657C503.159 807.596 504.357 807.596 505.248 808.579Z" fill="#FFD3B5"/>
<path d="M519.377 809.562C519.04 808.978 518.702 808.456 518.364 807.903C519.162 810.483 520.514 814.937 520.36 815.152C520.145 815.429 520.207 816.873 517.688 817.211C515.169 817.548 513.111 816.258 511.729 815.152C510.347 814.047 506.507 809.93 505.278 808.579C504.357 807.596 503.19 807.565 502.637 807.627C503.743 810.76 504.91 813.494 505.524 814.569C506.937 817.088 518.18 826.733 521.006 827.501C523.831 828.269 528.439 827.409 528.777 825.658C529.084 823.938 522.541 814.722 519.377 809.562Z" fill="#2E2E47"/>
<path d="M436.841 526.96C436.78 526.96 436.749 526.96 436.688 526.929L399.182 508.191L397.585 506.225C397.462 506.071 397.492 505.887 397.646 505.764C397.8 505.641 397.984 505.672 398.107 505.826L399.612 507.669L436.995 526.345C437.148 526.437 437.24 526.622 437.148 526.806C437.056 526.898 436.964 526.96 436.841 526.96Z" fill="#2E2E47"/>
<path d="M157.408 445.1C157.408 447.711 158.237 451.981 158.053 451.95C158.514 451.95 178.91 459.261 186.282 462.333C187.265 455.882 190.06 451.336 191.074 445.714C184.039 442.581 162.015 439.663 161.155 439.325C159.804 440.677 157.408 443.257 157.408 445.1Z" fill="#3761CD"/>
<path d="M254.289 386.858C254.289 386.858 222.743 381.697 214.725 386.858C211.777 388.763 212.176 396.78 213.865 406.149C199.183 410.05 173.042 426.177 174.117 427.098C181.244 433.334 205.787 432.628 219.855 430.569C221.852 437.481 223.511 442.396 223.511 442.396C223.511 442.396 178.541 439.447 173.38 440.553C168.22 441.659 169.233 458.738 171.23 464.758C173.227 470.779 254.473 477.936 257.33 465.311C260.187 452.717 254.289 386.858 254.289 386.858Z" fill="white"/>
<path d="M143.923 459.566C143.831 453.884 148.991 439.661 150.373 435.944C149.267 435.791 148.315 435.822 147.639 436.067L145.643 442.887C145.643 442.887 143.616 449.583 142.11 456.587C140.513 464.051 146.872 472.222 149.452 471.393C149.82 471.27 150.128 471.116 150.404 470.963C150.435 470.932 150.465 470.932 150.496 470.901C148.745 469.396 144.015 464.881 143.923 459.566Z" fill="#CC8B70"/>
<path d="M161.154 439.354C159.004 438.494 153.967 436.405 150.373 435.944C148.99 439.661 143.83 453.883 143.922 459.566C144.014 464.88 148.714 469.396 150.496 470.932C152.093 469.918 152.154 467.215 151.847 464.85C151.479 462.085 152.4 459.29 154.397 457.293C156.086 455.634 157.837 454.006 158.206 453.976C158.39 454.006 160.909 454.16 160.54 450.842C160.141 447.402 157.376 447.74 157.376 445.129C157.407 443.255 159.803 440.675 161.154 439.354Z" fill="#001A5B"/>
<path d="M285.989 427.16C285.989 427.16 289.03 429.955 290.75 432.781C292.47 435.577 298.767 437.358 298.061 439.662C297.354 441.966 290.996 437.604 289.491 437.881C287.986 438.157 282.395 452.318 281.566 452.533C280.736 452.748 279.139 449.246 279.139 449.246C279.139 449.246 276.59 446.666 276.037 445.652C275.514 444.638 275.299 443.164 275.299 443.164C275.299 443.164 274.409 442.519 274.009 441.69C273.579 440.891 275.392 430.17 275.422 429.955C275.453 429.74 270.569 426.515 271.03 423.535C271.49 420.556 278.494 418.866 278.494 418.866L285.989 427.16Z" fill="#FFC7AD"/>
<path d="M275.883 317.005C275.883 317.005 281.105 351.778 282.917 361.362C284.945 372.205 301.778 408.759 299.873 412.599C297.969 416.408 285.221 421.261 282.549 420.616C279.876 419.971 263.934 379.854 260.371 360.993C256.808 342.132 262.153 325.821 264.364 319.708C266.637 313.565 275.883 317.005 275.883 317.005Z" fill="#001A5B"/>
<path d="M245.872 281.803C245.872 281.803 248.944 280.267 254.565 281.373C260.186 282.479 265.039 285.428 267.589 289.605C270.138 293.783 269.77 298.053 269.401 299.742C269.033 301.432 261.661 303.521 257.974 299.589C254.288 295.595 244.305 283.216 245.872 281.803Z" fill="#001A5B"/>
<path d="M234.047 460.89C236.596 460.338 240.589 458.648 240.62 458.802C240.528 458.372 243.415 436.869 244.89 429.036C238.378 429.435 233.34 427.623 227.657 427.838C226.06 435.364 227.811 457.511 227.657 458.433C229.224 459.477 232.234 461.259 234.047 460.89Z" fill="#3761CD"/>
<path d="M255.856 471.364C261.6 471.241 263.228 469.735 263.658 469.029C262.675 465.435 257.576 466.357 251.863 464.329C245.259 461.995 242.709 458.984 242.525 458.216C242.494 458.032 242.126 455.513 238.962 456.588C235.675 457.694 236.597 460.336 234.016 460.889C232.204 461.288 229.194 459.506 227.627 458.431C227.228 460.704 226.245 466.111 226.552 469.705C232.388 470.933 248.607 471.517 255.856 471.364Z" fill="#001A5B"/>
<path d="M263.658 469.028C263.228 469.735 261.6 471.24 255.856 471.363C248.576 471.516 232.388 470.933 226.552 469.673C226.644 470.779 226.859 471.701 227.259 472.315L234.324 472.837C234.324 472.837 264.089 475.356 263.812 470.042C263.812 469.673 263.751 469.336 263.658 469.028Z" fill="#CC8B70"/>
<path d="M271.767 305.24C271.767 305.24 259.142 288.038 236.504 288.622C213.865 289.206 184.561 317.927 170.554 341.61C162.076 355.955 152.8 391.834 159.68 396.994C166.561 402.155 237.087 386.397 249.405 387.257C261.722 388.117 259.142 359.15 262.306 351.993C265.47 344.805 284.392 325.883 271.767 305.24Z" fill="#001A5B"/>
<path d="M160.541 395.551C160.541 395.551 181.521 378.809 204.466 363.358C206.217 362.191 207.968 358.751 209.719 357.583C213.466 355.126 217.275 355.003 220.961 352.761C236.32 343.453 250.48 336.726 257.668 338.016C278.034 341.733 269.955 366.86 268.911 379.178C267.805 392.325 248.975 453.638 248.975 453.638C248.975 453.638 230.33 453.638 222.896 451.334C215.432 449.03 221.944 402.677 221.944 402.677C221.944 402.677 200.412 429.617 180.906 431.06C161.401 432.535 152.462 404.766 160.541 395.551Z" fill="white"/>
<path d="M237.241 298.145C237.241 298.145 250.234 353.375 254.627 361.024C259.02 368.673 287.894 413.398 286.542 419.511C285.19 425.624 267.989 431.583 266.668 430.416C265.317 429.248 231.558 380.499 228.272 367.506C224.985 354.512 214.91 322.443 216.784 309.019C218.688 295.595 228.855 290.312 237.241 298.145Z" fill="#001A5B"/>
<path d="M263.196 281.558C263.196 281.558 260.401 285.244 257.667 288.531C256.316 290.159 254.258 291.725 254.012 292.647C253.797 293.445 254.596 299.835 260.248 299.712C262.429 299.65 264.057 295.135 264.917 293.753C265.838 292.278 266.36 290.558 266.36 290.558L263.196 281.558Z" fill="#FFA982"/>
<path d="M265.716 290.896L261.999 285.92C261.999 285.92 260.832 290.067 262.828 292.678C263.32 293.323 263.965 293.876 264.64 294.152C264.733 293.999 264.794 293.845 264.886 293.722C265.347 292.985 265.685 292.186 265.931 291.572L265.716 290.896Z" fill="#001A5B"/>
<path d="M265.808 270.099C265.808 270.099 261.476 270.683 260.401 273.939C259.326 277.164 259.756 280.666 262.367 282.325C264.978 283.984 269.709 274.83 268.787 272.895C267.866 270.959 267.19 269.854 265.808 270.099Z" fill="#2E2E47"/>
<path d="M279.447 271.512C282.979 273.232 283.686 275.106 282.641 278.884L281.566 282.847C281.075 284.72 280.921 286.656 279.815 289.328C278.709 291.97 276.989 298.052 270.784 295.963C262.829 293.26 261.6 287.639 261.6 284.475C261.6 281.341 262.552 279.283 262.552 279.283C262.552 279.283 260.894 278.607 260.894 277.102C260.894 275.536 262.153 272.679 263.136 272.74C264.979 272.894 264.487 274.092 264.948 274.123C265.409 274.153 265.747 270.559 271.921 270.437C272.72 270.467 278.341 270.959 279.447 271.512Z" fill="#FFA982"/>
<path d="M277.02 278.548C276.866 278.548 276.712 278.425 276.682 278.272C276.682 278.241 276.497 277.442 275.514 276.951C274.409 276.398 272.443 276.121 272.412 276.121C272.228 276.091 272.105 275.937 272.136 275.753C272.166 275.569 272.32 275.446 272.504 275.476C272.596 275.476 274.593 275.784 275.791 276.367C277.112 277.012 277.327 278.118 277.327 278.18C277.357 278.364 277.235 278.548 277.05 278.579C277.05 278.548 277.02 278.548 277.02 278.548Z" fill="#001A5B"/>
<path d="M271.982 286.626L277.91 289.513C277.91 289.513 276.467 291.295 274.961 291.019C271.583 290.374 271.982 286.626 271.982 286.626Z" fill="white"/>
<path d="M269.524 281.558C269.371 282.172 270.169 282.94 271.367 283.278C272.565 283.585 273.64 283.34 273.825 282.725C273.978 282.111 273.18 281.343 271.982 281.005C270.784 280.667 269.709 280.913 269.524 281.558Z" fill="#F2836D"/>
<path d="M279.14 284.384C278.955 284.906 279.416 285.52 280.184 285.766C280.921 286.012 281.689 285.827 281.873 285.305C282.058 284.783 281.597 284.169 280.829 283.923C280.061 283.646 279.293 283.861 279.14 284.384Z" fill="#F2836D"/>
<path d="M264.671 271.665C264.671 271.665 264.702 272.863 264.487 274.245C264.333 275.167 264.026 276.181 264.303 277.286C264.548 278.239 266.146 278.392 266.791 277.379C267.067 276.918 269.77 273.785 269.77 273.785C269.77 273.785 265.009 271.757 264.671 271.665Z" fill="#2E2E47"/>
<path d="M275.576 280.298C274.01 280.206 272.474 278.946 272.382 278.885C272.228 278.762 272.228 278.547 272.351 278.424C272.474 278.271 272.689 278.271 272.812 278.363C272.812 278.363 274.255 279.53 275.576 279.622C275.76 279.622 275.914 279.776 275.883 279.96C275.914 280.144 275.76 280.298 275.576 280.298Z" fill="#001A5B"/>
<path d="M281.566 282.264C281.535 282.264 281.535 282.264 281.566 282.264C280.061 282.172 279.17 281.68 279.139 281.649C278.986 281.557 278.924 281.373 279.016 281.189C279.109 281.035 279.293 280.974 279.477 281.066C279.508 281.066 280.307 281.496 281.627 281.588C281.812 281.588 281.965 281.772 281.935 281.957C281.873 282.141 281.72 282.264 281.566 282.264Z" fill="#001A5B"/>
<path d="M273.856 279.591C273.856 279.591 272.781 280.574 273.672 281.25C274.562 281.925 275.392 280.297 275.084 280.021C274.777 279.744 273.856 279.591 273.856 279.591Z" fill="#001A5B"/>
<path d="M279.907 281.803C279.907 281.803 278.863 282.786 279.661 283.4C280.46 284.014 281.351 282.417 281.074 282.171C280.767 281.895 279.907 281.803 279.907 281.803Z" fill="#001A5B"/>
<path d="M275.207 286.472C275.207 286.472 270.753 285.459 271.091 286.042C271.429 286.626 274.501 288.131 274.961 287.978C275.914 287.701 276.282 286.657 275.207 286.472Z" fill="#2E2E47"/>
<path d="M277.357 287.301C277.357 287.301 280.091 288.837 279.323 289.359C278.309 290.035 276.436 289.021 276.19 288.622C275.698 287.885 276.466 286.81 277.357 287.301Z" fill="#2E2E47"/>
<path d="M277.081 287.24C276.252 287.24 275.054 286.994 274.654 286.441C274.532 286.288 274.562 286.073 274.716 285.98C274.869 285.858 275.084 285.888 275.177 286.042C275.484 286.441 276.989 286.687 277.542 286.533C278.218 286.318 278.371 285.98 277.972 284.475C277.573 282.97 277.972 279.991 279.293 279.192C280.644 278.362 282.426 279.929 282.487 279.991C282.61 280.113 282.641 280.328 282.518 280.451C282.395 280.574 282.18 280.605 282.057 280.482C281.658 280.113 280.399 279.284 279.661 279.745C278.709 280.328 278.279 282.878 278.648 284.291C278.986 285.55 279.17 286.718 277.757 287.148C277.603 287.209 277.358 287.24 277.081 287.24Z" fill="#001A5B"/>
<path d="M268.357 274.861C268.357 274.861 271.644 273.386 274.746 273.816C277.849 274.247 279.63 275.813 282.272 276.243C284.944 276.673 286.234 276.581 287.893 274.185C289.552 271.789 288.2 264.847 284.484 263.465C280.767 262.082 275.699 263.25 273.456 262.42C271.214 261.591 270.907 259.84 270.446 261.437C269.985 263.035 270.477 263.649 270.477 263.649C270.477 263.649 265.193 261.468 263.596 263.864C261.999 266.26 260.401 273.939 260.279 274.523C260.156 275.076 261.292 272.956 263.35 272.588C265.47 272.25 268.357 274.861 268.357 274.861Z" fill="#2E2E47"/>
<path d="M260.924 296.394C260.924 296.394 254.596 287.763 253.122 284.814C251.647 281.865 249.681 281.005 247.132 281.343C244.582 281.68 240.773 286.042 240.773 288.684C240.743 291.326 255.487 303.797 257.269 303.982C259.05 304.166 268.173 303.214 268.91 301.125C269.678 299.036 270.231 297.162 268.757 296.425C267.282 295.657 260.924 296.394 260.924 296.394Z" fill="#001A5B"/>
<path d="M220.07 424.916C219.855 424.916 219.732 424.732 219.732 424.548C219.732 424.394 220.715 410.571 221.084 406.947C221.145 406.271 221.575 404.827 222.22 402.892L222.159 402.953C222.036 403.076 210.394 416.162 204.251 420.524C204.097 420.616 203.882 420.585 203.79 420.432C203.698 420.278 203.729 420.063 203.882 419.971C209.78 415.793 220.807 403.506 221.637 402.554C221.975 401.356 226.183 386.304 226.797 381.942C227.35 378.072 231.988 371.56 233.401 371.007C233.709 370.884 233.893 371.007 233.985 371.068C234.261 371.283 234.2 371.713 234.139 372.051C233.862 373.464 231.651 379.27 229.101 385.997C225.753 394.874 221.944 404.919 221.729 406.977C221.36 410.602 220.408 424.425 220.377 424.579C220.408 424.794 220.254 424.916 220.07 424.916ZM233.524 371.682C232.388 372.297 227.995 378.318 227.442 382.034C226.766 386.581 222.435 402.124 222.251 402.8L222.22 402.861C223.633 398.591 226.152 391.925 228.487 385.813C230.913 379.393 233.217 373.311 233.494 371.959C233.494 371.836 233.524 371.744 233.524 371.682Z" fill="#001A5B"/>
<path d="M222.159 396.534C222.128 396.534 222.097 396.534 222.066 396.534C221.882 396.472 221.79 396.288 221.851 396.134L227.995 374.816C228.056 374.632 228.241 374.54 228.394 374.601C228.579 374.662 228.671 374.847 228.609 375L222.466 396.318C222.435 396.441 222.282 396.534 222.159 396.534Z" fill="#001A5B"/>
<path d="M246.18 378.257C245.996 378.257 245.811 378.226 245.627 378.196C245.013 378.042 244.798 377.643 244.705 377.335C244.368 376.199 245.105 373.711 253.429 364.772C253.368 364.803 253.306 364.833 253.275 364.864C250.204 366.891 245.074 370.27 242.033 371.1C241.695 371.192 241.081 371.346 240.897 370.946C240.743 370.578 240.528 370.117 247.593 365.294C250.48 363.328 253.398 361.424 254.258 360.901L252.293 356.079C252.231 355.925 248.115 342.256 247.562 340.29C247.009 338.324 237.057 298.637 236.934 298.237C236.903 298.053 236.995 297.869 237.18 297.838C237.364 297.807 237.548 297.899 237.579 298.084C237.671 298.483 247.654 338.17 248.207 340.136C248.76 342.102 252.876 355.741 252.907 355.894L255.088 361.209L254.842 361.362C249.159 364.987 243.047 369.195 241.757 370.547C241.787 370.547 241.818 370.516 241.849 370.516C244.798 369.687 250.081 366.216 252.907 364.373C255.241 362.837 255.241 362.837 255.487 363.082C255.518 363.113 255.671 363.328 255.487 363.574C255.395 363.697 255.088 364.035 254.473 364.68C252.078 367.229 244.736 375.032 245.351 377.182C245.381 377.305 245.473 377.489 245.811 377.581C248.76 378.38 253.951 369.502 255.702 366.001C255.794 365.847 255.979 365.755 256.163 365.847C256.316 365.939 256.409 366.123 256.316 366.308C255.641 367.506 250.173 378.257 246.18 378.257Z" fill="white"/>
<path d="M223.817 351.379C223.664 351.379 223.541 351.287 223.48 351.133C223.449 350.949 219.363 333.87 218.596 330.46C217.828 327.05 214.94 309.971 214.909 309.787C214.879 309.603 215.002 309.418 215.186 309.388C215.37 309.357 215.555 309.48 215.585 309.664C215.616 309.848 218.503 326.927 219.271 330.306C220.039 333.716 224.094 350.795 224.125 350.949C224.155 351.133 224.063 351.317 223.879 351.348C223.879 351.379 223.848 351.379 223.817 351.379Z" fill="white"/>
<path d="M267.682 343.639C267.62 343.639 267.559 343.608 267.498 343.578C267.344 343.486 267.313 343.27 267.405 343.117C267.436 343.055 271.675 336.697 273.149 332.274C274.808 327.297 275.699 323.335 275.699 321.062C275.699 320.877 275.853 320.724 276.037 320.724C276.221 320.724 276.375 320.877 276.375 321.062C276.405 324.072 274.992 328.925 273.794 332.489C272.289 336.973 268.143 343.209 267.958 343.486C267.897 343.578 267.805 343.639 267.682 343.639Z" fill="white"/>
<path d="M256.378 302.23C256.378 302.23 255.211 301.923 254.934 302.23C254.688 302.537 253.398 318.48 253.398 321.49C253.398 324.531 252.63 341.365 252.968 341.518C253.306 341.672 254.566 341.518 254.627 341.303C254.688 341.088 255.026 321.552 255.211 319.125C255.426 316.698 256.378 302.23 256.378 302.23Z" fill="white"/>
<path d="M258.589 302.692C258.589 302.692 257.391 302.538 257.146 302.784C256.9 303.061 256.685 316.945 256.869 319.587C257.053 322.198 257.391 336.85 257.729 336.973C258.067 337.096 259.326 336.85 259.357 336.666C259.419 336.482 258.466 319.525 258.497 317.406C258.558 315.317 258.589 302.692 258.589 302.692Z" fill="white"/>
<path d="M296.556 411.585C296.556 411.585 297.754 417.667 299.075 418.435C300.396 419.203 305.372 422.029 307.153 424.21C308.935 426.391 312.621 435.883 312.099 435.852C311.546 435.791 310.993 434.961 310.993 434.961C310.993 434.961 312.682 438.463 312.283 439.231L311.362 439.569C311.362 439.569 311.362 440.706 310.44 441.044C309.519 441.382 304.972 434.378 304.727 434.47C304.512 434.562 308.874 440.429 307.676 441.136C306.478 441.842 298.983 430.077 298.153 431.091C297.324 432.105 300.426 438.003 298.737 439.938C297.047 441.873 296.648 437.88 296.095 436.344C295.512 434.839 290.873 426.913 289.983 424.364C289.122 421.845 287.034 415.916 288.047 413.797C289.061 411.708 295.604 410.264 296.556 411.585Z" fill="#FFC7AD"/>
</svg>
