<svg width="124" height="621" viewBox="0 0 124 621" fill="none" xmlns="http://www.w3.org/2000/svg">
<g filter="url(#filter0_ddd_7873_103532)">
<rect x="26" y="21" width="72" height="72" rx="36" fill="#FFB300"/>
<path d="M65.2705 70H61.3525V54.3779C61.3525 53.8577 61.3581 53.3376 61.3691 52.8174C61.3802 52.2972 61.3913 51.7881 61.4023 51.29C61.4245 50.792 61.4521 50.3161 61.4854 49.8623C61.2529 50.1169 60.9652 50.3936 60.6221 50.6924C60.29 50.9912 59.9359 51.3011 59.5596 51.6221L56.7705 53.8467L54.8115 51.373L62.0166 45.7285H65.2705V70Z" fill="black" fill-opacity="0.87"/>
</g>
<rect x="27.5" y="154.5" width="69" height="69" rx="34.5" fill="white"/>
<path d="M70.2344 202H53.7988V199.062L60.0908 192.687C61.3083 191.447 62.3099 190.379 63.0957 189.482C63.8815 188.575 64.4626 187.717 64.8389 186.909C65.2262 186.101 65.4199 185.221 65.4199 184.27C65.4199 183.096 65.0824 182.211 64.4072 181.613C63.7321 181.005 62.8411 180.7 61.7344 180.7C60.6829 180.7 59.709 180.91 58.8125 181.331C57.9271 181.741 57.0085 182.327 56.0566 183.091L53.915 180.518C54.5902 179.942 55.3096 179.416 56.0732 178.94C56.848 178.465 57.7113 178.088 58.6631 177.812C59.6149 177.524 60.6995 177.38 61.917 177.38C63.4554 177.38 64.7835 177.657 65.9014 178.21C67.0192 178.752 67.877 179.51 68.4746 180.484C69.0833 181.458 69.3877 182.593 69.3877 183.888C69.3877 185.194 69.1276 186.4 68.6074 187.507C68.0872 188.614 67.3457 189.709 66.3828 190.794C65.4199 191.868 64.2744 193.035 62.9463 194.297L58.7461 198.397V198.58H70.2344V202Z" fill="#9E9E9E"/>
<rect x="27.5" y="154.5" width="69" height="69" rx="34.5" stroke="#9E9E9E" stroke-width="3"/>
<rect x="27.5" y="286.5" width="69" height="69" rx="34.5" fill="white"/>
<path d="M69.3047 315.273C69.3047 316.369 69.0833 317.321 68.6406 318.129C68.1979 318.937 67.5892 319.601 66.8145 320.121C66.0508 320.63 65.1654 320.995 64.1582 321.217V321.333C66.0951 321.576 67.556 322.185 68.541 323.159C69.5371 324.133 70.0352 325.423 70.0352 327.027C70.0352 328.433 69.6976 329.689 69.0225 330.796C68.3473 331.892 67.3125 332.755 65.918 333.386C64.5234 334.017 62.7305 334.332 60.5391 334.332C59.222 334.332 57.999 334.227 56.8701 334.017C55.7523 333.806 54.6898 333.469 53.6826 333.004V329.534C54.7119 330.043 55.8076 330.436 56.9697 330.713C58.1318 330.99 59.2331 331.128 60.2734 331.128C62.2988 331.128 63.7432 330.752 64.6064 329.999C65.4697 329.235 65.9014 328.184 65.9014 326.845C65.9014 325.981 65.6745 325.273 65.2207 324.72C64.778 324.166 64.0863 323.751 63.1455 323.475C62.2158 323.198 61.015 323.06 59.543 323.06H57.4014V319.922H59.5596C60.9652 319.922 62.0941 319.756 62.9463 319.424C63.7985 319.081 64.4128 318.61 64.7891 318.013C65.1764 317.415 65.3701 316.718 65.3701 315.921C65.3701 314.881 65.0326 314.073 64.3574 313.497C63.6823 312.91 62.6807 312.617 61.3525 312.617C60.5335 312.617 59.7865 312.711 59.1113 312.899C58.4473 313.088 57.833 313.326 57.2686 313.613C56.7041 313.901 56.1673 314.211 55.6582 314.543L53.7822 311.837C54.7008 311.151 55.7965 310.57 57.0693 310.094C58.3421 309.618 59.8252 309.38 61.5186 309.38C64.0088 309.38 65.929 309.917 67.2793 310.99C68.6296 312.053 69.3047 313.48 69.3047 315.273Z" fill="#9E9E9E"/>
<rect x="27.5" y="286.5" width="69" height="69" rx="34.5" stroke="#9E9E9E" stroke-width="3"/>
<rect x="27.5" y="418.5" width="69" height="69" rx="34.5" fill="white"/>
<path d="M71.1143 460.671H67.8271V466H63.9756V460.671H52.9355V457.716L64.0254 441.662H67.8271V457.434H71.1143V460.671ZM63.9756 457.434V451.407C63.9756 450.909 63.9811 450.406 63.9922 449.896C64.0143 449.376 64.0365 448.878 64.0586 448.402C64.0807 447.926 64.1029 447.489 64.125 447.091C64.1471 446.681 64.1637 446.344 64.1748 446.078H64.042C63.8317 446.521 63.5993 446.975 63.3447 447.439C63.0902 447.893 62.819 448.336 62.5312 448.768L56.5547 457.434H63.9756Z" fill="#9E9E9E"/>
<rect x="27.5" y="418.5" width="69" height="69" rx="34.5" stroke="#9E9E9E" stroke-width="3"/>
<rect x="27.5" y="550.5" width="69" height="69" rx="34.5" fill="white"/>
<path d="M62.0498 582.826C63.6104 582.826 64.9827 583.108 66.167 583.673C67.3623 584.226 68.292 585.045 68.9561 586.13C69.6201 587.203 69.9521 588.521 69.9521 590.081C69.9521 591.785 69.5924 593.257 68.873 594.497C68.1536 595.726 67.0967 596.672 65.7021 597.336C64.3076 598 62.6087 598.332 60.6055 598.332C59.3327 598.332 58.1429 598.221 57.0361 598C55.9404 597.779 54.9941 597.447 54.1973 597.004V593.484C55.0273 593.949 56.0234 594.331 57.1855 594.63C58.3477 594.918 59.46 595.062 60.5225 595.062C61.6514 595.062 62.6198 594.896 63.4277 594.563C64.2357 594.231 64.8555 593.722 65.2871 593.036C65.7298 592.35 65.9512 591.481 65.9512 590.43C65.9512 589.035 65.5029 587.962 64.6064 587.209C63.721 586.445 62.332 586.063 60.4395 586.063C59.7754 586.063 59.0671 586.124 58.3145 586.246C57.5729 586.357 56.9531 586.479 56.4551 586.611L54.7451 585.599L55.6582 573.729H68.2754V577.165H59.0947L58.5635 583.208C58.9619 583.119 59.4378 583.036 59.9912 582.959C60.5446 582.87 61.2308 582.826 62.0498 582.826Z" fill="#9E9E9E"/>
<rect x="27.5" y="550.5" width="69" height="69" rx="34.5" stroke="#9E9E9E" stroke-width="3"/>
<defs>
<filter id="filter0_ddd_7873_103532" x="0" y="0" width="124" height="124" filterUnits="userSpaceOnUse" color-interpolation-filters="sRGB">
<feFlood flood-opacity="0" result="BackgroundImageFix"/>
<feColorMatrix in="SourceAlpha" type="matrix" values="0 0 0 0 0 0 0 0 0 0 0 0 0 0 0 0 0 0 127 0" result="hardAlpha"/>
<feMorphology radius="4" operator="dilate" in="SourceAlpha" result="effect1_dropShadow_7873_103532"/>
<feOffset dy="5"/>
<feGaussianBlur stdDeviation="11"/>
<feColorMatrix type="matrix" values="0 0 0 0 0 0 0 0 0 0.160784 0 0 0 0 0.403922 0 0 0 0.05 0"/>
<feBlend mode="normal" in2="BackgroundImageFix" result="effect1_dropShadow_7873_103532"/>
<feColorMatrix in="SourceAlpha" type="matrix" values="0 0 0 0 0 0 0 0 0 0 0 0 0 0 0 0 0 0 127 0" result="hardAlpha"/>
<feMorphology radius="2" operator="dilate" in="SourceAlpha" result="effect2_dropShadow_7873_103532"/>
<feOffset dy="12"/>
<feGaussianBlur stdDeviation="8.5"/>
<feColorMatrix type="matrix" values="0 0 0 0 0 0 0 0 0 0.160784 0 0 0 0 0.403922 0 0 0 0.05 0"/>
<feBlend mode="normal" in2="effect1_dropShadow_7873_103532" result="effect2_dropShadow_7873_103532"/>
<feColorMatrix in="SourceAlpha" type="matrix" values="0 0 0 0 0 0 0 0 0 0 0 0 0 0 0 0 0 0 127 0" result="hardAlpha"/>
<feMorphology radius="4" operator="erode" in="SourceAlpha" result="effect3_dropShadow_7873_103532"/>
<feOffset dy="7"/>
<feGaussianBlur stdDeviation="4"/>
<feColorMatrix type="matrix" values="0 0 0 0 0 0 0 0 0 0.161667 0 0 0 0 0.404167 0 0 0 0.05 0"/>
<feBlend mode="normal" in2="effect2_dropShadow_7873_103532" result="effect3_dropShadow_7873_103532"/>
<feBlend mode="normal" in="SourceGraphic" in2="effect3_dropShadow_7873_103532" result="shape"/>
</filter>
</defs>
</svg>
