<svg width="222" height="183" viewBox="0 0 222 183" fill="none" xmlns="http://www.w3.org/2000/svg">
<path d="M146.846 35.8094C149.874 41.6945 151.144 48.8194 150.496 56.2833C149.849 63.7472 147.313 71.2148 143.208 77.7419C139.103 84.269 133.615 89.5626 127.436 92.9531C121.258 96.3437 114.667 97.679 108.497 96.7903C102.327 95.9016 96.8555 92.8288 92.7736 87.9603C88.6917 83.0919 86.183 76.6464 85.5647 69.439C84.9464 62.2316 86.2464 54.5859 89.3001 47.4686C92.3539 40.3513 97.0243 34.0821 102.721 29.4537C106.504 26.3781 110.646 24.1027 114.912 22.7576C119.177 21.4124 123.482 21.0239 127.58 21.6141C131.678 22.2044 135.489 23.7619 138.794 26.1976C142.1 28.6333 144.836 31.8995 146.846 35.8094Z" fill="#FFCB3F"/>
<g opacity="0.1">
<path opacity="0.1" d="M99.8664 27.3937C96.1207 30.4894 92.7895 34.2986 90.0632 38.6036C87.337 42.9085 85.2691 47.6249 83.9779 52.4831C82.6867 57.3412 82.1974 62.2458 82.5381 66.9166C82.8788 71.5874 84.0427 75.9327 85.9632 79.7042C85.9632 79.7042 106.457 64.0336 107.143 51.9128C107.83 39.792 99.8664 27.3937 99.8664 27.3937Z" fill="white"/>
</g>
<path d="M139.139 41.2484C141.43 45.7193 142.387 51.1282 141.89 56.7921C141.392 62.4559 139.463 68.1205 136.345 73.0706C133.228 78.0207 129.061 82.0342 124.373 84.6042C119.684 87.1742 114.683 88.1854 110.002 87.5102C105.321 86.8349 101.169 84.5035 98.0713 80.8103C94.9734 77.1171 93.0682 72.2278 92.5965 66.7599C92.1247 61.2921 93.1075 55.4909 95.4208 50.089C97.734 44.6871 101.274 39.9269 105.593 36.4095C108.469 34.0679 111.619 32.3352 114.863 31.3109C118.107 30.2866 121.381 29.9907 124.497 30.4403C127.613 30.8898 130.511 32.0759 133.023 33.9306C135.536 35.7852 137.614 38.272 139.139 41.2484Z" fill="#FFCB3F"/>
<g opacity="0.2">
<path opacity="0.2" d="M138.983 40.9024C141.242 45.3214 142.178 50.7 141.672 56.3589C141.166 62.0178 139.24 67.7031 136.139 72.6969C133.038 77.6908 128.901 81.769 124.249 84.4167C119.597 87.0643 114.639 88.1625 110.002 87.5727C105.365 86.9829 101.256 84.7314 98.1953 81.1027C95.1343 77.474 93.2579 72.6307 92.8033 67.1847C92.3487 61.7386 93.3362 55.9339 95.6411 50.5039C97.9459 45.0738 101.465 40.2618 105.753 36.6757C108.608 34.2883 111.734 32.5035 114.95 31.4237C118.167 30.3438 121.412 29.99 124.499 30.3827C127.586 30.7754 130.454 31.9067 132.94 33.7119C135.425 35.5171 137.479 37.9606 138.983 40.9024Z" fill="black"/>
</g>
<path d="M140.446 41.8385C142.717 46.2538 143.67 51.5992 143.184 57.1989C142.698 62.7985 140.795 68.4009 137.715 73.2975C134.635 78.1941 130.517 82.165 125.882 84.7081C121.247 87.2511 116.302 88.2521 111.673 87.5844C107.045 86.9167 102.94 84.6104 99.8785 80.957C96.8169 77.3036 94.9358 72.4673 94.4732 67.0597C94.0105 61.6521 94.9871 55.9161 97.2793 50.577C99.5716 45.2378 103.077 40.5355 107.351 37.0645C113.083 32.4104 119.789 30.2987 125.996 31.194C132.202 32.0893 137.4 35.9182 140.446 41.8385Z" fill="#FFCB3F"/>
<g opacity="0.2">
<path opacity="0.2" d="M140.296 41.4937C142.537 45.8575 143.469 51.1728 142.974 56.7675C142.479 62.3622 140.58 67.985 137.517 72.9247C134.454 77.8645 130.364 81.8994 125.765 84.5192C121.165 87.139 116.263 88.226 111.678 87.6428C107.093 87.0596 103.032 84.8323 100.006 81.2427C96.9812 77.653 95.1286 72.8622 94.6828 67.4761C94.2371 62.09 95.2182 56.3505 97.5021 50.9834C99.7861 45.6163 103.27 40.8626 107.514 37.3236C113.204 32.5783 119.855 30.3517 126.003 31.1337C132.151 31.9158 137.292 35.6423 140.296 41.4937Z" fill="white"/>
</g>
<path d="M131.051 84.6101L131.215 84.4379L131.698 83.9318L132.542 83.1708C132.923 82.8393 133.291 82.4839 133.642 82.1067L134.995 80.6894C135.25 80.4205 135.491 80.1334 135.715 79.8303L136.471 78.8808C136.715 78.5378 137.015 78.224 137.256 77.831L138.077 76.621C138.338 76.2078 138.63 75.8142 138.869 75.3714L139.596 74.0328C140.731 71.9756 141.68 69.8075 142.422 67.5709L142.949 65.7058L143.213 64.7632L143.408 63.7717C143.528 63.1208 143.684 62.4494 143.789 61.7787L144.028 59.7778L144.099 59.2474L144.127 58.7277C144.127 58.3781 144.143 58.0283 144.152 57.6686L144.203 56.5992C144.222 56.2294 144.178 55.8904 144.17 55.531C144.128 54.8224 144.114 54.0835 144.047 53.3653L143.763 51.212C143.246 48.2587 142.35 45.4754 141.101 42.9495C139.773 40.4922 138.112 38.3319 136.172 36.5367C135.67 36.1342 135.221 35.781 134.707 35.3387C134.193 34.8965 133.679 34.664 133.17 34.3216C132.918 34.1653 132.678 33.9789 132.414 33.8528C132.15 33.7267 131.868 33.6008 131.614 33.4645L130.814 33.0762L130.409 32.8522L130.002 32.7181L128.394 32.1614C127.856 31.9892 127.299 31.9071 126.763 31.7848L125.971 31.6161C125.698 31.5701 125.429 31.5539 125.17 31.5275L123.62 31.3995C121.681 31.3354 119.708 31.5273 117.739 31.9715C117.287 32.0777 116.844 32.1738 116.415 32.2897C115.987 32.4056 115.578 32.5712 115.174 32.6967L113.986 33.013C113.606 33.1482 113.243 33.3531 112.904 33.4976L111.89 33.9813C111.577 34.1085 111.269 34.2665 110.971 34.4537L109.387 35.3948C108.962 35.6392 108.547 35.9153 108.146 36.2213L107.266 36.8629L106.703 37.2603L106.548 37.4223L106.712 37.2502L107.251 36.8431L108.136 36.1615C108.533 35.851 108.942 35.5684 109.363 35.3153L110.942 34.3442C111.245 34.1618 111.556 34.0006 111.871 33.8617L112.877 33.3682C113.233 33.2234 113.588 33.0086 113.968 32.8734L115.144 32.4474C115.558 32.3118 115.96 32.1363 116.395 32.0303L117.729 31.702C119.71 31.2381 121.696 31.0327 123.648 31.0895L125.217 31.1973C125.477 31.2236 125.762 31.2395 126.029 31.2758L126.828 31.4543C127.363 31.5766 127.92 31.6587 128.468 31.8208L130.094 32.3772L130.508 32.5212C130.646 32.5692 130.772 32.6474 130.901 32.7055L131.7 33.0938C131.965 33.2199 132.246 33.3458 132.517 33.4818C132.789 33.6178 133.021 33.7943 133.29 33.9503C133.799 34.2928 134.338 34.6048 134.844 34.9673C135.351 35.3297 135.785 35.7331 136.316 36.1751C138.283 37.9826 139.962 40.1672 141.297 42.6571C142.564 45.1988 143.475 48.0022 144.002 50.9789L144.277 53.2123C144.344 53.9305 144.357 54.6694 144.39 55.3881C144.398 55.7475 144.44 56.1065 144.421 56.4763L144.377 57.5556L144.335 58.6149L144.315 59.1445L144.243 59.6749L144.004 61.6758C143.897 62.3665 143.741 63.0379 143.611 63.6989L143.417 64.6904C143.335 65.0212 143.229 65.3423 143.15 65.653L142.613 67.5283C141.851 69.777 140.891 71.9575 139.748 74.0306L138.974 75.4198C138.708 75.873 138.416 76.2666 138.167 76.6497L137.346 77.8597C137.098 78.2217 136.833 78.569 136.554 78.8996L135.788 79.8592C135.558 80.1632 135.311 80.4503 135.051 80.7185L133.698 82.1358C133.339 82.5114 132.963 82.8636 132.574 83.1904L131.742 83.9911L131.222 84.4478L131.051 84.6101Z" fill="#263238"/>
<path d="M99.6265 90.7778C99.5325 90.7385 99.4421 90.6918 99.3556 90.6378C99.1441 90.5278 98.8915 90.3873 98.5719 90.2064C98.2523 90.0256 97.8429 89.7733 97.3983 89.4477C96.8775 89.1159 96.3775 88.7491 95.9001 88.349C95.6306 88.1346 95.3458 87.8995 95.0534 87.654C94.761 87.4086 94.4822 87.1308 94.1851 86.8535C93.5622 86.3107 92.9405 85.6934 92.4067 84.967C91.0842 83.4256 89.8936 81.7375 88.8465 79.9191C87.8189 78.081 86.9395 76.1198 86.2169 74.0547C85.9058 73.0979 85.5994 72.1729 85.3812 71.2662C85.2797 70.8233 85.157 70.4023 85.0707 69.9801L84.8319 68.766C84.6657 68.0064 84.5953 67.2755 84.5024 66.6411C84.4125 66.1053 84.3526 65.5573 84.3232 65L84.2504 63.9611C84.2379 63.8437 84.2365 63.7226 84.2464 63.6C84.2794 63.7067 84.3001 63.8202 84.3081 63.938L84.4279 64.9647C84.4708 65.5108 84.5413 66.0477 84.639 66.5729C84.7425 67.1964 84.8235 67.9162 85.0079 68.6752L85.2679 69.8674C85.3542 70.2896 85.4769 70.7106 85.589 71.1426C85.8102 72.0279 86.1196 72.9316 86.446 73.9091C87.1745 75.9526 88.0531 77.8956 89.0738 79.7205C90.1117 81.5354 91.2825 83.2305 92.5764 84.7915C93.1968 85.4832 93.776 86.1444 94.3807 86.6878C94.6323 87.0302 94.9536 87.2642 95.2354 87.5206C95.5172 87.7771 95.8049 87.9908 96.0639 88.2162C96.5711 88.6778 97.0704 89.0015 97.5302 89.3478C97.9901 89.6941 98.3554 89.9372 98.6796 90.1498L99.4103 90.636C99.4893 90.6708 99.562 90.7184 99.6265 90.7778Z" fill="white"/>
<path d="M104.16 33.2397C103.932 33.4371 103.696 33.6175 103.454 33.7784L102.637 34.3891C102.313 34.6423 101.95 34.9093 101.593 35.2067C101.236 35.5041 100.772 35.8805 100.314 36.2873C99.856 36.6941 99.3839 37.1266 98.888 37.5939C96.7418 39.6576 94.7842 41.954 93.0856 44.4007C92.6957 44.9692 92.2764 45.5422 91.9974 46.0155C91.7185 46.4887 91.3864 47.0014 91.1216 47.4489C90.8568 47.8965 90.6498 48.2882 90.4466 48.6403C90.2435 48.9923 90.0885 49.2978 89.9618 49.552C89.8371 49.8138 89.697 50.0733 89.5426 50.3285C89.6377 50.0649 89.7531 49.801 89.8876 49.5399C90.0255 49.23 90.1791 48.9216 90.3475 48.6164C90.5308 48.2596 90.7424 47.8515 90.9975 47.4132C91.2527 46.9749 91.531 46.4783 91.8581 45.9586C92.1851 45.4389 92.4827 44.9237 92.8822 44.3459C94.5865 41.8706 96.5659 39.5526 98.7423 37.4833C99.2427 36.9995 99.7046 36.553 100.198 36.1721C100.691 35.7912 101.096 35.4239 101.501 35.1033C101.907 34.7828 102.27 34.5158 102.561 34.3069C102.834 34.0959 103.112 33.899 103.394 33.7173L104.16 33.2397Z" fill="white"/>
<path d="M139.355 85.2097C139.226 85.3982 139.077 85.5743 138.915 85.7323C138.599 86.0425 138.139 86.4936 137.584 87.0388C136.098 88.4671 134.523 89.754 132.889 90.8737C131.258 91.9896 129.582 92.9391 127.891 93.7047C127.24 93.9829 126.721 94.1953 126.355 94.3231C126.167 94.3975 125.981 94.451 125.798 94.4829C125.985 94.3805 126.175 94.2937 126.364 94.2235C126.72 94.0806 127.237 93.8438 127.887 93.5411C131.242 91.9451 134.513 89.6947 137.502 86.926C138.057 86.3808 138.517 85.9297 138.823 85.6289C138.993 85.4738 139.171 85.3334 139.355 85.2097Z" fill="white"/>
<path d="M146.841 35.801C146.841 35.801 146.737 35.6592 146.535 35.3851C146.333 35.1109 146.115 34.5865 145.748 34.018C144.695 32.3051 143.494 30.7339 142.159 29.3231C141.192 28.3049 140.155 27.3762 139.054 26.5433C137.754 25.5441 136.361 24.6915 134.893 23.9945C131.331 22.2578 127.392 21.3923 123.284 21.4439C120.892 21.4879 118.464 21.8509 116.045 22.5259C113.423 23.2373 110.829 24.3177 108.326 25.7419C104.235 28.0492 100.436 31.1976 97.1428 35.0093C95.9895 36.3583 94.9011 37.7789 93.8845 39.262C89.6044 45.6026 86.8286 52.954 85.9038 60.3979C85.6597 62.3464 85.5475 64.2869 85.5682 66.2012C85.5746 68.1433 85.725 70.0518 86.0175 71.9062C87.1876 79.5752 90.5665 86.1468 95.6496 90.6395C96.2647 91.2014 96.9301 91.6944 97.5789 92.1879C98.2278 92.6814 98.9173 93.1159 99.6215 93.5019C100.999 94.3118 102.451 94.9788 103.963 95.4963C109.748 97.5054 116.23 97.3509 122.597 95.0522C124.089 94.4951 125.565 93.8306 127.016 93.0627C131.158 90.8498 135.024 87.7742 138.393 84.0119C140.447 81.7267 142.294 79.2032 143.891 76.498C145.376 74.0028 146.633 71.3644 147.637 68.6361C149.382 63.9487 150.392 59.073 150.612 54.268C150.758 50.6421 150.457 47.1025 149.718 43.7545C149.245 41.6465 148.598 39.6278 147.785 37.7231C147.512 37.0556 147.27 36.5897 147.118 36.2467C146.967 35.9037 146.889 35.7515 146.889 35.7515C146.889 35.7515 147.246 36.3975 147.83 37.6929C148.664 39.5876 149.326 41.6035 149.805 43.7135C150.163 45.2379 150.421 46.8096 150.577 48.4169C150.77 50.3234 150.826 52.2723 150.747 54.2451C150.537 59.0969 149.523 64.0232 147.76 68.7581C144.437 77.7364 138.559 85.5536 131.244 90.7218C129.904 91.6995 128.522 92.5775 127.11 93.3495C125.649 94.1182 124.165 94.7861 122.664 95.3492C116.225 97.6953 109.664 97.8587 103.814 95.8185C102.291 95.2922 100.826 94.6226 99.4321 93.8155C98.7209 93.4201 98.053 92.9464 97.3756 92.4826C96.6981 92.0188 96.0544 91.4866 95.4393 90.9247C92.8916 88.6812 90.754 85.8996 89.11 82.6883C87.4605 79.4823 86.3182 75.8938 85.7263 72.0587C85.4362 70.1845 85.2885 68.2567 85.2847 66.2956C85.2623 64.3719 85.3731 62.4218 85.6159 60.4635C86.5591 52.942 89.3764 45.5175 93.7143 39.1219C94.7402 37.6356 95.8373 36.2116 96.9985 34.8589C100.316 31.0174 104.143 27.8451 108.265 25.5218C110.778 24.1146 113.378 23.0441 116.005 22.3342C118.437 21.6631 120.878 21.3094 123.281 21.2801C127.417 21.2208 131.384 22.0855 134.972 23.8285C136.443 24.5411 137.836 25.4099 139.136 26.4255C140.239 27.2588 141.276 28.1942 142.237 29.2246C143.56 30.6574 144.739 32.2591 145.757 34.0081C146.519 35.1348 146.841 35.801 146.841 35.801Z" fill="#263238"/>
<path d="M52.3532 153.351C41.5626 148.077 36.3842 134.496 40.7302 123.06C45.0762 111.625 57.3059 106.641 68.0745 111.925C78.8431 117.208 84.0435 130.78 79.7004 142.229C75.3574 153.678 63.1137 158.653 52.3532 153.351Z" fill="#FFCB3F"/>
<g opacity="0.2">
<path opacity="0.2" d="M52.4689 153.4C41.8953 147.829 36.8371 133.986 41.1154 122.523C45.3937 111.06 57.3935 106.295 67.9455 111.876C78.4975 117.456 83.5774 131.29 79.3019 142.767C75.0264 154.243 63.013 158.999 52.4689 153.4Z" fill="black"/>
</g>
<path d="M40.951 120.052C46.2222 108.149 59.7976 102.447 71.2727 107.316C82.7477 112.185 87.7769 125.782 82.5057 137.685C77.2346 149.588 63.6591 155.291 52.1841 150.422C40.709 145.552 35.6798 131.956 40.951 120.052Z" fill="#FFCB3F"/>
<g opacity="0.1">
<path opacity="0.1" d="M77.0271 146.828C79.0855 144.808 80.7143 142.133 81.7494 139.071C85.5912 127.864 80.4435 114.209 70.2452 108.594C66.3368 106.406 62.0027 105.711 57.7373 106.589C57.0315 113.016 57.3799 119.525 58.7593 125.684C59.9558 131.759 62.847 136.978 66.8778 140.339C69.7826 142.682 73.3375 145.969 77.0271 146.828Z" fill="white"/>
</g>
<path d="M56.3533 144.354C48.0788 140.291 44.0327 129.997 47.3092 121.355C50.5858 112.713 59.9479 109.021 68.2224 113.084C76.4969 117.147 80.546 127.454 77.2665 136.083C73.9871 144.712 64.6307 148.43 56.3533 144.354Z" fill="#FFCB3F"/>
<g opacity="0.2">
<path opacity="0.2" d="M56.4399 144.391C48.3319 140.099 44.3795 129.603 47.6053 120.941C50.831 112.278 60.0171 108.754 68.1251 113.046C76.2331 117.337 80.1883 127.846 76.9597 136.496C73.7311 145.145 64.5507 148.695 56.4399 144.391Z" fill="black"/>
</g>
<path d="M55.6411 144.853C47.5469 140.901 43.5976 130.884 46.7698 122.532C49.9421 114.179 59.0629 110.59 67.1379 114.565C75.2129 118.539 79.1703 128.539 76.001 136.904C72.8317 145.27 63.7161 148.828 55.6411 144.853Z" fill="#FFCB3F"/>
<g opacity="0.2">
<path opacity="0.2" d="M55.731 144.891C47.7997 140.716 43.942 130.502 47.0651 122.129C50.1883 113.757 59.1375 110.332 67.05 114.53C74.9625 118.727 78.8283 128.924 75.7079 137.31C72.5876 145.696 63.6435 149.089 55.731 144.891Z" fill="white"/>
</g>
<path d="M57.3355 134.003C56.3144 133.577 55.506 132.659 55.0843 131.449C54.6626 130.238 54.6614 128.832 55.0809 127.531L52.9248 126.482L53.5417 124.875L54.3379 124.363L54.0584 125.133L55.6669 125.895C56.4243 124.145 57.6407 122.727 59.1013 121.891L60.7138 123.721C59.5056 124.392 58.4752 125.51 57.7781 126.906L61.6434 128.79C62.9915 126.873 64.57 124.901 67.2538 126.204C68.2725 126.621 69.0806 127.53 69.503 128.733C69.9255 129.936 69.9283 131.337 69.5108 132.631L71.6948 133.698L71.3417 134.629L71.8835 134.89L71.0635 135.238L68.9214 134.197C68.4543 135.172 67.8051 136.01 67.0329 136.633L67.0534 137.058L66.0498 137.398L65.7914 137.103L64.612 135.811L64.5136 135.694C64.8579 135.506 65.1893 135.278 65.503 135.014C66.0116 134.538 66.4641 133.975 66.845 133.345L62.9407 131.448C61.5862 133.281 60.0083 135.31 57.3355 134.003ZM67.3972 131.665C67.5692 131.091 67.5604 130.477 67.3726 129.949C67.1848 129.422 66.8322 129.02 66.3875 128.827C65.4659 128.38 64.7208 129.015 63.9619 129.973L67.3972 131.665ZM58.1277 131.484C59.0773 131.948 59.8445 131.304 60.6169 130.296L57.1984 128.626C57.0278 129.178 57.0271 129.771 57.1964 130.287C57.3657 130.804 57.6928 131.207 58.1132 131.418L58.1277 131.484Z" fill="#FFCB3F"/>
<path d="M64.3241 143.183C64.3241 143.183 63.8715 143.29 63.0503 143.425C61.8877 143.623 60.7168 143.64 59.5633 143.476C57.8506 143.26 56.1876 142.694 54.6364 141.8C53.7261 141.264 52.8578 140.625 52.0416 139.889C51.1802 139.087 50.3858 138.175 49.6698 137.166C48.2654 135.219 47.1605 132.944 46.4092 130.453C45.8034 128.42 45.6203 126.198 45.877 123.999C46.0697 122.519 46.4508 121.08 47.0049 119.739C47.2036 119.266 47.3848 118.916 47.4848 118.658C47.5849 118.4 47.6601 118.281 47.6467 118.273C47.6334 118.264 47.5715 118.391 47.4448 118.632C47.3181 118.873 47.1339 119.21 46.9115 119.678C46.3179 121.017 45.9038 122.468 45.6875 123.965C45.3947 126.208 45.5625 128.485 46.1741 130.568C46.928 133.109 48.0509 135.427 49.4854 137.403C50.2117 138.439 51.0257 139.368 51.9135 140.174C54.1446 142.204 56.7739 143.434 59.5447 143.742C60.711 143.873 61.8919 143.813 63.0595 143.564C63.38 143.505 63.6978 143.418 64.0106 143.302C64.1185 143.283 64.2242 143.242 64.3241 143.183Z" fill="#263238"/>
<path d="M46.4517 142.33C46.4517 142.33 45.6403 141.317 44.4905 139.431L44.0479 138.689C43.8906 138.427 43.7498 138.129 43.5933 137.838C43.2727 137.259 42.9816 136.595 42.6568 135.903C41.9939 134.37 41.4201 132.761 40.9435 131.102C40.4829 129.432 40.1236 127.721 39.8711 125.994C39.7726 125.204 39.6653 124.446 39.6221 123.732C39.5984 123.384 39.559 123.042 39.5465 122.702L39.514 121.769C39.4619 119.364 39.6372 117.938 39.5879 117.917C39.5289 118.24 39.4875 118.575 39.4643 118.918C39.4191 119.307 39.3951 119.707 39.3924 120.112C39.3611 120.646 39.352 121.187 39.365 121.733L39.3853 122.686C39.3944 123.012 39.426 123.358 39.4454 123.723C39.4968 124.488 39.5744 125.255 39.6778 126.02C39.9252 127.767 40.284 129.498 40.7485 131.186C41.2261 132.873 41.8143 134.501 42.5023 136.041C42.8009 136.715 43.1211 137.367 43.4614 137.995C43.6256 138.283 43.7743 138.578 43.9316 138.84L44.3854 139.591C44.6707 140.071 44.9665 140.46 45.2095 140.814C45.4197 141.113 45.6383 141.397 45.8642 141.665C46.0518 141.906 46.2481 142.128 46.4517 142.33Z" fill="#263238"/>
<path d="M68.2708 108.563C68.2708 108.563 69.0892 108.948 70.379 109.621C72.0666 110.514 73.6607 111.644 75.1328 112.989C76.585 114.34 77.9027 115.902 79.0611 117.644C79.9562 118.989 80.4469 119.931 80.4893 119.913C80.4122 119.67 80.3103 119.443 80.186 119.236C79.9873 118.818 79.6594 118.238 79.2325 117.528C78.097 115.727 76.7803 114.123 75.3123 112.754C73.8428 111.386 72.2295 110.271 70.5114 109.435C69.9948 109.173 69.4642 108.953 68.9224 108.775C68.7146 108.67 68.4957 108.599 68.2708 108.563Z" fill="white"/>
<path d="M62.4128 108.951C62.8847 109.289 63.4077 109.524 63.9603 109.646C64.4789 109.884 65.0366 110.006 65.6084 110.008C65.1417 109.674 64.6202 109.452 64.0696 109.352C63.5505 109.099 62.9897 108.963 62.4128 108.951Z" fill="white"/>
<path d="M76.0624 140.157C76.0624 140.157 76.1937 139.986 76.4013 139.639C76.5278 139.436 76.6416 139.219 76.7415 138.991C76.8913 138.701 77.0275 138.398 77.1493 138.085C77.476 137.27 77.7441 136.415 77.9502 135.532C78.1683 134.448 78.3039 133.337 78.355 132.216C78.3982 131.088 78.3563 129.957 78.2298 128.84C78.1144 127.939 77.9333 127.055 77.6891 126.202C77.6013 125.869 77.4956 125.545 77.3728 125.232C77.2951 124.984 77.2025 124.746 77.0959 124.518C77.0269 124.313 76.9315 124.125 76.814 123.964C76.814 123.964 77.1475 124.826 77.5166 126.29C77.7413 127.154 77.906 128.044 78.0087 128.949C78.1226 130.047 78.1561 131.157 78.1086 132.264C78.0451 133.367 77.9054 134.46 77.6914 135.528C77.4995 136.395 77.2544 137.239 76.9588 138.052C76.4755 139.363 76.0208 140.117 76.0624 140.157Z" fill="white"/>
<path d="M176.528 113.291C168.942 118.635 159.84 130.329 151.93 144.87C144.02 159.411 139.357 173.378 139.176 182.522L135.804 188.766L143.044 192.457C150.922 196.406 167.119 181.393 179.306 158.853C191.492 136.313 195.012 114.77 187.198 110.772L179.88 107.021L176.528 113.291Z" fill="#FFCB3F"/>
<g opacity="0.3">
<path opacity="0.3" d="M176.567 113.308C168.995 118.685 159.899 130.408 151.986 144.962C144.072 159.516 139.396 173.476 139.196 182.599L135.823 188.848L143.032 192.484C150.875 196.373 167.05 181.296 179.242 158.736C191.433 136.176 194.986 114.666 187.206 110.727L179.921 107.032L176.567 113.308Z" fill="black"/>
</g>
<path d="M171.177 154.443C158.999 177.025 142.772 192.074 134.92 188.072C127.067 184.069 130.588 162.521 142.769 139.921C154.95 117.32 171.174 102.29 179.026 106.292C186.879 110.294 183.359 131.888 171.177 154.443Z" fill="#FFCB3F"/>
<g opacity="0.1">
<path opacity="0.1" d="M140.377 162.777C143.789 159.633 147.063 156.28 150.174 152.743C160.879 139.886 167.264 123.057 166.21 108.671C158.498 113.925 149.042 124.99 141.13 138.87C133.575 152.177 129.109 165.015 128.448 173.912C132.49 170.298 136.453 166.576 140.377 162.777Z" fill="white"/>
</g>
<path d="M165.674 150.674C156.269 167.947 146.161 180.641 140.894 177.986C135.316 175.156 137.279 158.306 146.658 140.998C156.037 123.69 167.889 111.812 173.137 114.486C174.427 115.136 175.813 115.871 176.566 119.862C177.701 126.228 172.713 137.643 165.674 150.674Z" fill="#FFCB3F"/>
<g opacity="0.3">
<path opacity="0.3" d="M165.641 150.613C156.231 167.9 146.129 180.622 140.883 178.004C135.327 175.214 137.318 158.392 146.702 141.071C156.086 123.749 167.925 111.83 173.152 114.468C174.436 115.108 175.817 115.833 176.56 119.81C177.678 126.154 172.683 137.571 165.641 150.613Z" fill="black"/>
</g>
<path d="M167.784 152.729C158.604 169.619 146.947 181.118 141.704 178.471C136.461 175.824 139.658 160.005 148.775 143.165C157.892 126.325 169.612 114.776 174.846 117.433C180.079 120.09 176.946 135.859 167.784 152.729Z" fill="#FFCB3F"/>
<g opacity="0.2">
<path opacity="0.2" d="M167.756 152.675C158.57 169.574 146.922 181.108 141.697 178.492C136.472 175.876 139.688 160.075 148.812 143.225C157.935 126.374 169.646 114.792 174.861 117.417C180.077 120.043 176.924 135.794 167.756 152.675Z" fill="white"/>
</g>
<path d="M179.248 124.946C179.252 125.113 179.233 125.285 179.193 125.459L178.95 126.956C178.856 127.595 178.704 128.382 178.504 129.305C178.304 130.229 178.127 131.32 177.809 132.422C176.336 138.491 174.048 144.516 171.032 150.269C167.988 155.994 164.436 161.467 160.447 166.575C158.92 168.531 157.665 170.094 156.767 171.148L155.733 172.356C155.614 172.493 155.486 172.621 155.353 172.74C155.353 172.74 155.477 172.615 155.677 172.28L156.653 171.014C157.523 169.944 158.736 168.349 160.236 166.377C164.146 161.248 167.646 155.789 170.676 150.099C173.649 144.385 175.942 138.42 177.48 132.401C177.798 131.255 178.037 130.204 178.244 129.289C178.45 128.374 178.643 127.575 178.752 126.934L179.071 125.45C179.112 125.28 179.172 125.111 179.248 124.946Z" fill="#263238"/>
<path d="M167.65 164.106C167.584 164.234 167.501 164.357 167.406 164.47C167.246 164.701 167.001 165.04 166.665 165.481C166.018 166.35 165.052 167.593 163.828 169.112C160.64 173.08 157.196 176.83 153.548 180.304C151.527 182.222 149.389 183.951 147.176 185.456C145.363 186.703 143.472 187.62 141.612 188.155C140.359 188.504 139.158 188.566 138.089 188.338C137.8 188.273 137.526 188.182 137.267 188.064C137.172 188.032 137.084 187.987 137.006 187.93C137.006 187.93 137.407 188.053 138.172 188.158C139.241 188.326 140.426 188.222 141.654 187.852C143.476 187.288 145.32 186.364 147.087 185.13C149.263 183.626 151.367 181.914 153.361 180.024C156.985 176.571 160.425 172.871 163.641 168.969C164.896 167.469 165.878 166.248 166.562 165.406C166.903 164.956 167.267 164.521 167.65 164.106Z" fill="#263238"/>
<path d="M132.324 162.146C132.262 163.446 132.136 164.752 131.945 166.057C131.511 169.163 131.362 172.265 131.5 175.308C131.644 178.316 132.395 181.137 133.694 183.55C134.285 184.516 134.947 185.414 135.673 186.238C135.412 186.108 135.176 185.929 134.973 185.706C134.388 185.157 133.872 184.519 133.434 183.804C132 181.39 131.17 178.494 131.024 175.384C130.879 172.304 131.068 169.156 131.585 166.012C131.779 164.808 131.959 163.864 132.067 163.171C132.121 162.825 132.207 162.482 132.324 162.146Z" fill="white"/>
</svg>
