<svg width="51" height="50" viewBox="0 0 51 50" fill="none" xmlns="http://www.w3.org/2000/svg">
<rect x="0.75" width="50" height="50" rx="25" fill="#FFECB3"/>
<path d="M31.7453 25.9357C30.0106 25.9357 27.3074 26.4272 25.2402 27.3813C23.173 26.4128 20.4698 25.9357 18.7351 25.9357C15.5982 25.9357 9.33887 27.4969 9.33887 30.6338V34.6092H41.1416V30.6338C41.1416 27.4969 34.8822 25.9357 31.7453 25.9357ZM25.963 32.4408H11.5072V30.6338C11.5072 29.8532 15.2079 28.1041 18.7351 28.1041C22.2623 28.1041 25.963 29.8532 25.963 30.6338V32.4408ZM38.9732 32.4408H28.1314V30.6338C28.1314 29.9689 27.8423 29.3907 27.3797 28.8702C28.6518 28.4366 30.213 28.1041 31.7453 28.1041C35.2725 28.1041 38.9732 29.8532 38.9732 30.6338V32.4408ZM18.7351 24.4901C21.5251 24.4901 23.7946 22.2206 23.7946 19.4306C23.7946 16.6407 21.5251 14.3711 18.7351 14.3711C15.9452 14.3711 13.6756 16.6407 13.6756 19.4306C13.6756 22.2206 15.9452 24.4901 18.7351 24.4901ZM18.7351 16.5395C20.3253 16.5395 21.6263 17.8405 21.6263 19.4306C21.6263 21.0208 20.3253 22.3218 18.7351 22.3218C17.145 22.3218 15.844 21.0208 15.844 19.4306C15.844 17.8405 17.145 16.5395 18.7351 16.5395ZM31.7453 24.4901C34.5353 24.4901 36.8049 22.2206 36.8049 19.4306C36.8049 16.6407 34.5353 14.3711 31.7453 14.3711C28.9554 14.3711 26.6858 16.6407 26.6858 19.4306C26.6858 22.2206 28.9554 24.4901 31.7453 24.4901ZM31.7453 16.5395C33.3355 16.5395 34.6365 17.8405 34.6365 19.4306C34.6365 21.0208 33.3355 22.3218 31.7453 22.3218C30.1552 22.3218 28.8542 21.0208 28.8542 19.4306C28.8542 17.8405 30.1552 16.5395 31.7453 16.5395Z" fill="#FFB300"/>
</svg>
