<svg width="51" height="50" viewBox="0 0 51 50" fill="none" xmlns="http://www.w3.org/2000/svg">
<rect x="0.5" width="50" height="50" rx="25" fill="#FCE4EC"/>
<path d="M31.4953 25.9357C29.7606 25.9357 27.0574 26.4272 24.9902 27.3813C22.923 26.4128 20.2198 25.9357 18.4851 25.9357C15.3482 25.9357 9.08887 27.4969 9.08887 30.6338V34.6092H40.8916V30.6338C40.8916 27.4969 34.6322 25.9357 31.4953 25.9357ZM25.713 32.4408H11.2572V30.6338C11.2572 29.8532 14.9579 28.1041 18.4851 28.1041C22.0123 28.1041 25.713 29.8532 25.713 30.6338V32.4408ZM38.7232 32.4408H27.8814V30.6338C27.8814 29.9689 27.5923 29.3907 27.1297 28.8702C28.4018 28.4366 29.963 28.1041 31.4953 28.1041C35.0225 28.1041 38.7232 29.8532 38.7232 30.6338V32.4408ZM18.4851 24.4901C21.2751 24.4901 23.5446 22.2206 23.5446 19.4306C23.5446 16.6407 21.2751 14.3711 18.4851 14.3711C15.6952 14.3711 13.4256 16.6407 13.4256 19.4306C13.4256 22.2206 15.6952 24.4901 18.4851 24.4901ZM18.4851 16.5395C20.0753 16.5395 21.3763 17.8405 21.3763 19.4306C21.3763 21.0208 20.0753 22.3218 18.4851 22.3218C16.895 22.3218 15.594 21.0208 15.594 19.4306C15.594 17.8405 16.895 16.5395 18.4851 16.5395ZM31.4953 24.4901C34.2853 24.4901 36.5549 22.2206 36.5549 19.4306C36.5549 16.6407 34.2853 14.3711 31.4953 14.3711C28.7054 14.3711 26.4358 16.6407 26.4358 19.4306C26.4358 22.2206 28.7054 24.4901 31.4953 24.4901ZM31.4953 16.5395C33.0855 16.5395 34.3865 17.8405 34.3865 19.4306C34.3865 21.0208 33.0855 22.3218 31.4953 22.3218C29.9052 22.3218 28.6042 21.0208 28.6042 19.4306C28.6042 17.8405 29.9052 16.5395 31.4953 16.5395Z" fill="#D81B60"/>
</svg>
