<svg width="50" height="50" viewBox="0 0 50 50" fill="none" xmlns="http://www.w3.org/2000/svg">
<rect width="50" height="50" rx="25" fill="#E2F2FE"/>
<path d="M31.3751 26.4168C29.6751 26.4168 27.0259 26.8985 25.0001 27.8335C22.9742 26.8843 20.3251 26.4168 18.6251 26.4168C15.5509 26.4168 9.41675 27.9468 9.41675 31.021V34.9168H40.5834V31.021C40.5834 27.9468 34.4492 26.4168 31.3751 26.4168ZM25.7084 32.7918H11.5417V31.021C11.5417 30.256 15.1684 28.5418 18.6251 28.5418C22.0817 28.5418 25.7084 30.256 25.7084 31.021V32.7918ZM38.4584 32.7918H27.8334V31.021C27.8334 30.3693 27.5501 29.8027 27.0967 29.2927C28.3434 28.8677 29.8734 28.5418 31.3751 28.5418C34.8317 28.5418 38.4584 30.256 38.4584 31.021V32.7918ZM18.6251 25.0002C21.3592 25.0002 23.5834 22.776 23.5834 20.0418C23.5834 17.3077 21.3592 15.0835 18.6251 15.0835C15.8909 15.0835 13.6667 17.3077 13.6667 20.0418C13.6667 22.776 15.8909 25.0002 18.6251 25.0002ZM18.6251 17.2085C20.1834 17.2085 21.4584 18.4835 21.4584 20.0418C21.4584 21.6002 20.1834 22.8752 18.6251 22.8752C17.0667 22.8752 15.7917 21.6002 15.7917 20.0418C15.7917 18.4835 17.0667 17.2085 18.6251 17.2085ZM31.3751 25.0002C34.1092 25.0002 36.3334 22.776 36.3334 20.0418C36.3334 17.3077 34.1092 15.0835 31.3751 15.0835C28.6409 15.0835 26.4167 17.3077 26.4167 20.0418C26.4167 22.776 28.6409 25.0002 31.3751 25.0002ZM31.3751 17.2085C32.9334 17.2085 34.2084 18.4835 34.2084 20.0418C34.2084 21.6002 32.9334 22.8752 31.3751 22.8752C29.8167 22.8752 28.5417 21.6002 28.5417 20.0418C28.5417 18.4835 29.8167 17.2085 31.3751 17.2085Z" fill="#5886FE"/>
</svg>
