<svg width="51" height="50" viewBox="0 0 51 50" fill="none" xmlns="http://www.w3.org/2000/svg">
<rect x="0.25" width="50" height="50" rx="25" fill="#E8F5E9"/>
<path d="M31.2453 25.9357C29.5106 25.9357 26.8074 26.4272 24.7402 27.3813C22.673 26.4128 19.9698 25.9357 18.2351 25.9357C15.0982 25.9357 8.83887 27.4969 8.83887 30.6338V34.6092H40.6416V30.6338C40.6416 27.4969 34.3822 25.9357 31.2453 25.9357ZM25.463 32.4408H11.0072V30.6338C11.0072 29.8532 14.7079 28.1041 18.2351 28.1041C21.7623 28.1041 25.463 29.8532 25.463 30.6338V32.4408ZM38.4732 32.4408H27.6314V30.6338C27.6314 29.9689 27.3423 29.3907 26.8797 28.8702C28.1518 28.4366 29.713 28.1041 31.2453 28.1041C34.7725 28.1041 38.4732 29.8532 38.4732 30.6338V32.4408ZM18.2351 24.4901C21.0251 24.4901 23.2946 22.2206 23.2946 19.4306C23.2946 16.6407 21.0251 14.3711 18.2351 14.3711C15.4452 14.3711 13.1756 16.6407 13.1756 19.4306C13.1756 22.2206 15.4452 24.4901 18.2351 24.4901ZM18.2351 16.5395C19.8253 16.5395 21.1263 17.8405 21.1263 19.4306C21.1263 21.0208 19.8253 22.3218 18.2351 22.3218C16.645 22.3218 15.344 21.0208 15.344 19.4306C15.344 17.8405 16.645 16.5395 18.2351 16.5395ZM31.2453 24.4901C34.0353 24.4901 36.3049 22.2206 36.3049 19.4306C36.3049 16.6407 34.0353 14.3711 31.2453 14.3711C28.4554 14.3711 26.1858 16.6407 26.1858 19.4306C26.1858 22.2206 28.4554 24.4901 31.2453 24.4901ZM31.2453 16.5395C32.8355 16.5395 34.1365 17.8405 34.1365 19.4306C34.1365 21.0208 32.8355 22.3218 31.2453 22.3218C29.6552 22.3218 28.3542 21.0208 28.3542 19.4306C28.3542 17.8405 29.6552 16.5395 31.2453 16.5395Z" fill="#43A047"/>
</svg>
