<svg width="386" height="372" viewBox="0 0 386 372" fill="none" xmlns="http://www.w3.org/2000/svg">
<path d="M272.925 80.6127L228.681 50.7051C228.681 50.7051 213.264 13.706 210.489 11.856C206.173 8.77276 202.781 10.1602 202.781 14.631C202.781 19.1017 203.09 50.3968 217.118 66.1214C230.531 80.9211 257.663 94.7958 264.446 90.4792C268.146 87.8584 272.925 80.6127 272.925 80.6127Z" fill="#CC8B70"/>
<path d="M248.875 63.1934C248.875 63.1934 240.396 69.2057 238.238 75.2181C236.08 81.2304 235.771 83.6971 235.771 83.6971C235.771 83.6971 252.113 91.4052 259.667 90.9427C267.221 90.4802 273.85 80.3055 273.85 80.3055C273.85 80.3055 252.421 65.66 248.875 63.1934Z" fill="#FFB300"/>
<path d="M330.427 85.2378L333.973 85.0837C333.973 85.0837 336.748 84.7753 337.056 82.3087C337.365 79.8421 322.873 62.5759 318.248 67.6632C313.469 72.4423 320.715 82.6171 330.427 85.2378Z" fill="#2E2E47"/>
<path d="M381.457 202.247C380.224 202.709 378.22 203.172 376.215 202.092C373.44 200.705 370.974 200.088 368.97 199.78C367.12 196.388 370.974 191.609 370.049 190.993C368.97 190.376 362.341 189.605 361.108 190.376C359.874 191.147 357.408 195.309 354.324 195.926C351.241 196.697 347.695 195.001 347.695 195.001C347.695 195.001 349.699 189.759 352.012 187.293C354.324 184.826 362.032 178.043 362.032 178.043L364.499 180.972L358.487 187.447C358.487 187.447 368.97 186.214 372.516 189.297C375.29 191.609 379.761 197.622 381.611 200.088C382.536 200.859 382.228 201.938 381.457 202.247Z" fill="#2E2E47"/>
<path d="M354.478 196.08C357.561 195.309 360.028 191.301 361.261 190.53C362.494 189.759 369.123 190.376 370.202 191.147C371.127 191.763 367.273 196.542 369.123 199.934C368.815 199.934 368.352 199.78 368.044 199.78C365.886 199.317 352.165 206.563 352.165 206.563L347.849 195.463C347.849 195.155 351.394 196.851 354.478 196.08Z" fill="#CC8B70"/>
<path d="M339.676 269.926C338.443 269.31 336.901 268.076 336.284 265.918C335.513 262.989 334.28 260.676 333.355 258.981C334.743 255.435 340.755 255.127 340.601 254.047C340.447 252.814 336.593 247.264 335.205 246.956C333.818 246.648 329.039 247.418 326.572 245.568C323.951 243.719 322.872 240.019 322.872 240.019C322.872 240.019 328.114 238.014 331.505 238.169C334.897 238.323 345.226 239.556 345.226 239.556L344.609 243.41L335.822 243.256C335.822 243.256 343.684 250.193 343.838 254.972C343.838 258.672 342.451 265.918 341.68 269.001C341.372 269.926 340.447 270.389 339.676 269.926Z" fill="#2E2E47"/>
<path d="M326.573 245.722C329.194 247.572 333.819 246.801 335.206 247.109C336.594 247.417 340.448 252.967 340.602 254.201C340.756 255.28 334.744 255.588 333.356 259.134C333.202 258.826 333.048 258.517 332.894 258.209C331.815 256.359 317.323 250.809 317.323 250.809L322.873 240.326C322.873 240.172 323.952 243.872 326.573 245.722Z" fill="#CC8B70"/>
<path d="M308.074 105.589C307.919 105.435 307.919 105.127 308.074 104.973C308.228 104.664 308.69 104.664 308.844 104.819C308.844 104.819 312.39 107.594 315.319 107.594C317.169 107.594 320.253 106.052 321.486 104.51C321.64 104.202 322.102 104.202 322.257 104.356C322.565 104.51 322.565 104.973 322.411 105.127C320.869 106.977 317.632 108.673 315.319 108.673C312.082 108.827 308.382 105.898 308.074 105.589C308.228 105.744 308.074 105.744 308.074 105.589Z" fill="black"/>
<path d="M274.621 54.2517C274.621 54.2517 270.15 59.1849 267.683 63.5015C265.217 67.6639 270.921 71.5179 272.308 73.0596C273.696 74.6012 271.846 76.7595 272 81.6927C272.154 86.6259 289.883 98.4965 294.354 97.5715C298.824 96.6465 299.595 106.975 305.453 108.363C320.099 111.909 327.345 96.4924 328.578 92.3299C329.811 88.3217 316.245 88.63 310.078 84.6218C303.912 80.7677 291.887 61.4973 289.112 57.4891C286.337 53.3267 279.862 52.5559 278.321 53.9433C276.779 55.0225 274.621 54.2517 274.621 54.2517Z" fill="black"/>
<path d="M258.588 91.0952C260.901 88.9369 263.521 86.0078 264.446 82.6162L248.722 88.7827C252.113 90.1702 255.813 90.941 258.588 91.0952Z" fill="#FF7A00"/>
<path d="M284.332 212.268L347.693 192.998C347.693 192.998 353.86 202.402 354.939 206.102C359.255 220.285 357.405 228.918 357.405 228.918C357.405 228.918 301.598 243.101 287.724 245.413C269.532 248.497 254.27 242.793 257.353 231.847C260.282 220.747 284.332 212.268 284.332 212.268Z" fill="#171718"/>
<path d="M241.784 152.761C241.784 152.761 238.393 167.098 231.764 182.977C220.047 210.726 208.639 245.104 216.964 258.671C227.601 276.245 247.797 271.775 267.838 269.925C296.204 267.304 324.878 261.137 324.878 261.137C324.878 261.137 327.653 241.867 320.099 226.759L251.188 238.167C251.188 238.167 276.008 188.989 277.242 180.51C278.475 172.185 241.784 152.761 241.784 152.761Z" fill="#171718"/>
<path d="M291.577 139.196C291.577 138.888 291.423 138.579 291.423 138.271C289.881 130.871 304.527 100.193 296.356 90.9429C284.948 78.1474 272.923 80.4599 272.923 80.4599C266.294 79.5349 261.515 84.4681 255.04 90.4805C249.799 95.2595 250.57 111.292 248.411 119.309C247.64 122.546 245.482 125.321 244.711 128.405C244.557 129.484 245.636 130.871 245.328 131.95C253.345 135.496 270.611 141.354 291.577 139.196Z" fill="#FFB300"/>
<path d="M291.578 139.195C270.612 141.353 253.346 135.495 245.484 132.104C242.092 148.599 240.55 163.244 241.013 165.711C242.246 171.878 265.833 178.661 267.066 184.365C268.3 190.069 253.038 216.585 253.5 224.756C253.963 232.926 256.892 241.868 269.379 242.638C281.866 243.409 300.828 202.556 300.828 181.744C300.674 161.857 293.428 146.903 291.578 139.195Z" fill="#171718"/>
<path d="M286.49 73.0606C286.49 73.0606 285.72 80.6146 286.49 84.6229C286.953 86.627 280.632 87.8603 276.778 87.5519C276.316 87.5519 269.687 96.1851 268.916 94.4893C268.299 92.9476 274.003 86.3186 274.003 85.702C274.003 83.6979 276.47 80.4604 277.086 79.3813C277.857 77.8397 279.245 73.0606 279.553 72.2898C280.016 71.6732 285.72 71.8273 286.49 73.0606Z" fill="#CC8B70"/>
<path d="M276.623 80.1508C276.777 79.8425 276.931 79.6883 277.086 79.38C277.548 78.455 278.165 76.6051 278.627 75.0635L283.56 75.3718C283.406 75.3718 279.552 79.5342 276.623 80.1508Z" fill="#2E2E47"/>
<path d="M279.554 52.7094C279.554 52.7094 275.237 57.1802 273.85 58.4135C272.462 59.8009 270.921 60.8801 269.225 63.0384C267.529 65.1967 265.525 69.9757 269.379 73.5215C273.079 77.0672 279.708 77.5297 282.329 75.9881C284.949 74.4464 285.566 73.3673 285.566 73.3673C285.566 73.3673 286.645 74.4464 288.649 73.3673C290.653 72.2882 292.966 70.7465 291.733 69.359C290.499 67.9716 289.574 68.5882 289.266 68.1258C288.958 67.8174 290.808 62.73 289.266 60.5718C288.033 58.5676 282.329 51.4761 279.554 52.7094Z" fill="#CC8B70"/>
<path d="M284.333 62.8854C284.333 62.8854 284.179 62.8854 284.179 62.7312C284.179 62.7312 282.946 61.1896 281.866 60.5729C280.941 59.9563 280.171 60.2646 280.171 60.2646C280.016 60.2646 279.862 60.2646 279.862 60.1104C279.862 59.9563 279.862 59.8021 280.016 59.8021C280.016 59.8021 281.096 59.4938 282.175 60.2646C283.254 61.0354 284.487 62.5771 284.487 62.5771C284.641 62.5771 284.641 62.7312 284.333 62.8854C284.487 62.8854 284.333 62.8854 284.333 62.8854Z" fill="#2E2E47"/>
<path d="M282.945 54.2521C282.945 54.2521 283.254 58.5686 285.104 61.0352C286.953 63.5018 288.649 67.3559 286.491 69.8225C284.333 72.2891 281.404 79.2265 284.333 81.2306C287.262 83.2347 297.745 85.8555 299.595 87.243C301.445 88.7846 302.061 94.0261 306.995 97.1094C311.928 100.347 319.174 100.655 325.032 96.3386C331.044 92.022 331.044 81.5389 321.949 80.3056C312.853 79.2265 311.928 81.2306 311.311 77.9932C310.695 74.6016 311.311 70.9017 307.92 69.2059C304.528 67.5101 302.832 68.2809 302.216 64.581C301.753 61.0352 300.057 54.7145 294.045 51.6313C288.341 49.0105 282.945 54.2521 282.945 54.2521Z" fill="black"/>
<path d="M280.634 66.8924C280.171 67.3549 279.092 67.0466 278.321 66.1216C277.396 65.3508 277.088 64.2717 277.55 63.8092C278.013 63.3467 279.092 63.655 279.863 64.58C280.788 65.3508 281.096 66.4299 280.634 66.8924Z" fill="#C96B59"/>
<path d="M273.388 61.0361C272.926 61.4986 272.155 61.4986 271.692 60.8819C271.23 60.4194 271.076 59.6486 271.538 59.1861C272.001 58.7236 272.771 58.7236 273.234 59.3403C273.851 59.8028 273.85 60.5736 273.388 61.0361Z" fill="#C96B59"/>
<path d="M273.387 63.808C273.233 63.808 273.079 63.6539 273.079 63.4997C273.233 61.9581 273.387 61.4956 274.929 61.1873C276.162 60.8789 277.396 59.7998 277.55 58.5665C277.55 57.4873 275.7 56.8707 275.7 56.8707C275.546 56.8707 275.546 56.7165 275.546 56.5624C275.546 56.4082 275.7 56.4082 275.854 56.4082C276.008 56.4082 278.167 57.179 278.012 58.5665C278.012 60.1081 276.471 61.3414 275.083 61.6497C273.85 61.9581 273.85 62.1122 273.696 63.6539C273.696 63.6539 273.542 63.808 273.387 63.808Z" fill="#2E2E47"/>
<path d="M290.963 51.4763C290.963 51.4763 292.196 49.318 286.646 47.9306C281.096 46.5431 277.705 52.093 275.546 53.6346C273.851 54.8679 272.617 59.0303 272.617 59.0303C272.617 59.0303 278.321 52.8638 280.942 53.9429C284.488 55.4846 289.267 53.7888 290.963 51.4763Z" fill="black"/>
<path d="M303.757 64.1179C303.449 64.1179 303.295 63.8096 303.295 63.6554C303.295 63.6554 303.14 59.9555 300.211 56.4098C297.282 53.0182 290.962 52.5557 290.962 52.5557C290.653 52.5557 290.345 52.2474 290.499 51.939C290.499 51.6307 290.807 51.3224 291.116 51.4766C291.424 51.4766 297.899 51.939 301.136 55.7931C304.374 59.493 304.528 63.5013 304.528 63.6554C304.374 63.8096 304.22 64.1179 303.757 64.1179Z" fill="black"/>
<path d="M282.483 64.1163C282.329 64.1163 282.175 63.9621 282.175 63.8079C282.175 63.8079 282.174 62.8829 281.558 62.4205C280.787 61.6496 279.862 61.8038 279.862 61.8038C279.708 61.8038 279.554 61.8038 279.554 61.6496C279.554 61.4955 279.554 61.3413 279.708 61.3413C279.708 61.3413 280.787 61.033 281.866 61.958C282.637 62.7288 282.637 63.6538 282.637 63.8079C282.637 63.9621 282.637 64.1163 282.483 64.1163Z" fill="#2E2E47"/>
<path d="M281.403 61.958C281.403 61.958 280.478 62.1122 280.324 62.883C280.17 63.6538 280.632 64.1163 281.249 63.9621C281.865 63.8079 282.328 63.1913 282.328 62.883C282.174 62.4205 281.865 61.958 281.403 61.958Z" fill="#2E2E47"/>
<path d="M276.932 59.9561C276.777 59.9561 276.623 59.802 276.623 59.6478C276.623 59.6478 276.623 58.7228 276.161 58.2603C275.544 57.6437 274.927 57.7978 274.927 57.7978C274.773 57.7978 274.619 57.7978 274.619 57.6437C274.619 57.4895 274.619 57.3354 274.773 57.3354C274.773 57.3354 275.698 56.8729 276.623 57.7978C277.24 58.4145 277.24 59.4936 277.24 59.4936C277.24 59.802 277.086 59.9561 276.932 59.9561Z" fill="#2E2E47"/>
<path d="M276.006 57.9502C276.006 57.9502 275.235 58.1044 275.081 58.8752C274.927 59.646 275.389 60.1085 275.852 59.9543C276.314 59.8002 276.777 59.1835 276.623 58.721C276.623 58.4127 276.469 57.9502 276.006 57.9502Z" fill="#2E2E47"/>
<path d="M270.92 63.1934C270.92 63.1934 271.383 63.6559 273.387 65.0433C275.237 66.2766 276.778 67.2016 276.778 67.2016C276.778 67.2016 274.003 68.8974 272.462 68.2807C271.074 67.6641 269.995 66.585 269.995 65.8142C269.995 64.4267 270.92 63.1934 270.92 63.1934Z" fill="white"/>
<path d="M290.498 87.0877L330.889 56.5634C330.889 56.5634 362.03 10.9311 367.117 12.4728C372.204 14.0144 370.2 16.7893 369.43 22.0309C368.813 26.5016 352.934 62.5758 337.826 77.2213C322.718 91.8668 310.848 94.1792 300.673 96.6458C290.961 99.1124 290.498 87.0877 290.498 87.0877Z" fill="#CC8B70"/>
<path d="M362.956 17.8693C362.956 17.8693 362.339 13.8611 365.268 10.932C368.197 8.00289 369.585 5.07379 370.51 3.99465C371.435 2.91551 372.051 4.45714 370.972 6.46126C369.739 8.46538 369.122 8.92787 369.43 10.1612C369.739 11.2403 379.759 9.54452 381.301 8.61954C383.151 7.38624 384.384 8.15706 383.305 9.08204C381.764 10.4695 378.526 11.7028 378.526 11.7028C378.526 11.7028 384.692 10.007 385.309 10.6237C385.926 11.2403 384.692 11.857 384.692 11.857C384.692 11.857 385.926 12.0111 385.772 12.6278C385.618 13.2444 379.913 16.4819 379.913 16.4819C379.913 16.4819 383.459 16.7902 384.076 17.8693C384.693 18.9485 378.064 18.6401 377.139 18.7943C375.905 18.9485 366.347 22.1859 362.956 17.8693Z" fill="#CC8B70"/>
<path d="M211.413 14.9396C211.413 14.9396 212.03 10.9314 209.101 8.0023C206.172 5.0732 204.784 2.14411 203.859 1.06496C202.935 -0.0141764 202.318 1.52745 203.397 3.53157C204.63 5.53569 205.247 5.99818 204.939 7.23149C204.63 8.31063 194.61 6.61483 193.068 5.68986C191.218 4.45655 189.985 5.22737 191.064 6.15235C192.606 7.53982 195.843 8.77312 195.843 8.77312C195.843 8.77312 189.676 7.07733 189.06 7.69398C188.443 8.31063 189.676 8.92728 189.676 8.92728C189.676 8.92728 188.443 9.08144 188.597 9.69809C188.751 10.3147 194.455 13.5522 194.455 13.5522C194.455 13.5522 190.91 13.8605 190.293 14.9396C189.676 16.0188 196.305 15.7105 197.23 15.8646C198.464 16.0188 207.868 19.2562 211.413 14.9396Z" fill="#CC8B70"/>
<path d="M245.637 132.874C245.637 132.874 250.261 135.495 259.665 137.653C269.069 139.811 279.09 140.891 284.023 140.582C288.956 140.428 291.115 140.12 291.115 140.12L292.04 142.74C292.04 142.74 285.102 144.128 275.698 142.895C251.186 139.657 245.482 135.803 245.482 135.803L245.637 132.874Z" fill="#774237"/>
<path d="M297.745 100.655C297.745 100.655 312.391 97.109 321.178 92.6383C332.124 87.0884 333.974 84.9301 333.974 84.9301C333.974 84.9301 319.02 76.6053 317.941 66.2764L289.112 87.0884C289.266 87.0884 288.187 97.5715 297.745 100.655Z" fill="#FFB300"/>
<path d="M253.807 231.384C253.653 231.384 253.499 231.23 253.499 231.076C253.037 220.439 257.045 206.41 259.974 196.081C260.899 192.843 261.67 190.068 262.132 187.91C263.828 180.819 263.366 180.51 260.436 178.044C259.82 177.581 259.049 176.965 258.124 176.04C253.191 171.569 243.787 168.177 243.633 168.177C243.479 168.177 243.479 168.023 243.479 167.869C243.479 167.715 243.633 167.715 243.787 167.715C243.941 167.715 253.499 171.106 258.432 175.731C259.357 176.502 259.974 177.119 260.745 177.735C263.982 180.356 264.291 180.973 262.595 188.064C262.132 190.223 261.361 192.998 260.436 196.235C257.507 206.41 253.499 220.439 253.962 231.076C253.962 231.23 253.962 231.384 253.807 231.384Z" fill="white"/>
<path d="M256.276 171.57C256.122 171.57 256.122 171.57 256.276 171.57C256.122 171.57 255.968 171.416 255.968 171.261C255.968 170.953 260.747 146.904 261.055 142.433C261.055 142.279 261.209 142.125 261.363 142.279C261.518 142.279 261.672 142.433 261.518 142.587C261.055 146.904 256.43 171.107 256.43 171.416C256.43 171.57 256.276 171.57 256.276 171.57Z" fill="white"/>
<path d="M293.889 163.552C285.41 158.773 283.252 150.911 283.098 150.911C283.098 150.757 283.098 150.603 283.252 150.603C283.406 150.603 283.56 150.603 283.56 150.757C283.56 150.757 285.718 158.465 293.889 163.09C294.043 163.09 294.043 163.244 294.043 163.398C294.197 163.552 294.043 163.552 293.889 163.552Z" fill="white"/>
<path d="M258.742 179.277H258.588C256.892 177.581 254.734 177.273 252.422 176.81C250.572 176.502 248.567 176.194 246.563 175.115C243.48 173.419 242.093 171.261 241.938 169.873C241.784 169.256 241.938 168.64 242.247 168.331C242.401 168.177 242.555 168.177 242.555 168.331C242.709 168.486 242.709 168.64 242.555 168.64C242.401 168.794 242.247 169.256 242.401 169.719C242.555 171.106 243.943 173.11 246.872 174.652C248.722 175.731 250.726 176.04 252.576 176.348C254.888 176.81 257.201 177.119 258.896 178.969C259.051 179.123 259.051 179.277 258.896 179.277C258.896 179.277 258.896 179.277 258.742 179.277Z" fill="white"/>
<path d="M276.316 246.647C274.62 246.647 272.924 246.493 271.537 246.339C256.737 243.873 256.429 237.552 256.429 237.398C256.429 237.243 256.583 237.089 256.737 237.089C256.891 237.089 257.045 237.243 257.045 237.398C257.045 237.398 257.354 243.564 271.691 245.877C286.182 248.343 323.181 236.473 323.49 236.473C323.644 236.473 323.798 236.473 323.798 236.627C323.798 236.781 323.798 236.935 323.644 236.935C323.335 236.935 292.965 246.647 276.316 246.647Z" fill="white"/>
<path d="M286.953 233.081H286.799C286.491 232.927 285.874 232.618 290.037 220.748C292.041 215.044 294.353 209.185 294.353 209.185C294.353 209.031 294.507 209.031 294.662 209.031C294.816 209.031 294.816 209.185 294.816 209.34C291.578 217.664 286.799 230.922 287.108 232.618C287.108 232.618 287.262 232.464 287.57 232.156C290.345 228.61 292.812 221.21 293.891 217.973C294.507 216.123 294.508 216.123 294.816 216.123C295.124 216.123 294.97 216.431 294.97 216.585C294.507 220.131 293.583 227.685 294.507 228.764H294.662C295.432 228.764 296.203 222.443 296.357 212.269C296.357 212.115 296.512 211.96 296.666 211.96C296.82 211.96 296.974 212.115 296.974 212.269C296.974 212.269 296.974 216.431 296.666 220.593C296.203 229.072 295.278 229.227 294.816 229.227C294.662 229.227 294.353 229.227 294.199 229.072C293.12 227.993 293.737 221.827 294.199 218.589C292.966 221.981 290.653 228.918 288.033 232.464C287.57 232.772 287.262 233.081 286.953 233.081Z" fill="white"/>
<path d="M241.32 262.063C241.012 262.063 240.704 261.909 240.549 261.601C238.854 258.826 249.645 240.326 250.878 238.322C250.878 238.168 251.033 238.168 251.187 238.168C251.341 238.168 251.341 238.322 251.341 238.476C247.949 244.026 239.625 259.134 240.858 261.292C241.012 261.601 241.166 261.601 241.32 261.447C243.324 260.984 247.949 249.576 248.103 248.805C248.103 248.651 248.258 248.497 248.412 248.497C248.566 248.497 248.566 248.651 248.72 248.805V248.959V249.422C248.874 255.743 249.028 258.517 249.183 259.751C249.799 256.976 250.878 248.497 251.649 242.485C251.649 242.33 251.803 242.33 251.957 242.33C252.112 242.33 252.112 242.485 252.112 242.639C251.341 248.034 249.645 260.522 249.183 260.984C249.028 261.138 249.028 261.138 248.874 260.984C248.566 260.83 248.412 260.83 248.103 250.039C247.641 251.426 246.716 253.276 245.945 255.126C244.095 259.134 242.554 261.447 241.474 261.755C241.474 262.063 241.474 262.063 241.32 262.063Z" fill="white"/>
<path d="M253.808 264.222C253.654 264.222 253.5 264.068 253.5 263.914V241.56C253.5 241.406 253.654 241.252 253.808 241.252C253.963 241.252 254.117 241.406 254.117 241.56V263.914C253.963 264.068 253.963 264.222 253.808 264.222Z" fill="white"/>
<path d="M296.511 100.962C290.961 100.962 288.032 94.9499 287.878 94.9499C287.878 94.7958 287.878 94.6416 288.032 94.6416C288.186 94.6416 288.34 94.6416 288.34 94.7958C288.34 94.7958 292.04 102.041 298.515 100.191C298.669 100.191 298.823 100.191 298.823 100.346C298.823 100.5 298.824 100.654 298.669 100.654C298.053 100.808 297.282 100.962 296.511 100.962Z" fill="#2E2E47"/>
<path d="M164.38 66.7242C164.38 66.7242 160.217 61.0202 158.367 60.5577C156.517 60.0952 152.047 61.1743 150.813 59.1702C149.426 56.7036 145.418 53.312 146.497 52.2329C147.576 51.1537 148.963 51.7704 148.963 51.7704C148.963 51.7704 149.272 51.1537 150.042 50.6913C150.813 50.2288 151.122 50.0746 151.122 50.0746C151.122 50.0746 151.584 49.3038 151.892 48.9954C152.201 48.8413 154.051 47.9163 154.051 47.9163C154.051 47.9163 154.205 47.2997 154.667 47.1455C155.13 46.9913 161.45 51.4621 162.684 52.3871C163.917 53.4662 170.7 56.7036 170.7 57.0119C170.392 60.0952 165.767 65.9534 164.38 66.7242Z" fill="#FFA982"/>
<path d="M133.547 81.2156L189.046 91.5446C189.046 91.5446 157.134 73.1992 158.059 64.7202C158.984 56.2412 168.079 52.8496 168.079 52.8496C168.079 52.8496 192.9 70.2701 198.449 73.1992C203.845 76.1283 217.257 83.9906 220.341 91.2362C223.424 98.4819 220.649 110.198 211.708 112.819C190.433 119.14 146.497 105.111 142.488 102.182C138.634 99.0985 133.547 81.2156 133.547 81.2156Z" fill="#0E369C"/>
<path d="M25.941 20.475C25.941 20.475 16.3828 14.4627 15.7661 12.4585C14.9953 10.4544 15.7662 5.36705 13.2996 4.28791C10.3705 3.0546 6.20808 -1.1078 5.12894 0.27967C4.20396 1.66714 4.97472 3.0546 4.97472 3.0546C4.97472 3.0546 4.35814 3.51709 3.89565 4.28791C3.43316 5.05872 3.43309 5.5212 3.43309 5.5212C3.43309 5.5212 2.50818 6.13786 2.35402 6.60035C2.19986 7.06284 1.42898 9.06696 1.42898 9.06696C1.42898 9.06696 0.658206 9.37529 0.504043 9.83778C0.34988 10.3003 6.05386 16.9293 7.28716 18.1626C8.52047 19.3959 15.7662 28.3373 16.0745 28.6457C16.3828 28.954 25.1701 22.1708 25.941 20.475Z" fill="#FFA982"/>
<path d="M157.288 107.269C152.355 105.882 148.346 104.494 145.726 103.415C144.955 99.4068 144.184 94.4736 144.646 92.1611C144.646 92.1611 155.284 101.411 157.288 107.269Z" fill="#2E2E47"/>
<path d="M159.292 169.55C159.138 168.317 161.296 165.696 159.755 157.988C152.817 124.072 151.121 103.877 148.346 96.1686C145.417 88.1521 136.168 79.2107 119.981 77.3607C103.793 75.5107 97.4727 93.5478 97.4727 93.5478C97.4727 93.5478 95.9311 153.517 95.3145 167.854C103.639 170.013 129.076 175.1 159.292 169.55Z" fill="#0E369C"/>
<path d="M125.38 320.324C127.23 319.245 130.621 313.078 133.088 308.145C135.555 303.212 136.325 298.279 136.942 294.887C137.405 292.266 136.017 289.8 135.246 288.721C134.167 288.721 132.934 288.875 132.163 289.029C130.621 289.337 128.155 291.65 126.151 295.504C124.763 298.279 121.988 315.853 121.988 317.549C121.988 318.628 121.526 319.245 122.759 320.478C123.53 320.632 124.455 320.941 125.38 320.324Z" fill="#515032"/>
<path d="M133.242 312.462C141.875 297.045 139.563 290.725 137.867 289.183C137.559 288.875 136.479 288.721 135.246 288.721C135.863 289.8 137.404 292.266 136.942 294.887C136.325 298.279 135.555 303.212 133.088 308.145C130.621 313.078 127.076 319.245 125.38 320.324C124.609 320.787 123.684 320.632 122.913 320.324C124.609 322.174 128 321.712 133.242 312.462Z" fill="#EAE6E4"/>
<path d="M131.545 289.954C131.545 289.954 125.379 287.488 124.916 287.179C124.454 286.871 122.604 287.796 121.679 289.8C120.908 291.804 120.446 294.425 121.371 295.196C122.296 295.967 127.691 298.896 128.154 299.512C128.616 300.129 132.316 298.587 131.545 289.954Z" fill="white"/>
<path d="M149.582 370.116C147.424 370.116 141.411 366.416 136.787 363.333C132.162 360.25 129.078 356.396 126.92 353.621C125.224 351.617 125.224 348.688 125.379 347.454C126.304 346.992 127.383 346.375 128.154 346.221C129.541 345.604 132.933 346.529 136.632 348.996C139.253 350.692 150.199 364.721 150.97 366.108C151.586 367.033 152.203 367.341 151.74 369.037C151.278 369.5 150.507 370.116 149.582 370.116Z" fill="#515032"/>
<path d="M138.02 367.958C122.912 358.862 121.987 352.696 122.603 350.537C122.757 350.075 124.299 348.071 125.378 347.608C125.224 348.842 125.378 351.771 126.92 353.775C129.078 356.396 132.161 360.404 136.786 363.487C141.411 366.57 147.424 370.27 149.582 370.27C150.507 370.27 151.278 369.654 151.74 369.037C151.432 370.116 149.89 371.504 148.348 371.658C146.344 371.812 143.107 371.041 138.02 367.958Z" fill="#EAE6E4"/>
<path d="M128.614 347.146C128.614 347.146 130.31 342.059 130.31 341.596C130.31 340.98 131.698 336.817 133.702 337.588C135.706 338.205 140.639 338.667 140.639 339.746C140.639 340.825 137.402 351.309 137.556 352.079C137.864 352.696 131.389 353.467 128.614 347.146Z" fill="white"/>
<path d="M132.159 171.247C132.005 171.093 132.005 171.093 132.159 170.939C132.468 170.168 133.393 155.522 133.701 134.094C133.855 113.282 128.922 85.2241 128.922 84.9157C128.922 84.7616 128.922 84.6074 129.076 84.6074C129.23 84.6074 129.384 84.6074 129.384 84.7616C129.384 85.0699 134.472 113.282 134.163 134.094C134.009 153.518 133.084 170.785 132.622 171.247C132.468 171.401 132.468 171.401 132.159 171.247C132.313 171.401 132.313 171.247 132.159 171.247Z" fill="#2E2E47"/>
<path d="M77.7391 279.776C77.7391 279.776 122.446 305.367 125.684 302.747C129.075 300.126 132.467 283.322 129.384 281.01C126.3 278.543 94.697 252.489 89.1472 257.423C83.7515 262.51 70.9559 269.447 77.7391 279.776Z" fill="#171718"/>
<path d="M108.109 96.323C108.109 96.323 105.025 106.806 97.0088 106.189C97.163 100.948 97.3171 96.9397 97.3171 94.9355L108.109 96.323Z" fill="#2E2E47"/>
<path d="M114.585 77.5151C114.585 77.5151 69.7232 58.553 62.1692 53.3115C51.5319 45.7575 20.8535 12.7666 20.8535 12.7666C20.8535 12.7666 6.51633 19.3956 6.20801 27.4121C6.20801 27.4121 32.2615 61.4821 48.9111 72.1194C65.5607 82.7566 94.5434 102.335 103.639 99.8687C114.122 96.9396 114.585 77.5151 114.585 77.5151Z" fill="#0E369C"/>
<path d="M108.882 60.2496C108.882 60.2496 112.582 70.5785 119.211 69.1911C125.994 67.8036 117.515 55.3164 115.819 54.6998C114.432 53.9289 109.19 58.3997 108.882 60.2496Z" fill="#2E2E47"/>
<path d="M119.058 67.0318C119.058 67.0318 119.366 73.6608 117.979 77.669C117.208 79.9815 125.224 83.6814 129.078 83.3731C132.932 83.0648 128.924 76.5899 128.307 74.74C127.691 73.0442 126.766 67.8026 126.458 67.0318C125.995 66.261 119.983 65.7985 119.058 67.0318Z" fill="#FFA982"/>
<path d="M128.614 75.5105C128.46 75.2022 128.306 74.8939 128.306 74.7397C127.998 73.8148 127.535 71.8106 127.227 69.9607L122.14 69.6523C121.985 69.6523 125.531 74.5856 128.614 75.5105Z" fill="#2E2E47"/>
<path d="M128.615 46.3733C128.615 46.3733 132.623 51.4607 133.856 53.0023C135.089 54.544 136.631 55.9314 138.173 58.398C139.714 60.8646 141.256 66.1062 136.939 69.4978C132.623 72.8894 125.686 72.4269 123.065 70.5769C120.444 68.727 119.982 67.3395 119.982 67.3395C119.982 67.3395 118.594 68.4186 116.744 67.0312C114.894 65.6437 112.427 63.7938 113.969 62.4063C115.511 61.173 116.436 61.7896 116.744 61.4813C117.052 61.173 115.819 55.6231 117.515 53.619C119.056 51.6149 125.84 44.8317 128.615 46.3733Z" fill="#FFA982"/>
<path d="M122.448 56.3947H122.602C122.602 56.3947 123.99 54.853 125.223 54.3906C126.302 53.7739 127.073 54.2364 127.073 54.2364C127.227 54.2364 127.381 54.2364 127.381 54.0822C127.381 53.9281 127.381 53.7739 127.227 53.7739C127.227 53.7739 126.148 53.3114 124.915 53.9281C123.681 54.5447 122.294 56.0864 122.14 56.0864C122.294 56.0864 122.294 56.2405 122.448 56.3947C122.294 56.3947 122.448 56.3947 122.448 56.3947Z" fill="#2E2E47"/>
<path d="M125.686 62.7148C126.148 63.1773 127.228 63.0231 128.153 62.2523C129.078 61.4815 129.54 60.4023 129.232 59.9398C128.769 59.4773 127.69 59.6315 126.765 60.4023C125.84 61.1731 125.378 62.2523 125.686 62.7148Z" fill="#F2836D"/>
<path d="M134.32 56.5491C134.782 57.0116 135.553 57.1658 136.17 56.7033C136.786 56.2408 136.94 55.47 136.478 54.8533C136.015 54.3908 135.245 54.2367 134.628 54.6992C134.165 55.1617 134.011 56.0866 134.32 56.5491Z" fill="#F2836D"/>
<path d="M125.071 59.0148C125.225 59.0148 125.379 59.0148 125.379 58.8606C125.379 58.7064 125.841 56.394 127.845 56.394C128 56.394 128.154 56.2398 128.154 56.0857C128.154 55.9315 128 55.7773 127.845 55.7773C125.379 55.7773 124.916 58.5523 124.916 58.7064C124.762 58.8606 124.916 59.0148 125.071 59.0148Z" fill="#2E2E47"/>
<path d="M131.08 54.3914C131.235 54.3914 131.389 54.3914 131.389 54.2372C131.389 54.2372 131.543 53.1581 132.314 52.8497C132.622 52.6956 133.084 52.6956 133.393 52.6956C133.547 52.6956 133.701 52.6956 133.701 52.5414C133.701 52.3873 133.701 52.2331 133.547 52.2331C132.93 52.0789 132.468 52.0789 132.005 52.3873C131.08 52.8498 130.926 54.083 130.926 54.083C130.772 54.2372 130.926 54.3914 131.08 54.3914Z" fill="#2E2E47"/>
<path d="M114.739 61.1741C114.739 61.1741 117.977 63.6407 119.672 63.0241C121.214 62.4074 117.977 57.32 117.668 56.2409C117.206 55.1618 117.514 53.6201 117.514 53.6201C117.514 53.6201 110.268 57.9367 114.739 61.1741Z" fill="#2E2E47"/>
<path d="M134.01 58.8619C134.164 58.8619 134.164 58.8619 134.318 58.7078C134.626 58.2453 134.626 57.6286 134.472 57.3203C134.318 56.7036 133.547 56.2412 132.468 55.7787C131.235 55.3162 130.002 54.0829 130.156 52.6954C130.31 51.4621 132.314 50.9996 132.314 50.9996C132.468 50.9996 132.468 50.8454 132.468 50.6913C132.468 50.5371 132.314 50.5371 132.16 50.5371C132.006 50.5371 129.693 50.9996 129.539 52.5412C129.385 54.0829 130.772 55.4703 132.16 56.087C133.085 56.5495 133.701 56.8578 133.856 57.3203C134.01 57.6286 133.856 57.9369 133.701 58.3994C133.701 58.7078 133.701 58.8619 134.01 58.8619C133.856 58.8619 133.856 58.8619 134.01 58.8619Z" fill="#2E2E47"/>
<path d="M129.848 42.0572C128.614 36.3532 120.598 33.1158 115.973 38.5115C114.74 39.899 113.507 44.678 113.507 44.678C113.507 44.678 109.652 46.8363 106.878 52.5403C105.336 55.9319 106.107 61.0193 109.652 60.0943C113.044 59.0152 120.598 52.0778 121.677 51.6154C122.756 50.9987 131.081 47.6071 129.848 42.0572Z" fill="#2E2E47"/>
<path d="M128.923 45.604C129.077 45.604 129.231 45.604 129.385 45.4499C130.464 43.9082 130.927 40.825 128.306 37.2792C125.994 34.0418 121.677 34.5043 121.523 34.5043C121.215 34.5043 121.061 34.8126 121.061 34.9668C121.061 35.2751 121.369 35.4293 121.523 35.4293C121.523 35.4293 125.377 35.1209 127.381 37.8959C130.31 41.9041 128.615 44.5249 128.46 44.8332C128.306 44.9874 128.306 45.2957 128.614 45.4499C128.769 45.4499 128.923 45.604 128.923 45.604Z" fill="#2E2E47"/>
<path d="M130.465 63.3322C130.465 63.3322 134.473 61.1739 136.94 59.0156C136.94 59.0156 137.865 61.0198 137.402 62.4072C136.631 63.7947 132.006 64.7197 130.465 63.3322Z" fill="white"/>
<path d="M127.381 82.9112C127.689 82.6029 131.081 81.5238 131.389 82.7571C131.389 82.7571 132.006 83.8362 131.235 84.607C133.856 90.0027 143.568 106.961 165.459 118.215C169.621 120.373 178.871 123.61 178.871 123.61L183.496 133.477L173.784 135.173C173.784 135.173 150.968 127.002 142.489 116.365C132.931 104.34 129.539 90.1569 128.46 85.532C128.306 85.532 128.152 85.3778 127.997 85.2237C127.381 84.4528 127.072 83.2195 127.381 82.9112Z" fill="#FFB300"/>
<path d="M159.292 169.55C129.076 175.1 103.639 170.013 95.3138 167.854C95.3138 169.396 95.1596 170.321 95.1596 170.784C94.8513 174.946 76.3518 236.303 70.3394 253.723C64.327 270.99 78.6642 284.71 84.5224 280.394C90.3806 276.077 114.892 230.291 115.972 228.286C118.438 223.816 125.067 211.945 127.842 213.333C129.076 213.949 136.321 262.665 136.321 262.665C136.321 262.665 125.684 331.576 127.688 341.75C128.151 343.909 129.538 345.605 131.542 346.221C133.084 346.684 135.088 347.146 137.709 347.146C138.788 347.146 139.867 346.992 140.638 346.838C143.567 346.375 144.492 343.6 145.571 340.825C151.429 325.101 167.308 282.706 169.158 265.902C171.624 243.549 162.221 191.441 159.292 169.55Z" fill="#171718"/>
<path d="M129.694 77.8233C129.54 77.515 128.615 80.7524 128.615 80.7524L117.207 76.7441L116.744 80.1357L127.073 86.7647L129.231 83.6815L132.931 82.9107C132.931 82.9107 129.848 78.1316 129.694 77.8233Z" fill="#2956C7"/>
<path d="M158.676 171.092C158.676 171.092 149.734 173.405 132.93 173.25C116.435 173.096 104.719 171.863 96.2396 169.242C96.2396 169.242 95.7772 172.788 95.623 173.867C95.623 173.867 110.731 177.721 131.851 177.875C151.738 178.029 159.292 174.946 159.292 174.946L158.676 171.092Z" fill="#9C6F43"/>
<path d="M149.271 171.555L150.35 178.492L146.342 178.8L146.496 171.555H149.271Z" fill="#2E2E47"/>
<path d="M107.8 170.938L106.259 177.722L110.113 178.338L110.575 171.247L107.8 170.938Z" fill="#2E2E47"/>
<path d="M134.625 174.638V176.642C131.696 176.642 126.3 176.642 121.829 176.333L121.984 174.175C124.913 174.483 130.308 174.946 134.625 174.638ZM135.704 172.788H135.55C130.617 173.096 123.525 172.634 121.059 172.325C120.596 172.325 120.134 172.634 120.134 173.096L119.979 177.258C119.979 177.721 120.288 178.183 120.75 178.183C126.146 178.646 133.238 178.646 135.704 178.646C136.167 178.646 136.629 178.183 136.629 177.721V173.559C136.475 173.096 136.167 172.788 135.704 172.788Z" fill="#FFEA8F"/>
<path d="M67.8726 69.8064C68.3351 69.8064 68.6434 69.8064 68.7976 69.4981C70.0309 68.2648 67.8726 63.4857 65.7143 58.7067C65.406 57.9359 64.9435 57.165 64.7894 56.7025C64.7894 56.5484 64.6352 56.5484 64.481 56.5484C64.3269 56.5484 64.3268 56.7026 64.3268 56.8567C64.481 57.3192 64.7894 57.9359 65.2519 58.8608C66.6393 61.7899 69.5684 67.9564 68.4892 69.0356C68.1809 69.3439 67.7184 69.1898 67.256 69.0356C65.406 68.2648 63.0935 64.719 60.7811 58.5525C58.9311 53.9276 57.6978 49.4569 57.6978 49.4569C57.6978 49.3027 57.5436 49.3027 57.3895 49.3027C57.2353 49.3027 57.2354 49.4569 57.2354 49.6111C57.2354 49.6111 58.4687 54.0818 60.3186 58.7067C62.7852 65.0274 64.9435 68.5731 67.1018 69.3439C67.4102 69.6523 67.7185 69.8064 67.8726 69.8064Z" fill="#2E2E47"/>
<path d="M208.779 105.882C208.933 105.882 208.933 105.882 209.087 105.728C209.241 105.573 209.087 105.419 209.087 105.419C208.624 105.111 208.008 104.649 207.083 104.186C204 102.336 198.758 99.2528 196.446 96.1695C196.137 95.7071 195.983 95.5529 195.983 95.3987C196.446 95.2446 199.221 96.632 201.225 97.557C204.616 99.2528 208.779 101.257 211.245 101.411C214.174 101.719 215.87 100.64 216.024 99.407C216.333 97.7112 214.02 96.4779 212.016 95.8612C206.158 94.3196 189.354 91.2363 189.2 91.2363C189.046 91.2363 188.892 91.2363 188.892 91.3905C188.892 91.5446 188.892 91.6988 189.046 91.6988C189.2 91.6988 206.004 94.7821 211.862 96.3237C214.791 97.0945 215.716 98.3278 215.562 99.2528C215.408 100.178 213.866 101.103 211.399 100.794C209.087 100.486 204.924 98.482 201.533 96.9404C197.525 94.9362 195.983 94.3196 195.675 94.9362C195.366 95.2446 195.675 95.8612 196.137 96.3237C198.45 99.5611 203.691 102.644 206.929 104.494C207.545 105.111 208.316 105.573 208.779 105.882C208.624 105.728 208.779 105.882 208.779 105.882Z" fill="#2E2E47"/>
<path d="M129.23 161.382C129.076 161.998 129.385 162.461 129.693 162.461C130.001 162.461 130.464 162.152 130.464 161.536C130.618 160.919 130.31 160.457 130.001 160.457C129.693 160.302 129.385 160.765 129.23 161.382Z" fill="#2E2E47"/>
<path d="M130.001 134.094C130.001 134.71 130.309 135.173 130.618 135.173C130.926 135.173 131.234 134.71 131.234 134.094C131.234 133.477 130.926 133.015 130.618 133.015C130.155 133.015 130.001 133.477 130.001 134.094Z" fill="#2E2E47"/>
<path d="M128.307 101.874C128.307 102.491 128.615 102.953 128.923 102.953C129.232 102.953 129.54 102.491 129.54 101.874C129.54 101.257 129.232 100.795 128.923 100.795C128.461 100.795 128.307 101.257 128.307 101.874Z" fill="#2E2E47"/>
<path d="M84.5231 278.853C85.2939 279.007 86.0647 278.853 86.9897 278.391C88.8396 277.312 91.3063 273.92 93.7729 270.683C95.6228 268.216 97.1644 265.903 98.2436 265.287C99.0144 264.824 99.631 264.67 100.094 265.133C100.556 265.749 100.402 267.291 99.0144 268.678C98.8602 268.833 98.8602 268.987 99.0144 268.987C99.1685 269.141 99.3227 269.141 99.3227 268.987C100.864 267.291 101.019 265.595 100.402 264.824C99.9394 264.208 99.0144 264.208 97.9353 264.978C96.8562 265.749 95.1604 267.908 93.3104 270.528C91.1521 273.612 88.5313 277.003 86.8355 278.082C85.6022 278.853 84.3689 278.699 83.1356 277.774C82.6731 277.466 82.3648 277.157 82.2107 276.849C82.9815 277.003 84.5231 276.849 87.1439 275.462C90.998 273.457 96.8561 263.745 99.1686 259.737C99.1686 259.583 99.3227 259.583 99.3227 259.583C99.3227 259.429 99.3228 259.274 99.1686 259.274C99.0144 259.274 98.8602 259.274 98.8602 259.429C98.8602 259.429 98.8603 259.583 98.7061 259.583C96.8562 262.666 90.8438 273.149 86.9897 275.153C82.8273 277.312 81.7482 276.232 81.7482 276.232C81.594 276.078 81.594 276.078 81.4398 276.232C81.2857 276.232 81.2857 276.387 81.4398 276.541C81.4398 276.541 82.0565 277.466 82.9815 278.236C83.1356 278.391 83.7523 278.699 84.5231 278.853Z" fill="white"/>
<path d="M145.111 280.086H145.265C145.42 279.932 145.42 279.778 145.265 279.778C145.265 279.624 138.174 270.991 138.482 267.907V267.753C138.945 267.599 142.028 270.528 144.495 272.841C148.965 277.157 154.053 281.936 156.211 281.474C156.674 281.32 156.982 281.011 157.136 280.549C158.061 278.39 154.669 274.69 147.424 269.449C142.028 265.595 136.324 262.357 136.324 262.357C136.17 262.357 136.016 262.357 136.016 262.512C136.016 262.666 136.016 262.82 136.17 262.82C142.491 266.366 158.369 276.54 156.828 280.395C156.673 280.703 156.519 280.857 156.211 281.011C154.207 281.474 148.811 276.232 144.957 272.532C140.949 268.678 139.099 267.136 138.482 267.291C138.328 267.291 138.174 267.445 138.174 267.753C137.866 270.991 144.803 279.624 145.111 279.932C144.957 279.932 145.111 280.086 145.111 280.086Z" fill="white"/>
<path d="M118.594 213.332C123.682 210.866 130.773 209.633 139.715 209.787C140.023 209.787 140.177 209.787 140.332 209.787C140.486 209.787 140.64 209.633 140.64 209.478C140.64 209.324 140.486 209.17 140.332 209.17C140.177 209.17 140.023 209.17 139.715 209.17C130.619 209.016 123.528 210.249 118.44 212.716C118.286 212.716 118.286 212.87 118.286 213.024C118.44 213.178 118.44 213.332 118.594 213.332Z" fill="white"/>
<path d="M133.547 213.179C133.701 213.179 137.709 213.025 141.717 212.716C150.042 212.1 150.196 211.483 150.351 211.175C150.351 210.866 150.196 210.712 149.888 210.558C146.496 208.862 144.184 208.862 144.184 208.862C144.03 208.862 143.876 209.016 143.876 209.171C143.876 209.325 144.03 209.479 144.184 209.479C144.184 209.479 146.496 209.479 149.734 211.175C149.888 211.175 149.888 211.329 150.042 211.329C149.426 212.1 141.409 212.716 133.701 212.871C133.547 212.871 133.393 213.025 133.393 213.179C133.393 213.025 133.393 213.179 133.547 213.179Z" fill="white"/>
</svg>
