<svg width="96" height="96" viewBox="0 0 96 96" fill="none" xmlns="http://www.w3.org/2000/svg">
<rect width="96" height="96" rx="48" fill="#E3F2FD"/>
<path d="M57 49.5V60H36V39H43.53C43.605 37.935 43.86 36.93 44.25 36H36C34.35 36 33 37.35 33 39V60C33 61.65 34.35 63 36 63H57C58.65 63 60 61.65 60 60V52.5L57 49.5ZM54.75 57H38.25L42.375 51.705L45.315 55.245L49.44 49.935L54.75 57ZM58.95 43.335C59.61 42.285 60 41.07 60 39.75C60 36.015 56.985 33 53.25 33C49.515 33 46.5 36.015 46.5 39.75C46.5 43.485 49.515 46.5 53.235 46.5C54.555 46.5 55.785 46.11 56.82 45.45L61.5 50.13L63.63 48L58.95 43.335ZM53.25 43.5C51.18 43.5 49.5 41.82 49.5 39.75C49.5 37.68 51.18 36 53.25 36C55.32 36 57 37.68 57 39.75C57 41.82 55.32 43.5 53.25 43.5Z" fill="#5886FE"/>
</svg>
